<svg xmlns="http://www.w3.org/2000/svg" viewBox="0 0 112.56 168.4"><defs><style>.cls-1{fill:#8e8e8e;}</style></defs><g id="Layer_2" data-name="Layer 2"><g id="Backgound_Flower_n_Leaves" data-name="Backgound Flower n Leaves"><g id="Outlined_Flower_n_Leaves" data-name="Outlined Flower n Leaves"><g id="Flower_n_Leaves" data-name="Flower n Leaves"><path id="Twig-2" class="cls-1" d="M84.63,162a40.64,40.64,0,0,1-.34,5.11,1.45,1.45,0,0,1-1.69,1.26,1.59,1.59,0,0,1-1.23-1.8,70,70,0,0,0,0-13.7A39.91,39.91,0,0,0,83.56,162a.59.59,0,0,0,.78.33A.57.57,0,0,0,84.63,162ZM62,80.94a.59.59,0,0,1-.76-.37c-.06-.16,0-3.34-2.78-9.42-1.69-3.35-9.06-16.33-9.36-15.49-.17.43.52,1.22.76,1.66a335.79,335.79,0,0,1,16.42,35c.42.55.38,1.44.74,1.92-.14-1.64-.25-2.29-.37-5.61-2.07-4.87-4.24-9.86-6.81-15.17,1.49,5.29,2.46,6.53,2.5,6.65A.62.62,0,0,1,62,80.94Zm14.23,31.89a54.87,54.87,0,0,0,4.45,16.32C79.51,124.29,78.05,118.84,76.18,112.83Zm5.89,29.23c.05.14.08.24.09.25a.64.64,0,0,1-.11.57c-.06,2.29,0,4.4.13,6.31a20.94,20.94,0,0,1,1.17,2.54.61.61,0,0,1-.34.79.53.53,0,0,1-.49-.05,38.31,38.31,0,0,0,2.12,9v0A125.67,125.67,0,0,0,82.45,138l-.06-.32C82.23,139.22,82.13,140.68,82.07,142.06Zm-1.19.19a27.18,27.18,0,0,0-1.17-2.69c.45,2.6.8,5,1.07,7.25l.1.15C80.83,145.49,80.83,143.91,80.88,142.25ZM68.32,96.11c.67.94,1.05,1.49,1.08,1.54a.63.63,0,0,1-.14.86.55.55,0,0,1-.82-.16l-.92-1.3A229.79,229.79,0,0,1,79,135.79c.87,1.47,1.53,2.76,2,3.79.13-1.71.33-3.51.61-5.38-4.4-10.89-5.85-15.78-6.33-22.46C73.37,105.88,70.79,99,68,92.19A21.4,21.4,0,0,0,68.32,96,.22.22,0,0,1,68.32,96.11Zm-9.84,18.62c-1.08-.72-2.2-1.43-3.37-2.13l.76.9.25.29-.36.09-.64.14c1.21.73,2.36,1.48,3.46,2.24l.62-.24Zm5.65,4.14c-.58-.47-1.17-.93-1.78-1.39l.27.68.09.22-.2.09-.55.22c.79.61,1.55,1.22,2.29,1.83l.29-.14C64.41,119.87,64.27,119.37,64.13,118.87ZM54,111.94c-2-1.14-4.08-2.24-6.33-3.3l.8.81.35.34-.47.06-.77.09q3.73,1.8,7,3.73l.76-.16C54.84,113,54.41,112.46,54,111.94Zm-23-8.86c.61,0,1.17,0,1.65,0-.44-.4-.87-.78-1.31-1.15C13.62,95.49,8.13,96.89,7.76,97l-.26.23a8.94,8.94,0,0,1,1.25.87C10.63,97.93,16.85,98,30.94,103.08Zm9.26,2.29.69.73.33.34-.45,0-.86.09c1.7.71,3.48,1.47,5.35,2.3l1.49.69,1-.13c-.36-.36-.76-.79-1.22-1.3l-.87-.4C43.78,106.88,41.94,106.1,40.2,105.37ZM61.67,117c-.77-.56-1.56-1.12-2.38-1.68.15.25.28.5.43.76l.13.23-.24.1-.56.21c.86.6,1.69,1.2,2.48,1.8l.6-.25C62,117.73,61.82,117.34,61.67,117Zm-28.4-13.9.37.35-.49,0a9.6,9.6,0,0,1-1,.07q3.15,1.17,6.81,2.68l1.27-.12-1.1-1.14c-2.39-1-4.61-1.85-6.68-2.62Zm48.89,39.26s0-.11-.09-.25c0,.28,0,.55,0,.82A.64.64,0,0,0,82.16,142.31ZM81,139.58c-.48-1-1.14-2.32-2-3.79a56.91,56.91,0,0,0-4.62-6.68,66.46,66.46,0,0,0-8.7-8.93c0,.14.08.27.11.41l.13.49-.44.22-.21.1a58.4,58.4,0,0,1,14.42,18.16,27.18,27.18,0,0,1,1.17,2.69C80.92,141.38,81,140.49,81,139.58ZM65.5,121.3l-.21.1c-2.22,1.09-19.94,9.31-31.94,2.07-7.1-4.29-13.41-11.46-18.49-17.23-3.65-4.15-6.8-7.73-8.61-8.22l-1.1-.3L6,96.94c4.15-3.8,12.78-11.72,26.72-10.38,7.83.75,16.16,3,23,11.55,4,4.94,7.42,12,10,22.07,0,.14.08.27.11.41l.13.49Zm-1.25-.78.29-.14c-.13-.51-.27-1-.41-1.51C61,107.26,56.63,100,51.7,95.44c-.2-.27-.41-.55-.61-.8a17.31,17.31,0,0,0-2.78-2.82.21.21,0,0,0-.31,0,.24.24,0,0,0,0,.33,15.24,15.24,0,0,1,1.78,1.67C44.9,90.06,39.45,88.59,34,87.94a12,12,0,0,0-3.08-1.11.22.22,0,0,0-.26.18.25.25,0,0,0,.18.28,9.62,9.62,0,0,1,1.66.5,30.12,30.12,0,0,0-6,0,8.48,8.48,0,0,0-4.61,0,.23.23,0,0,0-.13.29.22.22,0,0,0,.29.14A7.27,7.27,0,0,1,24.9,88a28.91,28.91,0,0,0-6.67,2,10.08,10.08,0,0,0-2.13.07.23.23,0,0,0-.18.27.22.22,0,0,0,.25.19,9.63,9.63,0,0,1,1.07-.08,33.17,33.17,0,0,0-4.7,2.72c-.85,0-1.33,0-1.35,0a.23.23,0,0,0-.21.25.23.23,0,0,0,.24.22s.26,0,.7,0A46.75,46.75,0,0,0,7.76,97l-.26.23a8.94,8.94,0,0,1,1.25.87c.43.34.88.75,1.36,1.21a7.44,7.44,0,0,1-1.73-1,.21.21,0,0,0-.31,0,.25.25,0,0,0,0,.33,10.12,10.12,0,0,0,2.85,1.5q.85.87,1.8,1.92c-.61-.28-.94-.47-1-.48a.21.21,0,0,0-.3.1.23.23,0,0,0,.09.31s.7.38,1.92.91c.7.78,1.44,1.61,2.21,2.49s1.57,1.79,2.4,2.71a5.46,5.46,0,0,1-1.18-.76.22.22,0,0,0-.32,0,.24.24,0,0,0,0,.32A7.17,7.17,0,0,0,18.87,109c4.4,4.88,9.5,10.09,15.05,13.44C44.59,128.83,60.65,122.16,64.25,120.52ZM61.67,117c.15.39.3.78.46,1.17l-.6.25c-10.58,4.31-22.79,3.84-22.92,3.83a.24.24,0,0,0,0,.47c.13,0,12.63.49,23.36-4l.55-.22.2-.09-.09-.22-.27-.68c-3.57-9-6.94-17-10.65-22-.2-.27-.41-.55-.61-.8a17.31,17.31,0,0,0-2.78-2.82.21.21,0,0,0-.31,0,.24.24,0,0,0,0,.33,15.24,15.24,0,0,1,1.78,1.67C54,98.43,57.72,107,61.67,117Zm-1.82-.69-.13-.23c-.15-.26-.28-.51-.43-.76-3.9-7-7.58-13.32-11.32-18a29.12,29.12,0,0,0-5.87-5.77.22.22,0,0,0-.31.06.25.25,0,0,0,.07.33c5.62,3.91,11.08,12.93,16.62,22.83L59.2,116l-.62.24C46,121,29.85,117.08,29.69,117a.23.23,0,0,0-.27.17.24.24,0,0,0,.17.28c.17,0,16.68,4.09,29.46-.92l.56-.21Zm-13.19-14c2.17,3,4.59,6.31,7.32,9.65.43.52.86,1,1.31,1.57l-.76.16a65.28,65.28,0,0,1-28.48-1,.21.21,0,0,0-.27.16.23.23,0,0,0,.16.28c.14,0,14.21,4.17,29.18.87l.64-.14.36-.09-.25-.29-.76-.9c-3-3.64-5.72-7.32-8.1-10.59-1.74-2.4-3.36-4.64-5-6.63-2.66-3.33-5.23-5.95-8.09-7.44a12,12,0,0,0-3.08-1.11.22.22,0,0,0-.26.18.25.25,0,0,0,.18.28,9.62,9.62,0,0,1,1.66.5C37.52,89.7,41.61,95.33,46.66,102.29Zm.9,7.65.77-.09.47-.06-.35-.34-.8-.81c-2-2.13-5.21-6-10.47-12.39l-1.72-2.1c-3.36-4.08-6.57-5.72-9-6.32a8.48,8.48,0,0,0-4.61,0,.23.23,0,0,0-.13.29.22.22,0,0,0,.29.14A7.27,7.27,0,0,1,24.9,88c2.46.24,6.21,1.54,10.23,6.42l1.72,2.09c4.65,5.65,7.69,9.34,9.73,11.59.46.51.86.94,1.22,1.3l-1,.13c-10.87,1.23-23.75,1-28.63-1.46a5.46,5.46,0,0,1-1.18-.76.22.22,0,0,0-.32,0,.24.24,0,0,0,0,.32A7.17,7.17,0,0,0,18.87,109C25,111.3,38.33,111.05,47.56,109.94Zm-7.65-3.36.86-.09.45,0-.33-.34-.69-.73c-7.08-7.36-15-14.85-22-15.37a10.08,10.08,0,0,0-2.13.07.23.23,0,0,0-.18.27.22.22,0,0,0,.25.19,9.63,9.63,0,0,1,1.07-.08C24,90.27,32,97.54,39.15,104.94l1.1,1.14L39,106.2a53.47,53.47,0,0,1-26.22-4.13c-.61-.28-.94-.47-1-.48a.21.21,0,0,0-.3.1.23.23,0,0,0,.09.31s.7.38,1.92.91A55,55,0,0,0,39.91,106.58Zm-7.74-3.06a9.6,9.6,0,0,0,1-.07l.49,0-.37-.35-.8-.73c-8.57-7.68-16.78-9-19.93-9.15-.85,0-1.33,0-1.35,0a.23.23,0,0,0-.21.25.23.23,0,0,0,.24.22s.26,0,.7,0c2.38,0,10.57.83,19.36,8.27.44.37.87.75,1.31,1.15-.48,0-1,0-1.65,0-5.7,0-16.18-1.7-20.83-3.77a7.44,7.44,0,0,1-1.73-1,.21.21,0,0,0-.31,0,.25.25,0,0,0,0,.33,10.12,10.12,0,0,0,2.85,1.5C16.47,102.24,27.07,103.76,32.17,103.52ZM88,114.64l-.39.27,0-.49c0-.35.06-.74.08-1.17-1,2.32-1.87,4.59-2.62,6.78,0,.69,0,1.39,0,2.09l.68-.4q1.17-3.64,2.82-7.54Zm-3.56,11.78c.35-1.32.72-2.66,1.15-4l-.56.33-.33.18v-.39c0-.41,0-.8,0-1.2-.43,1.32-.81,2.61-1.16,3.88l.3,1.48ZM95.66,97.05c-.09.58-.18,1.16-.24,1.76.38-.3.81-.67,1.26-1.09C104,84.29,108.59,80,110.1,78.87a9.61,9.61,0,0,1,.38-1.5h-.35C109.8,77.53,104.79,80.2,95.66,97.05Zm-3.44,9.4-.7.52-.38.27,0-.48c0-.34,0-.68,0-1q-1.26,2.61-2.6,5.53c-.14.29-.27.59-.4.88,0,.69,0,1.3-.08,1.83l.88-.63c.22-.51.43-1,.67-1.53C90.55,109.93,91.4,108.14,92.22,106.45ZM83.75,127.2l-.24.09-.06-.27c0-.29-.11-.57-.17-.86-.25,1-.48,1.94-.69,2.89.14.39.27.79.41,1.18l.6-.22c.21-1,.44-2,.7-3ZM95.27,99.5l-.41.3.06-.52c0-.36.08-.72.13-1.08q-1.59,3-3.33,6.51l-.09,1.6,1-.78c1.18-2.42,2.31-4.63,3.38-6.65C95.78,99.11,95.51,99.33,95.27,99.5ZM82.05,135.05l-.22-.46c-.07-.13-.13-.26-.19-.39-.28,1.87-.48,3.67-.61,5.38-.07.91-.11,1.8-.15,2.67,0,1.66,0,3.24,0,4.71.52.81,1,1.56,1.3,2.23-.14-1.91-.19-4-.13-6.31,0-.27,0-.54,0-.82.06-1.38.16-2.84.32-4.34.09-.94.21-1.89.35-2.87l-.23.07Zm.89-4.3-.21.07-.08-.22-.24-.71c-.16.76-.3,1.52-.44,2.26.23.47.44.94.68,1.42l.31-.1c.15-.95.33-1.93.53-2.92Zm-.42,21.72a.68.68,0,0,1-.28-.32A19.72,19.72,0,0,0,81,149.47c.1,1.22.22,2.35.36,3.41A39.91,39.91,0,0,0,83.56,162a.59.59,0,0,0,.78.33.57.57,0,0,0,.29-.32.61.61,0,0,0,0-.48v0A38.31,38.31,0,0,1,82.52,152.47Zm-.88-18.27c-5-10.28-6.87-18.51-6.72-25.3.21-10,4.74-16.81,9.8-22.35,9.58-10.5,21.15-10.45,26.71-10.42h1.13l-.64,1c-1,1.59-1.09,6.43-1.16,12-.09,7.78-.2,17.46-2.76,25.5-4.33,13.61-22.89,19.52-25.26,20.22l-.23.07-.46.13-.22-.46C81.76,134.46,81.7,134.33,81.64,134.2Zm-5.46-21.37a54.87,54.87,0,0,0,4.45,16.32c.41,1,.87,2,1.34,3,.23.47.44.94.68,1.42l.31-.1c3.74-1.22,20.07-7.16,23.92-19.25,2-6.29,2.47-13.68,2.62-20.32a7.85,7.85,0,0,0,.86-2.45.23.23,0,0,0,0-.18.22.22,0,0,0-.14-.08.22.22,0,0,0-.25.19,5.41,5.41,0,0,1-.39,1.37c0-1.25,0-2.48,0-3.66s0-2.31,0-3.37c.58-1.23.84-2,.86-2a.26.26,0,0,0,0-.23l-.1-.07a.21.21,0,0,0-.28.13s-.14.39-.42,1q0-1.44.12-2.67a10.73,10.73,0,0,0,1.17-3.06.25.25,0,0,0,0-.19.22.22,0,0,0-.14-.08.22.22,0,0,0-.25.19,7.58,7.58,0,0,1-.64,1.93q.09-1,.24-1.83a9.61,9.61,0,0,1,.38-1.5h-.35a48.43,48.43,0,0,0-5.29.29c.31-.3.51-.46.52-.47a.25.25,0,0,0,0-.33.21.21,0,0,0-.31,0,10.51,10.51,0,0,0-1,.94,33.21,33.21,0,0,0-5.28,1.16c.28-.23.56-.46.86-.66a.24.24,0,0,0,.06-.32.22.22,0,0,0-.31-.08,10.24,10.24,0,0,0-1.63,1.4,28.82,28.82,0,0,0-6.27,3.08,7.43,7.43,0,0,1,2.34-1.81.23.23,0,0,0,.12-.3.23.23,0,0,0-.29-.14,8.85,8.85,0,0,0-3.45,3.14,31.87,31.87,0,0,0-4.55,4.07,11.53,11.53,0,0,1,.93-1.51.25.25,0,0,0,0-.33.21.21,0,0,0-.31,0,12.37,12.37,0,0,0-1.59,2.93c-3.7,4.23-6.84,9-8.09,15.26a15.86,15.86,0,0,1,.26-2.48.22.22,0,0,0-.17-.27.21.21,0,0,0-.26.17,19.09,19.09,0,0,0-.21,5A33,33,0,0,0,76.18,112.83Zm6.47,17.77.08.22.21-.07.55-.2c10.92-4,20-12.84,20.06-12.93a.24.24,0,0,0,0-.32h0a.2.2,0,0,0-.31,0c-.09.09-8.94,8.76-19.65,12.73l-.6.22c-.14-.39-.27-.79-.41-1.18-3.44-10.13-6.19-19.08-6-25.36a15.86,15.86,0,0,1,.26-2.48.22.22,0,0,0-.17-.27.21.21,0,0,0-.26.17,19.09,19.09,0,0,0-.21,5c.45,6.29,3.07,14.55,6.2,23.74Zm.86-3.31.24-.09.55-.22c12.81-5,22.57-19.24,22.67-19.38a.26.26,0,0,0,0-.29l0,0a.22.22,0,0,0-.31,0c-.1.15-9.63,14.09-22.16,19.1l-.61.25-.3-1.48C81.32,114,79.61,103.54,81.3,96.78a.24.24,0,0,0-.16-.29.21.21,0,0,0-.27.16c-1.76,7,0,17.53,2.41,29.51.06.29.12.57.17.86ZM84,107.87c.33,4.06.69,8.63.75,13.44,0,.4,0,.79,0,1.2v.39l.33-.18.56-.33c13.35-7.73,21.24-20.4,21.32-20.53a.26.26,0,0,0,0-.28l-.05,0a.22.22,0,0,0-.31.06c-.08.13-7.74,12.43-20.71,20.12l-.68.4c0-.7,0-1.4,0-2.09-.1-4.35-.43-8.48-.73-12.19-.7-8.66-1.25-15.66,1.3-20.54a11.53,11.53,0,0,1,.93-1.51.25.25,0,0,0,0-.33.21.21,0,0,0-.31,0,12.37,12.37,0,0,0-1.59,2.93C82.78,93.31,83.31,99.9,84,107.87Zm3.6-13.76.06,2.77c.17,8.34.27,13.41.13,16.37,0,.43,0,.82-.08,1.17l0,.49.39-.27.64-.46c7.63-5.45,17.81-14.38,20.85-20.28a7.85,7.85,0,0,0,.86-2.45.23.23,0,0,0,0-.18.22.22,0,0,0-.14-.08.22.22,0,0,0-.25.19,5.41,5.41,0,0,1-.39,1.37C107.44,97.9,98,106.87,89,113.35l-.88.63c0-.53.07-1.14.08-1.83.08-3.08,0-7.9-.17-15.27L88,94.11c-.13-6.39,1.84-9.92,3.53-11.77a7.43,7.43,0,0,1,2.34-1.81.23.23,0,0,0,.12-.3.23.23,0,0,0-.29-.14,8.85,8.85,0,0,0-3.45,3.14C88.78,85.35,87.44,88.76,87.55,94.11Zm3.67,11.63c0,.34,0,.68,0,1l0,.48.38-.27.7-.52a57.57,57.57,0,0,0,17.41-20.73c.58-1.23.84-2,.86-2a.26.26,0,0,0,0-.23l-.1-.07a.21.21,0,0,0-.28.13s-.14.39-.42,1a56,56,0,0,1-17,21l-1,.78.09-1.6c.61-10.43,1.89-21.3,7.09-25.79.28-.23.56-.46.86-.66a.24.24,0,0,0,.06-.32.22.22,0,0,0-.31-.08,10.24,10.24,0,0,0-1.63,1.4C92.91,84.39,91.78,95.4,91.22,105.74Zm3.7-6.46-.06.52.41-.3c.24-.17.51-.39.78-.62,4-3.3,10.93-11.65,13.72-17a10.73,10.73,0,0,0,1.17-3.06.25.25,0,0,0,0-.19.22.22,0,0,0-.14-.08.22.22,0,0,0-.25.19,7.58,7.58,0,0,1-.64,1.93c-2.14,4.72-8.93,13.11-13.18,17-.45.42-.88.79-1.26,1.09.06-.6.15-1.18.24-1.76,1.79-11.56,7.43-17.72,9.18-19.39.31-.3.51-.46.52-.47a.25.25,0,0,0,0-.33.21.21,0,0,0-.31,0,10.51,10.51,0,0,0-1,.94c-2.24,2.28-7.57,8.84-9,20.44C95,98.56,95,98.92,94.92,99.28ZM73.32,37.4l-.32.31,0-.46q0-.47-.06-.93c-.82,2.16-1.54,4.38-2.18,6.65,0,.86,0,1.73,0,2.6.24-.21.48-.44.73-.7A76.41,76.41,0,0,1,74,36.69C73.79,36.94,73.56,37.18,73.32,37.4Zm-2.7,8.83-.34.27,0-.45c0-.43,0-.87,0-1.3-.71,2.76-1.3,5.57-1.79,8.37q.09,1.31.24,2.49c.21-.19.43-.41.65-.65.49-3.09,1.11-6.19,1.88-9.24C71,45.9,70.81,46.08,70.62,46.23ZM68.24,63.7c-.17.23-.34.44-.51.65l-.22.28-.15-.35c-.1-.23-.2-.48-.29-.72-.15,1.62-.27,3.23-.37,4.8.17.43.34.84.5,1.22l.66-.88C68,67.07,68.08,65.4,68.24,63.7ZM79.82,24.65a.52.52,0,0,0-.11-.1.56.56,0,0,0-.82.12,53.5,53.5,0,0,0-5.5,10.39,11.68,11.68,0,0,0,0,1.67c.39-.39.78-.81,1.16-1.25a51.79,51.79,0,0,1,5.34-10.06A.66.66,0,0,0,79.82,24.65ZM67.33,70.18l-.22.3L67,70.12l-.31-.74c-.06,1-.1,2-.14,3,.2.39.38.71.53,1l.64-.83c0-1,.08-2,.14-3Zm1.33-13.94-.29.24-.06-.39c-.06-.39-.11-.8-.16-1.22-.41,2.57-.73,5.12-1,7.63.14.43.29.85.45,1.25.23-.28.46-.59.7-.91.23-2.34.52-4.71.89-7.1C69,55.92,68.84,56.09,68.66,56.24Zm-.34,39.87a.22.22,0,0,0,0-.08c0-.1-.26-2.39-.48-6.15s-.39-9.17-.23-15.3l-.17.2-.46.58-.45-.6a.87.87,0,0,1-.1-.14c-.12,4.56-.05,8.68.08,12.08s.32,5.93.46,7.57ZM66.53,74.76a.87.87,0,0,1-.1-.14c-.71-1-4.76-7.38-5-20.92-.24-12,10.27-23.65,16.56-30.62,1.49-1.66,2.78-3.09,3.67-4.22l1-1.31,0,1.7c.61,32.85-5.57,43.32-15.07,55.33l-.17.2-.46.58ZM63,59.48A37.61,37.61,0,0,0,66.5,72.39c.2.39.38.71.53,1l.64-.83c4-5.15,7.34-10.17,9.74-17.06a20.56,20.56,0,0,0,2.26-4.55.3.3,0,0,0,0-.21.24.24,0,0,0-.12-.07.21.21,0,0,0-.27.16,12.07,12.07,0,0,1-1.14,2.58,68.21,68.21,0,0,0,2-8.91c.7-1.26,1.12-2,1.14-2.08a.24.24,0,0,0,0-.27l-.06,0a.21.21,0,0,0-.3.08l-.57,1c.32-2.18.58-4.49.78-7a12.27,12.27,0,0,0,1-2.64.18.18,0,0,0,0-.16.24.24,0,0,0-.16-.09.22.22,0,0,0-.23.22,6.63,6.63,0,0,1-.47,1.31c.09-1.23.16-2.5.21-3.82.49-.88.8-1.46.85-1.56a.24.24,0,0,0,0-.27l-.06-.05a.21.21,0,0,0-.3.08l-.43.79c0-1.4.08-2.86.09-4.37.5-.93.79-1.52.81-1.54a.27.27,0,0,0,0-.26.18.18,0,0,0-.07-.05.21.21,0,0,0-.3.09l-.4.78c0-1.21,0-2.45,0-3.74-.77.9-1.69,1.92-2.69,3s-1.93,2.14-3,3.35c.47-.94.83-1.51.84-1.53a.25.25,0,0,0-.07-.32.21.21,0,0,0-.31.06,27.6,27.6,0,0,0-1.58,3.09c-.55.66-1.12,1.33-1.69,2,.22-.67.36-1.06.37-1.07a.24.24,0,0,0-.12-.31.21.21,0,0,0-.29.13s-.32.84-.72,2.2c-1,1.31-2,2.67-3,4.09.07-.57.11-.89.11-.91a.23.23,0,0,0-.19-.27.22.22,0,0,0-.25.19s-.09.69-.22,1.79a47.67,47.67,0,0,0-3.57,6.33c0-.65,0-1,0-1.06a.24.24,0,0,0-.21-.25.22.22,0,0,0-.24.21s0,.85-.07,2.18a24.24,24.24,0,0,0-2.09,9.83c0,1.36.1,2.65.19,3.87l-.48-1.43A.22.22,0,0,0,62,56a.24.24,0,0,0-.14.3S62.32,57.62,63,59.48Zm4,10.64.16.36.22-.3.48-.65c3-4,7.08-9.87,9.6-14.07a20.56,20.56,0,0,0,2.26-4.55.3.3,0,0,0,0-.21.24.24,0,0,0-.12-.07.21.21,0,0,0-.27.16,12.07,12.07,0,0,1-1.14,2.58A158.06,158.06,0,0,1,67.86,68.7l-.66.88c-.16-.38-.33-.79-.5-1.22-1.45-3.58-3.12-8.42-3.93-10.79l-.48-1.43A.22.22,0,0,0,62,56a.24.24,0,0,0-.14.3s.45,1.33,1.09,3.19c1,2.83,2.45,7,3.68,9.9Zm.41-5.84.15.35.22-.28c.17-.21.34-.42.51-.65,3.81-5,9.47-14.92,11.88-19.24.7-1.26,1.12-2,1.14-2.08a.24.24,0,0,0,0-.27l-.06,0a.21.21,0,0,0-.3.08l-.57,1c-1.85,3.35-7.84,14.07-12,19.66-.24.32-.47.63-.7.91-.16-.4-.31-.82-.45-1.25C64.94,55.71,65,46,65.14,42.79c0-.65,0-1,0-1.06a.24.24,0,0,0-.21-.25.22.22,0,0,0-.24.21s0,.85-.07,2.18c-.08,4.17,0,13.43,2.4,19.69C67.16,63.8,67.26,64.05,67.36,64.28Zm.79-9.41c0,.42.1.83.16,1.22l.06.39.29-.24c.18-.15.36-.32.55-.5C73,52,78.79,41.27,81.09,36.18a12.27,12.27,0,0,0,1-2.64.18.18,0,0,0,0-.16.24.24,0,0,0-.16-.09.22.22,0,0,0-.23.22,6.63,6.63,0,0,1-.47,1.31c-1.71,4-7.74,15.76-11.85,20.14-.22.24-.44.46-.65.65q-.15-1.19-.24-2.49a106.06,106.06,0,0,1,.82-17.46c.07-.57.11-.89.11-.91a.23.23,0,0,0-.19-.27.22.22,0,0,0-.25.19s-.09.69-.22,1.79C68.29,40.14,67.47,48.71,68.15,54.87Zm2.08-10.12c0,.43,0,.87,0,1.3l0,.45.34-.27c.19-.15.39-.33.59-.51C74.83,42.39,79.49,34.4,81.39,31c.49-.88.8-1.46.85-1.56a.24.24,0,0,0,0-.27l-.06-.05a.21.21,0,0,0-.3.08l-.43.79c-1.45,2.62-6.24,11.06-10,14.88-.25.26-.49.49-.73.7,0-.87,0-1.74,0-2.6A50.27,50.27,0,0,1,73,30.62c.22-.67.36-1.06.37-1.07a.24.24,0,0,0-.12-.31.21.21,0,0,0-.29.13s-.32.84-.72,2.2A48,48,0,0,0,70.23,44.75Zm2.66-8.43q0,.47.06.93l0,.46.32-.31c.24-.22.47-.46.71-.71,3.12-3.29,6.11-8.5,7.49-11.07.5-.93.79-1.52.81-1.54a.27.27,0,0,0,0-.26.18.18,0,0,0-.07-.05.21.21,0,0,0-.3.09l-.4.78a64.82,64.82,0,0,1-7,10.84c-.38.44-.77.86-1.16,1.25a11.68,11.68,0,0,1,0-1.67,23.16,23.16,0,0,1,2.45-7.77c.47-.94.83-1.51.84-1.53a.25.25,0,0,0-.07-.32.21.21,0,0,0-.31.06,27.6,27.6,0,0,0-1.58,3.09A19.5,19.5,0,0,0,72.89,36.32ZM54.33,49.43l-.16.33-.22-.3q-.23-.3-.45-.63c.24,1.62.49,3.22.77,4.78.26.37.52.72.77,1.06l.42-1c-.28-1.62-.55-3.28-.79-5ZM54,20.87c-.17.3-.34.6-.52.87l-.23.39L53,21.69c-.1-.29-.19-.59-.27-.89-.29,2.31-.47,4.67-.56,7,.17.84.36,1.69.59,2.54q.27-.4.54-.87A82.08,82.08,0,0,1,54,20.87ZM56.83,7.75a.68.68,0,0,0-.23-.18.58.58,0,0,0-.77.34A55.84,55.84,0,0,0,53,19.43a12.73,12.73,0,0,0,.36,1.65c.28-.48.55-1,.82-1.52A53.29,53.29,0,0,1,56.94,8.39.67.67,0,0,0,56.83,7.75Zm-.66,49.66c-.19-1-.38-1.95-.56-2.95l-.31.75-.15.35-.23-.3-.47-.64c.18,1,.37,2,.56,3,.29.33.54.59.74.8ZM52.89,31l-.27.35L52.5,31c-.12-.42-.23-.84-.33-1.27-.05,2.88,0,5.76.22,8.62.26.83.53,1.62.82,2.36.15-.24.31-.51.47-.79-.25-3.14-.38-6.32-.35-9.49Zm.44,10.25-.23.31L53,41.23c-.15-.36-.29-.74-.43-1.13.21,2.6.49,5.17.84,7.67q.35.58.72,1.11c.15-.34.31-.7.46-1.07q-.48-3.51-.8-7.14A7.4,7.4,0,0,1,53.33,41.29Zm7.86,39.28a.59.59,0,0,0,.76.37.62.62,0,0,0,.34-.8c0-.12-1.23-3.42-2.73-8.71-.93-3.31-2-7.41-3-12a2.56,2.56,0,0,1-.11.24l-.3.68-.59-.47-.13-.11c.48,2.24,1,4.36,1.47,6.32C59.07,74.68,61.13,80.41,61.19,80.57Zm-5.6-20.69-.13-.11c-.92-.8-6.31-6-9.73-19.08C42.7,29.08,50.13,15,54.56,6.6c1.06-2,2-3.73,2.56-5.06L57.8,0l.43,1.66C66.48,33.49,63,45.28,56.59,59.43a2.56,2.56,0,0,1-.11.24l-.3.68ZM55,57.58c.29.33.54.59.74.8l.42-1c2.66-6,4.71-11.8,5.42-19.13a21.33,21.33,0,0,0,1.12-5,.2.2,0,0,0-.06-.15.2.2,0,0,0-.17-.09.22.22,0,0,0-.22.23,12.09,12.09,0,0,1-.5,2.81,70.16,70.16,0,0,0-.12-9.21l.62-2.31a.25.25,0,0,0,0-.22.21.21,0,0,0-.11-.07.21.21,0,0,0-.27.16s-.12.44-.31,1.15c-.2-2.2-.48-4.53-.88-7A13.77,13.77,0,0,0,61,15.72a.31.31,0,0,0,0-.1.22.22,0,0,0-.21-.09.25.25,0,0,0-.18.28,6.49,6.49,0,0,1-.14,1.39c-.21-1.22-.44-2.47-.7-3.77.27-1,.43-1.63.46-1.74a.25.25,0,0,0,0-.21A.21.21,0,0,0,60,11.4a.21.21,0,0,0-.27.16s-.09.34-.24.88c-.28-1.38-.59-2.81-.92-4.29.26-1,.41-1.68.41-1.7a.25.25,0,0,0,0-.21l-.12-.08a.23.23,0,0,0-.27.17s-.07.34-.21.87c-.27-1.19-.56-2.39-.88-3.64C57,4.64,56.31,5.87,55.6,7.22s-1.36,2.57-2.09,4c.23-1,.44-1.68.44-1.7a.24.24,0,0,0-.14-.3.22.22,0,0,0-.28.14,28,28,0,0,0-.8,3.42c-.39.78-.77,1.59-1.16,2.41,0-.71.1-1.12.11-1.14a.24.24,0,0,0-.2-.27.21.21,0,0,0-.24.2s-.11.9-.18,2.34c-.69,1.53-1.35,3.12-2,4.75-.06-.57-.09-.89-.1-.91a.23.23,0,0,0-.24-.22.24.24,0,0,0-.2.26s.07.69.21,1.79a47.3,47.3,0,0,0-2,7.09c-.13-.64-.2-1-.21-1.05a.23.23,0,0,0-.26-.19.22.22,0,0,0-.17.27s.15.84.43,2.14a24.85,24.85,0,0,0,.28,10.11c.34,1.33.71,2.56,1.09,3.72-.49-.77-.78-1.25-.8-1.27a.21.21,0,0,0-.3-.07.24.24,0,0,0-.07.32s.74,1.19,1.8,2.83A37.22,37.22,0,0,0,55,57.58Zm-.09-2.32.23.3.15-.35.31-.75c2-4.72,4.53-11.44,6-16.18a21.33,21.33,0,0,0,1.12-5,.2.2,0,0,0-.06-.15.2.2,0,0,0-.17-.09.22.22,0,0,0-.22.23,12.09,12.09,0,0,1-.5,2.81,165.83,165.83,0,0,1-6.3,17.57l-.42,1c-.25-.34-.51-.69-.77-1.06C52,50.48,49.29,46.2,48,44.1c-.49-.77-.78-1.25-.8-1.27a.21.21,0,0,0-.3-.07.24.24,0,0,0-.07.32s.74,1.19,1.8,2.83c1.6,2.51,4,6.15,5.86,8.71Zm-1-5.8.22.3.16-.33.34-.76c2.52-5.81,5.66-17,7-21.81l.62-2.31a.25.25,0,0,0,0-.22.21.21,0,0,0-.11-.07.21.21,0,0,0-.27.16s-.12.44-.31,1.15c-1,3.74-4.28,15.73-7,22.24-.15.37-.31.73-.46,1.07q-.37-.52-.72-1.11c-3.74-6-5.92-15.53-6.56-18.67-.13-.64-.2-1-.21-1.05a.23.23,0,0,0-.26-.19.22.22,0,0,0-.17.27s.15.84.43,2.14c.9,4.08,3.19,13.07,6.91,18.56Q53.72,49.16,54,49.46Zm-1-8.23.15.37.23-.31a7.4,7.4,0,0,0,.41-.62c2.82-4.6,5.87-16.57,6.9-22.12A13.77,13.77,0,0,0,61,15.72a.31.31,0,0,0,0-.1.22.22,0,0,0-.21-.09.25.25,0,0,0-.18.28,6.49,6.49,0,0,1-.14,1.39c-.72,4.36-3.8,17.35-6.74,22.68-.16.28-.32.55-.47.79-.29-.74-.56-1.53-.82-2.36A108,108,0,0,1,49.1,21.09c-.06-.57-.09-.89-.1-.91a.23.23,0,0,0-.24-.22.24.24,0,0,0-.2.26s.07.69.21,1.79c.45,3.69,1.65,12.26,3.75,18.09C52.66,40.49,52.8,40.87,53,41.23ZM52.5,31l.12.43.27-.35.44-.65c2.72-4.18,5.35-13.16,6.39-17,.27-1,.43-1.63.46-1.74a.25.25,0,0,0,0-.21A.21.21,0,0,0,60,11.4a.21.21,0,0,0-.27.16s-.09.34-.24.88c-.78,2.92-3.43,12.37-6.18,17.07q-.27.46-.54.87c-.23-.85-.42-1.7-.59-2.54a51,51,0,0,1-.64-12.63c0-.71.1-1.12.11-1.14a.24.24,0,0,0-.2-.27.21.21,0,0,0-.24.2s-.11.9-.18,2.34a48.36,48.36,0,0,0,1.11,13.35C52.27,30.12,52.38,30.54,52.5,31Zm.27-10.16c.08.3.17.6.27.89l.16.44.23-.39c.18-.27.35-.57.52-.87,2.24-4,3.91-9.86,4.65-12.72.26-1,.41-1.68.41-1.7a.25.25,0,0,0,0-.21l-.12-.08a.23.23,0,0,0-.27.17s-.07.34-.21.87a66.11,66.11,0,0,1-4.24,12.36c-.27.53-.54,1-.82,1.52A12.73,12.73,0,0,1,53,19.43a23.89,23.89,0,0,1,.56-8.19c.23-1,.44-1.68.44-1.7a.24.24,0,0,0-.14-.3.22.22,0,0,0-.28.14,28,28,0,0,0-.8,3.42A19.78,19.78,0,0,0,52.77,20.8ZM7,16.7a.64.64,0,0,0,.38.79,49.56,49.56,0,0,1,10,5.13c.56.14,1.12.26,1.65.35a11.42,11.42,0,0,0-1-1.35A50.69,50.69,0,0,0,7.7,16.32.57.57,0,0,0,7,16.7ZM39.31,42.06l.07.37-.34-.1-.78-.23c1.08,1.3,1.48,1.88,2.48,3.16l1,.34c-.08-.41.46-.13.36-.58q-1.44-1.86-3-3.72C39.2,41.55,39.26,41.81,39.31,42.06Zm2.81,3c.06.27.11.54.16.79l.07.38L42,46.16c-.25-.07-.5-.16-.75-.24,1.19,1.55,1.73,2.3,1.78,2.37l1,.3c0-.29-.05-.66-.11-1.11-.49-.66-1-1.34-1.52-2ZM34,35.89l.17.36-.38,0a6.34,6.34,0,0,1-.72-.08c1.63,1.74,3.19,3.51,4.69,5.29.37.13.74.25,1.09.35-.1-.43-.21-.86-.34-1.29-1.6-1.91-3.29-3.82-5.06-5.68C33.59,35.18,33.78,35.54,34,35.89ZM19.6,23.16l.22.41-.44-.07c-.31,0-.64-.1-1-.17a77.7,77.7,0,0,1,6.71,5.19c.34.06.68.11,1,.14-.46-.73-1-1.44-1.47-2.12-1.79-1.48-3.63-2.89-5.51-4.18C19.3,22.62,19.46,22.89,19.6,23.16Zm7.13,5.64.23.38-.42,0c-.25,0-.5,0-.77-.07,2.33,2.05,4.58,4.23,6.71,6.48.31.06.61.12.89.15-.35-.71-.75-1.44-1.19-2.18-2-2-4-4-6.17-5.83C26.26,28.07,26.5,28.43,26.73,28.8Zm28.4,37.48a.63.63,0,0,0,.23-.84c-.06-.12-2-3.8-5.43-9.19-1.67-2.63-3.7-5.67-6-8.89v.17l0,.76-.7-.21L42.91,48c2.38,3.3,4.44,6.4,6.13,9.07,3.33,5.25,5.22,8.83,5.28,9A.59.59,0,0,0,55.13,66.28ZM44.48,50l-.25-.07c-14-4.13-24.29-7.53-43.3-36.56L0,12l2.2,1.19c1.36.41,3.22.83,5.37,1.32,8.67,2,22.32,4.46,29.22,13.49.3.4.59.8.86,1.22,9,13.82,7.6,18.19,7.58,20.1,0,.09,0,.15,0,.18l-2-1.88ZM26.12,40.7C32,45,36.87,46.4,43,48.29l1,.3c0-.29-.05-.66-.11-1.11a30.41,30.41,0,0,0-3.68-11.93c-.51-1.9-.89-3.23-.9-3.26a.2.2,0,0,0,0-.08.2.2,0,0,0-.23-.08.22.22,0,0,0-.15.29s.16.56.4,1.45c-.6-1.06-1.26-2.15-2-3.29a23.52,23.52,0,0,0-7.22-6.84c-.66-.93-1.12-1.54-1.24-1.7l0,0a.21.21,0,0,0-.31,0,.25.25,0,0,0,0,.33h0l.63.85A45.31,45.31,0,0,0,22.64,20L21.46,18.7a.22.22,0,0,0-.32,0,.22.22,0,0,0,0,.32l.6.68c-1.58-.59-3.18-1.12-4.75-1.58-1.1-.89-1.81-1.38-1.83-1.4a.21.21,0,0,0-.3.07.24.24,0,0,0,.06.32l.91.67c-.86-.24-1.7-.47-2.53-.68a28.92,28.92,0,0,0-3-1.61.23.23,0,0,0-.29.13.25.25,0,0,0,.13.31s.63.27,1.54.76c-1.54-.37-3-.7-4.32-1s-2.77-.62-3.91-.91c.71,1.06,1.4,2.07,2.08,3.07l-.76-.41c-.11-.06-.88-.73-.93-.61a.24.24,0,0,0,.1.31,13.2,13.2,0,0,0,2.15,1.5c.85,1.24,1.7,2.41,2.52,3.54a10.16,10.16,0,0,1-1.42-1.11.22.22,0,0,0-.3.11.25.25,0,0,0,.11.31A18.07,18.07,0,0,0,9.18,23C10,24,10.73,25,11.49,26a12.08,12.08,0,0,1-1.75-1.51h0a.21.21,0,0,0-.31,0,.24.24,0,0,0,0,.33A16.79,16.79,0,0,0,12.33,27c1.56,1.94,3.07,3.69,4.55,5.28l-1-.51c-.11,0-.87-.72-.92-.6a.24.24,0,0,0,.1.31,19.62,19.62,0,0,0,2.73,1.74,64.67,64.67,0,0,0,6.64,6.12A11.39,11.39,0,0,1,22,37.94a.22.22,0,0,0-.31,0,.25.25,0,0,0,0,.33A19.92,19.92,0,0,0,26.12,40.7ZM42,46.16l.35.12-.07-.38c-.05-.25-.1-.52-.16-.79C41.48,42,41,38.45,40.23,35.55c-.51-1.9-.89-3.23-.9-3.26a.2.2,0,0,0,0-.08.2.2,0,0,0-.23-.08.22.22,0,0,0-.15.29s.16.56.4,1.45c.67,2.41,2,7.36,2.82,11.15.1.45-.44.17-.36.58l-1-.34c-6.37-2.12-12.65-4-16.35-5.88A11.39,11.39,0,0,1,22,37.94a.22.22,0,0,0-.31,0,.25.25,0,0,0,0,.33,19.92,19.92,0,0,0,4.39,2.41c4.42,2,10.39,3.65,15.13,5.22C41.5,46,41.75,46.09,42,46.16Zm-3-3.83.34.1-.07-.37c-.05-.25-.11-.51-.17-.76-1.57-6.5-6.65-14.18-9-17.56-.66-.93-1.12-1.54-1.24-1.7l0,0a.21.21,0,0,0-.31,0,.25.25,0,0,0,0,.33h0l.63.85C31,25.7,36.5,33.62,38.46,40.49c.13.43.24.86.34,1.29-.35-.1-.72-.22-1.09-.35C31.18,39.28,20.26,34,16.88,32.32l-1-.51c-.11,0-.87-.72-.92-.6a.24.24,0,0,0,.1.31,19.62,19.62,0,0,0,2.73,1.74c4.39,2.14,14.61,7,20.51,8.84Zm-5.3-6.11.38,0L34,35.89c-.17-.35-.36-.71-.55-1.08a65.3,65.3,0,0,0-5.68-8.55c-2-2.6-3.9-4.87-5.08-6.23L21.46,18.7a.22.22,0,0,0-.32,0,.22.22,0,0,0,0,.32l.6.68A104,104,0,0,1,32.18,33.54c.44.74.84,1.47,1.19,2.18-.28,0-.58-.09-.89-.15-5.82-1.19-17.35-7.3-21-9.59a12.08,12.08,0,0,1-1.75-1.51h0a.21.21,0,0,0-.31,0,.24.24,0,0,0,0,.33A16.79,16.79,0,0,0,12.33,27c4.73,2.83,15.47,8.29,20.69,9.1A6.34,6.34,0,0,0,33.74,36.22Zm-7.2-7.06.42,0-.23-.38c-.23-.37-.47-.73-.72-1.09-.38-.57-.77-1.12-1.18-1.65A48.26,48.26,0,0,0,17,18.11c-1.1-.89-1.81-1.38-1.83-1.4a.21.21,0,0,0-.3.07.24.24,0,0,0,.06.32l.91.67a48.35,48.35,0,0,1,8.81,8.77c.51.68,1,1.39,1.47,2.12-.31,0-.65-.08-1-.14-5.23-.93-13.89-5.06-16.53-6.35a10.16,10.16,0,0,1-1.42-1.11.22.22,0,0,0-.3.11.25.25,0,0,0,.11.31A18.07,18.07,0,0,0,9.18,23c3.46,1.68,11.75,5.5,16.59,6.12C26,29.12,26.29,29.15,26.54,29.16ZM19.38,23.5l.44.07-.22-.41c-.14-.27-.3-.54-.47-.8l-.49-.69a19.93,19.93,0,0,0-5.34-4.58,28.92,28.92,0,0,0-3-1.61.23.23,0,0,0-.29.13.25.25,0,0,0,.13.31s.63.27,1.54.76A22.52,22.52,0,0,1,18,21.62,11.42,11.42,0,0,1,19,23c-.53-.09-1.09-.21-1.65-.35A62.59,62.59,0,0,1,5.51,17.84l-.76-.41c-.11-.06-.88-.73-.93-.61a.24.24,0,0,0,.1.31,13.2,13.2,0,0,0,2.15,1.5c2.57,1.3,7.94,3.83,12.34,4.7C18.74,23.4,19.07,23.46,19.38,23.5ZM42.73,68.41l.21.34-.38,0c-.22,0-.47,0-.72,0,1.8,1.54,3.55,3.12,5.23,4.71l1.11.21c-.14-.41-.3-.83-.47-1.24-1.8-1.71-3.68-3.4-5.63-5C42.31,67.75,42.53,68.08,42.73,68.41ZM52.78,78l.12.37-.37-.08-.77-.15c.69.72,1.37,1.43,2,2.14l1,.18c0-.28-.12-.65-.22-1.08-.66-.71-1.34-1.43-2-2.14C52.63,77.51,52.71,77.76,52.78,78Zm-4.06-4.1.11.36-.35-.06-.79-.14q1.8,1.75,3.5,3.49l1.06.21-.41-1.26c-1.09-1.11-2.22-2.23-3.38-3.34C48.55,73.42,48.64,73.67,48.72,73.91Zm-14.14-12,.23.28.27.35-.43,0c-.24,0-.5,0-.76,0,2.53,1.76,5,3.66,7.35,5.65.32,0,.62,0,.9,0-.42-.66-.9-1.33-1.41-2-2.17-1.77-4.42-3.47-6.73-5.05C34.2,61.47,34.39,61.7,34.58,61.94Zm-20.7-9.39a.62.62,0,0,0,.46.74,50.07,50.07,0,0,1,10.48,3.9c.57.08,1.13.13,1.67.16a10,10,0,0,0-1.12-1.23,50,50,0,0,0-10.79-4A.59.59,0,0,0,13.88,52.55Zm12.8,4.31.45.6.25.38H27l-1,0a75.55,75.55,0,0,1,7.22,4.35l1,0c-.54-.67-1.11-1.32-1.69-1.93-1.94-1.26-3.91-2.44-5.92-3.5A.69.69,0,0,0,26.68,56.86ZM69.26,98.51a.63.63,0,0,0,.14-.86c0-.05-.41-.6-1.08-1.54L67,94.27l-1.16-1.55c-.76-1-1.63-2.1-2.59-3.31-2-2.48-4.4-5.35-7.15-8.39,0,.09,0,.15,0,.17l0,.76-.72-.12-.25,0A173.51,173.51,0,0,1,67.52,97.05l.92,1.3A.55.55,0,0,0,69.26,98.51ZM55.41,81.83l-.25,0C40.31,79.27,28.94,75.63,8.25,50.6L7.17,49.3l1.61.29c1.39.25,3.28.44,5.47.66,9.2,1,24.59,2.53,32.12,11.67l.61.74c8,10,9,17.16,9.09,18.36,0,.09,0,.15,0,.17l0,.76ZM35.5,74.14c6.24,3.53,12,5,18.29,6.15l1,.18c0-.28-.12-.65-.22-1.08a37.83,37.83,0,0,0-5.66-12.08c-.71-1.83-1.23-3.1-1.24-3.13a.21.21,0,0,0,0-.06.2.2,0,0,0-.25-.07.23.23,0,0,0-.12.31l.56,1.39q-1.06-1.47-2.34-3a23.16,23.16,0,0,0-7.9-5.94c-.87-1-1.43-1.56-1.46-1.58a.21.21,0,0,0-.31,0,.24.24,0,0,0,0,.33l.71.76A45.5,45.5,0,0,0,29.79,54l-1.31-1.19a.22.22,0,0,0-.32,0,.25.25,0,0,0,0,.33l.67.6c-1.64-.4-3.28-.73-4.89-1C22.8,52,22,51.59,22,51.58a.22.22,0,0,0-.3.1.24.24,0,0,0,.11.31s.37.2,1,.56c-.88-.14-1.74-.26-2.59-.37a25.78,25.78,0,0,0-3.16-1.24.22.22,0,0,0-.27.16.23.23,0,0,0,.15.29s.66.2,1.61.58c-1.56-.19-3-.34-4.38-.48s-2.82-.29-4-.44c.82,1,1.61,1.9,2.4,2.81l-.81-.31a.21.21,0,0,0-.28.13.25.25,0,0,0,.13.3s.62.25,1.59.6q1.48,1.7,2.89,3.22l-.83-.3a.22.22,0,0,0-.28.14.25.25,0,0,0,.14.3l1.65.59c.89.95,1.76,1.85,2.61,2.72a6.68,6.68,0,0,1-1.19-.66.22.22,0,0,0-.32,0,.24.24,0,0,0,0,.33,11.51,11.51,0,0,0,2.45,1.29c1.76,1.75,3.45,3.31,5.08,4.72l-1.08-.39a.22.22,0,0,0-.28.14.24.24,0,0,0,.14.3l2.2.78A64.25,64.25,0,0,0,33.65,73a11.9,11.9,0,0,1-2.52-1.15.2.2,0,0,0-.3.06.24.24,0,0,0,.06.32A19.25,19.25,0,0,0,35.5,74.14Zm17,4.16.37.08L52.78,78c-.07-.25-.15-.5-.24-.76-1-3-2.53-7.15-3.62-9.94-.71-1.83-1.23-3.1-1.24-3.13a.21.21,0,0,0,0-.06.2.2,0,0,0-.25-.07.23.23,0,0,0-.12.31l.56,1.39c.92,2.32,2.78,7.09,4,10.76l.41,1.26-1.06-.21A150.88,150.88,0,0,1,33.65,73a11.9,11.9,0,0,1-2.52-1.15.2.2,0,0,0-.3.06.24.24,0,0,0,.06.32,19.25,19.25,0,0,0,4.61,1.87c4.6,1.44,11.4,3,16.26,4Zm-4.05-4.09.35.06-.11-.36c-.08-.24-.17-.49-.26-.74-1.59-4.43-5-9.23-7.8-12.76-1.18-1.47-2.26-2.72-3.07-3.63s-1.43-1.56-1.46-1.58a.21.21,0,0,0-.31,0,.24.24,0,0,0,0,.33l.71.76c2.14,2.33,8.48,9.55,11.17,16.16.17.41.33.83.47,1.24l-1.11-.21c-6.71-1.36-18.1-5.31-21.65-6.56l-1.08-.39a.22.22,0,0,0-.28.14.24.24,0,0,0,.14.3l2.2.78C31,69.35,41.63,73,47.69,74.07Zm-6.64-5.44c.25,0,.5,0,.72,0l.38,0-.21-.34c-.2-.33-.42-.66-.65-1-.59-.86-1.24-1.74-1.95-2.62A107,107,0,0,0,29.79,54l-1.31-1.19a.22.22,0,0,0-.32,0,.25.25,0,0,0,0,.33l.67.6A103.5,103.5,0,0,1,40.73,66.29c.51.69,1,1.36,1.41,2-.28,0-.58,0-.9,0-5.9-.49-18-5.17-21.85-7a6.68,6.68,0,0,1-1.19-.66.22.22,0,0,0-.32,0,.24.24,0,0,0,0,.33,11.51,11.51,0,0,0,2.45,1.29C25.34,64.45,36.58,68.59,41.84,68.77Zm-8-6.15c.26,0,.52,0,.76,0l.43,0-.27-.35-.23-.28c-.19-.24-.38-.47-.58-.7a45.8,45.8,0,0,0-10-8.5C22.8,52,22,51.59,22,51.58a.22.22,0,0,0-.3.1.24.24,0,0,0,.11.31s.37.2,1,.56a47.68,47.68,0,0,1,9.69,7.68c.58.61,1.15,1.26,1.69,1.93l-1,0c-5.29-.3-14.32-3.36-17.08-4.33l-.83-.3a.22.22,0,0,0-.28.14.25.25,0,0,0,.14.3l1.65.59C20.39,59.78,29,62.59,33.89,62.62ZM26,57.78l1,0h.43l-.25-.38-.45-.6a.69.69,0,0,1-.11-.13,18.54,18.54,0,0,0-6.36-4.55,25.78,25.78,0,0,0-3.16-1.24.22.22,0,0,0-.27.16.23.23,0,0,0,.15.29s.66.2,1.61.58a21.9,21.9,0,0,1,6.83,4.15,10,10,0,0,1,1.12,1.23c-.54,0-1.1-.08-1.67-.16a60.32,60.32,0,0,1-12.24-3.33l-.81-.31a.21.21,0,0,0-.28.13.25.25,0,0,0,.13.3s.62.25,1.59.6C15.91,55.57,21.5,57.44,26,57.78Zm56.28,94.37a.68.68,0,0,0,.28.32.53.53,0,0,0,.49.05.61.61,0,0,0,.34-.79,20.94,20.94,0,0,0-1.17-2.54c-.35-.67-.78-1.42-1.3-2.23l-.1-.15c-.45-.7-1-1.43-1.55-2.16-3.19-4-8.35-8-15.86-7.09a4.25,4.25,0,0,1,.23.46l0,0a5.73,5.73,0,0,1,.18.72c9.64-1,15,6.5,17.22,10.7A19.72,19.72,0,0,1,82.24,152.15Zm-18.62-14.1a5.73,5.73,0,0,1,.18.72c.31,1.71.36,5.28-1.93,7.22a.59.59,0,0,0,.05-.14.64.64,0,0,0-.34-.81.57.57,0,0,0-.76.35s0,.09-.1.23a6.21,6.21,0,0,1-.23-.64c.25-.43.39-.72.41-.76a.25.25,0,0,0,0-.25.13.13,0,0,0-.07-.06.21.21,0,0,0-.3.1l-.16.3a4.73,4.73,0,0,1,.06-1.71,3.14,3.14,0,0,1-3-.88l-.12-.14,0-.18a3.22,3.22,0,0,1,.15-1.67,8.64,8.64,0,0,1,1-.25.23.23,0,0,0,.18-.27.37.37,0,0,0,0-.11.21.21,0,0,0-.21-.08,5.36,5.36,0,0,0-.66.15,3.49,3.49,0,0,1,.85-.9,11.85,11.85,0,0,1,1.59,0,.24.24,0,0,0,.25-.2.28.28,0,0,0-.06-.18.16.16,0,0,0-.14-.08,6.18,6.18,0,0,0-.95-.05l-.24-.41h.5a.22.22,0,0,0,.23-.22.28.28,0,0,0,0-.16.26.26,0,0,0-.17-.09h-.73a2,2,0,0,1-.11-.26l.25.07a.58.58,0,0,0,.74-.39.65.65,0,0,0-.12-.59.58.58,0,0,0-.28-.2,7.06,7.06,0,0,0-1-.24L58,134.7l.67-.07a4.5,4.5,0,0,1,4,1.91,7.06,7.06,0,0,1,.69,1,4.25,4.25,0,0,1,.23.46Zm-.85,2.64-.9,1.36a3.32,3.32,0,0,0-.28,2.5A6.3,6.3,0,0,0,62.77,140.69Zm0-.25a6.85,6.85,0,0,0-.25-1.94c-.11-.23-1.1-2.3-2.93-2.61a6.16,6.16,0,0,0,1,1.85l.73.82-1,.22c-.22.05-2.09.51-2,2.25.91.83,2.76.09,2.78.09ZM61.58,145a.57.57,0,0,0-.76.35s0,.09-.1.23c-.53,1.3-3.4,7.61-9,7.86a7.26,7.26,0,0,1-7-4.66c-1.15-2.9-.31-5.95,2.29-8.35,5.44-5,10.49-4.11,11.66-3.81l.25.07a.58.58,0,0,0,.74-.39.65.65,0,0,0-.12-.59.58.58,0,0,0-.28-.2,7.06,7.06,0,0,0-1-.24c-2.06-.34-6.9-.48-12,4.22-3,2.73-3.93,6.38-2.6,9.75a8.53,8.53,0,0,0,8.23,5.45c6.55-.3,9.61-7.58,10.06-8.74a.59.59,0,0,0,.05-.14A.64.64,0,0,0,61.58,145Zm-16.07-1a.26.26,0,0,0,.1.32.21.21,0,0,0,.3-.1c3.15-6.26,11-6.85,13.05-6.9h.5a.22.22,0,0,0,.23-.22.28.28,0,0,0,0-.16.26.26,0,0,0-.17-.09h-.73C56.34,137,48.67,137.78,45.51,144.06Zm5.11-3a.23.23,0,0,0,0,.33.21.21,0,0,0,.31,0,11.59,11.59,0,0,1,7.59-3.16,11.85,11.85,0,0,1,1.59,0,.24.24,0,0,0,.25-.2.28.28,0,0,0-.06-.18.16.16,0,0,0-.14-.08,6.18,6.18,0,0,0-.95-.05A12.19,12.19,0,0,0,50.62,141.09Zm-1.33,9.46a.22.22,0,0,0,.32,0,.25.25,0,0,0,0-.33h0c-2.75-3.43-1.73-6.35-1.66-6.52a.26.26,0,0,0,0-.23l0-.06a.22.22,0,0,0-.25-.08c-.07,0-.16.07-.29.61A7.76,7.76,0,0,0,49.29,150.55Zm-1.66.13a4.71,4.71,0,0,1-1.83-3.27.24.24,0,0,0,0-.14.22.22,0,0,0-.39.15,5.06,5.06,0,0,0,2,3.63.21.21,0,0,0,.31-.05A.24.24,0,0,0,47.63,150.68Zm1.93-4.34a.23.23,0,0,0,.16.28.21.21,0,0,0,.27-.16c1.09-4.4,5.4-6.15,7.39-6.73a8.64,8.64,0,0,1,1-.25.23.23,0,0,0,.18-.27.37.37,0,0,0,0-.11.21.21,0,0,0-.21-.08,5.36,5.36,0,0,0-.66.15C55.85,139.64,50.79,141.38,49.56,146.34Zm6.82,2.52a.23.23,0,0,0-.06.32.21.21,0,0,0,.3.07A13,13,0,0,0,60.49,145c.25-.43.39-.72.41-.76a.25.25,0,0,0,0-.25.13.13,0,0,0-.07-.06.21.21,0,0,0-.3.1l-.16.3A13.09,13.09,0,0,1,56.38,148.86Z"/></g></g></g></g></svg>