<svg xmlns="http://www.w3.org/2000/svg" viewBox="0 0 98.06 185.28"><defs><style>.cls-1{fill:#8e8e8e;}</style></defs><g id="Layer_2" data-name="Layer 2"><g id="Backgound_Flower_n_Leaves" data-name="Backgound Flower n Leaves"><g id="Outlined_Flower_n_Leaves" data-name="Outlined Flower n Leaves"><g id="Flower_n_Leaves" data-name="Flower n Leaves"><path id="Flower-2" class="cls-1" d="M78.73,60.84l0,0C78.64,60.77,78.71,60.83,78.73,60.84Zm-8.8,76.46a.37.37,0,0,0-.1-.4A.31.31,0,0,0,69.93,137.3ZM26.06,98a.19.19,0,0,0,.17.18A.18.18,0,0,0,26.06,98ZM23.54,61.15a1.88,1.88,0,0,0-.41,0h.14a.83.83,0,0,1,.35,0,.16.16,0,0,1,.15,0C23.71,61.08,23.62,61.18,23.54,61.15ZM92.44,131a.69.69,0,0,1-.38.19,18.64,18.64,0,0,0-6,1.26c-1.25.43-2.52.8-3.78,1.18a10.76,10.76,0,0,1-3.74.4,7.68,7.68,0,0,1-1.61-.38c-.59-.18-1.17-.4-1.75-.6a5,5,0,0,0-2.5-.31,5.44,5.44,0,0,1-1.4-.1l-.46-.09a.28.28,0,0,0-.11.08,4.71,4.71,0,0,1-.71-.27,2.85,2.85,0,0,1,.53.38c.68.6,1.44,1.1,2.12,1.71a28.86,28.86,0,0,1,2.4,2.55c.51.57,1,1.13,1.59,1.65a4.37,4.37,0,0,0,1.42.85c.52.2,1,.4,1.56.57a1.36,1.36,0,0,1,.78.55c.2.32.36.65.76.74a.48.48,0,0,1-.43.26,7.63,7.63,0,0,1-3-.34,12.35,12.35,0,0,0-3.07-.71,3.26,3.26,0,0,1-2-1.1,8.15,8.15,0,0,1-1.25-1.68,3.06,3.06,0,0,0-.6-.78h0a1.29,1.29,0,0,1-.16-.18h0c-.06-.06-.11-.13-.17-.18h0a.39.39,0,0,0-.18-.18.2.2,0,0,0-.14-.13l-.18-.08,0-.06-.07-.05-.13.1h0a.33.33,0,0,1,.12.38l0,.18a.33.33,0,0,0-.15.16.11.11,0,0,1,0,.08c.06.13,0,.28.1.4a3,3,0,0,0,1.39,1.85,1.93,1.93,0,0,1,.51.48c.14.16.08.29-.11.39a1.27,1.27,0,0,1-1.17.06A6.88,6.88,0,0,1,68.16,139a13.82,13.82,0,0,1-2.56-2.89,3,3,0,0,0-.38-.48A16.06,16.06,0,0,0,62,132.92a4.44,4.44,0,0,0-.8-.36L59.49,132a3.16,3.16,0,0,0-1.22-.09,17,17,0,0,0-2,.31,8.44,8.44,0,0,1-2,.2,2.77,2.77,0,0,0-.9.08c0,.34.32.53.47.81a11.29,11.29,0,0,0,2.39,2.9,9.05,9.05,0,0,0,2,1.35,16,16,0,0,0,4.91,1.86A8.26,8.26,0,0,1,67.44,142a15,15,0,0,1,2.26,2.81,4.62,4.62,0,0,0,1.43,1.52c.36.25.71.52,1,.8.1.08.23.22.11.37a.33.33,0,0,1-.4.1,4.46,4.46,0,0,1-.77-.43,14.62,14.62,0,0,0-2.78-1.5,23.87,23.87,0,0,0-2.59-.87l-.25-.05a17.31,17.31,0,0,1-3.19-.55c-.11,0-.23-.06-.34-.07A16.81,16.81,0,0,1,53.34,140c-.74-.63-1.55-1.17-2.31-1.76A1.77,1.77,0,0,0,49.6,138a.31.31,0,0,0-.28.37,1,1,0,0,0,.33.69,4.86,4.86,0,0,0,1.6,1.06,12.55,12.55,0,0,1,2.18,1.14A8.1,8.1,0,0,1,56.19,144a6,6,0,0,0,2.25,2.29c.61.35,1.18.76,1.78,1.13A4.31,4.31,0,0,1,61.81,149c.2.36.42.71.65,1.05a5.18,5.18,0,0,0,3.1,2.3,6.9,6.9,0,0,0,1.92.21.55.55,0,0,1,.54.2.55.55,0,0,1,.12.31c0,.12-.13.19-.26.21l-.43.06a6.64,6.64,0,0,0-1.39.19,4.05,4.05,0,0,1-1.39.11,29.82,29.82,0,0,1-3-.4,5,5,0,0,1-1.38-.55,38.69,38.69,0,0,1-3.66-2.43c-1.54-1.17-3.12-2.29-4.69-3.43a8,8,0,0,0-1-.64,5.17,5.17,0,0,0-2.53-.64,27.49,27.49,0,0,1-3.51-.16,14.11,14.11,0,0,1-1.55-.3c-1.76-.44-3.52-.89-5.26-1.39a7.26,7.26,0,0,0-1.22-.22c-.44,0-.66.17-.64.62,0,1,.06,1.93.11,2.9.06,1.2.11,2.4.21,3.6.08,1,.19,2,.35,3,.21,1.21.37,2.43.53,3.65a100,100,0,0,0,2.47,13.31,40.8,40.8,0,0,0,2.44,6.51c.79,1.73,1.68,3.42,2.38,5.2.2.52.37,1,.55,1.57.09.11,0,.27.13.38h0a.64.64,0,0,1,0,.17.65.65,0,0,0,.12-.28.31.31,0,0,1-.13-.37.34.34,0,0,1,.13.37,1.35,1.35,0,0,1,.28.74h0a.94.94,0,0,1,.12.22c0,.08,0,.19-.08.21s-.15-.05-.21-.1,0-.1-.06-.15a1.93,1.93,0,0,1-.26-.49.48.48,0,0,1-.18,0h0a.88.88,0,0,1-.12-.21c-1-1.71-2-3.4-2.9-5.13a41.45,41.45,0,0,1-4-10.68,100,100,0,0,1-1.93-11.8c-.08-.73-.15-1.46-.29-2.18a32.89,32.89,0,0,1-.45-5.78c0-1.72,0-3.45,0-5.18a14.87,14.87,0,0,1,.08-1.49c.08-1-.17-1.92-.14-2.89.05-1.2.06-2.4.11-3.6s.12-2.4.19-3.6c0-.46,0-.93.1-1.4a38.54,38.54,0,0,1,.41-4c.4-1.81.47-3.67.87-5.47a36.58,36.58,0,0,1,1.72-5.72c.22-.54.41-1.1.59-1.65.41-1.23.81-2.45,1.24-3.67a12.24,12.24,0,0,1,.65-1.54,34.85,34.85,0,0,0,2-4.87c.78-2.4,1.6-4.79,2.41-7.18a19.69,19.69,0,0,0,.59-2.38c.21-1.07.49-2.11.8-3.15.18-.62.29-1.26.42-1.89a15.41,15.41,0,0,0,.33-1.9,23.15,23.15,0,0,0,.08-3.33.86.86,0,0,0-.53-.82,10.92,10.92,0,0,1-1.24-.85c-.16.1,0,.24,0,.36A19.31,19.31,0,0,1,46.68,86a21.57,21.57,0,0,1-.5,5.06c-.11.45-.12.93-.23,1.38-.23,1-.46,1.94-.76,2.89-.19.62-.27,1.26-.43,1.88a30.09,30.09,0,0,1-1.92,5c-1.12,2.42-2.21,4.86-3.29,7.29A15.69,15.69,0,0,0,39,111a1,1,0,0,1-.21.43l.13,0a2.16,2.16,0,0,1-.28.82A33.35,33.35,0,0,0,37,116.86c-.32,1.09-.67,2.18-1,3.28s-.58,2.33-.86,3.49c-.41,1.71-.69,3.44-1,5.17-.21,1.18-.39,2.36-.67,3.53a15.41,15.41,0,0,0-.42,3.83c0,.41-.09.82-.1,1.23-.07,1.93-.12,3.86-.08,5.79s.05,3.63.08,5.44.07,3.51.12,5.27c.08,2.29.49,4.54.77,6.81.13,1,.27,2.09.35,3.14a14.81,14.81,0,0,0,.35,2.08A47.13,47.13,0,0,0,36,171a2.92,2.92,0,0,1,.13.42,31.1,31.1,0,0,0,2.69,7c.43.86.82,1.73,1.23,2.6l0-.1a4.81,4.81,0,0,1,.59,1.28h0s0,0,.06.06c.1.25.29.49.19.79-.38-.06-.39-.4-.49-.67a9.81,9.81,0,0,1-.56-1h-.06a49.42,49.42,0,0,1-3.2-5.56,21.37,21.37,0,0,1-1.15-3.23c-.34-1.12-.72-2.23-1-3.36a33.16,33.16,0,0,1-1.24-5.84c-.15-1.78-.46-3.55-.75-5.31a41.29,41.29,0,0,1-.55-6.56c0-1.44,0-2.87-.06-4.31,0-.64,0-1.29,0-1.93.11-1.84.13-3.68.27-5.53.11-1.46.34-2.91.47-4.37.08-.9.12-1.81.16-2.71a16.38,16.38,0,0,1,.35-2.79c.17-.81.28-1.62.41-2.43a46.2,46.2,0,0,1,1.07-4.8c.29-1.13.65-2.25,1-3.37.1-.34.07-.36-.34-.37a3.32,3.32,0,0,0-1.13.11,5,5,0,0,1-3-.09c-.43-.12-.85-.24-1.28-.32a4.56,4.56,0,0,0-2.5.2A17.15,17.15,0,0,1,21.2,120a7,7,0,0,1-.79-.08,19.61,19.61,0,0,0-3.06-.23,3.07,3.07,0,0,1-.53-.06,7.2,7.2,0,0,0-3,.32,4.55,4.55,0,0,0-.55.26.14.14,0,0,1-.15,0,.5.5,0,0,1-.09-.23s0-.11.06-.16c.59-.74.95-1.61,1.47-2.4a2.57,2.57,0,0,1,.74-.73,11.34,11.34,0,0,1,3-1.37,2.61,2.61,0,0,1,.61-.11,17,17,0,0,0,2.35-.29,12.45,12.45,0,0,1,2-.2,4.71,4.71,0,0,0,2.35-.61,9.16,9.16,0,0,1,3-.9,6.59,6.59,0,0,1,1.4.09c.08,0,.19,0,.21-.09a.2.2,0,0,0,0-.15,11.38,11.38,0,0,0-2.4-1.92,3.93,3.93,0,0,0-3.78-.23,12.47,12.47,0,0,1-2.09.91c-.43.12-.85.26-1.28.34a28.74,28.74,0,0,1-4.44.5,12.85,12.85,0,0,0-4.16.67c-.38.13-.6.08-.68-.13s.15-.42.31-.57a1.57,1.57,0,0,1,.44-.28,7.13,7.13,0,0,0,1.46-.8c.72-.46,1.46-.87,2.19-1.31l.05-.12h0a.22.22,0,0,0-.09-.17c-.09,0-.21,0-.25-.11a27.59,27.59,0,0,1-2.81-.86,4,4,0,0,1-1.27-.7.37.37,0,0,1,0-.12,1.71,1.71,0,0,1-.7-.35,11.62,11.62,0,0,1-3.48-3.5l-.7-1.1a.2.2,0,0,1,0-.24.17.17,0,0,1,.24,0c.32.25.63.51.94.77a13.55,13.55,0,0,1,2.15,1.17.81.81,0,0,1,.55.23c-.22,0-.44,0-.55-.22a1.78,1.78,0,0,0-.4,0,.5.5,0,0,1,.39.12h0c.14.19.39.1.55.23l1.18.34a13.07,13.07,0,0,0,4.45.28c1.08,0,2.16-.18,3.24-.27a8.44,8.44,0,0,1,1.23,0,13.83,13.83,0,0,1,3.15.19,7.19,7.19,0,0,0,1.39.13.14.14,0,0,0,.11-.24c-.62-.81-1.23-1.64-1.9-2.42a2.64,2.64,0,0,0-2.26-1c-.64,0-1.29.1-1.93.13a12.47,12.47,0,0,1-1.83-.09,15.16,15.16,0,0,1-4.75-1.51,7.82,7.82,0,0,1-2.37-1.5c-1-.93-2.06-1.74-3-2.68a10.08,10.08,0,0,0-2.44-1.7,6.43,6.43,0,0,1-1.64-1.16c-.08-.09-.15-.21-.07-.32a.32.32,0,0,1,.24,0c1.41.44,2.88.54,4.3.89a7.63,7.63,0,0,1,2.81,1.2,11.55,11.55,0,0,0,2.08,1.31,2.8,2.8,0,0,0,.65.27,9.18,9.18,0,0,0,3.22.26,3.52,3.52,0,0,1,1.21-.06c.11-.19,0-.29-.12-.39a7.39,7.39,0,0,0-1.59-1.24,25.42,25.42,0,0,0-2.88-1.51,12.74,12.74,0,0,1-2.54-1.56A23.4,23.4,0,0,1,6.8,89.25c-.51-.6-1-1.22-1.46-1.87a5.59,5.59,0,0,1-.79-1.76,8.85,8.85,0,0,0-.87-2.2,5.37,5.37,0,0,1-.32-.82c0-.08.13-.23.22-.2a1,1,0,0,1,.55.42c.29.36.58.74.88,1.09a12.06,12.06,0,0,0,3.88,2.83c1,.51,2,1.08,3,1.63a2.9,2.9,0,0,1,.84.63,1.41,1.41,0,0,0,.25.24,21.72,21.72,0,0,1,2.39,2.2,4,4,0,0,0,.9.7.64.64,0,0,0,.18.06.23.23,0,0,1-.16-.18h.19A10.91,10.91,0,0,0,14,88.8a13.92,13.92,0,0,0-1.39-.92A2.2,2.2,0,0,1,12,87.4a.19.19,0,0,1,0-.15s.07-.08.12-.1a.25.25,0,0,1,.17,0,11.85,11.85,0,0,1,4,1.43,8.88,8.88,0,0,1,3.36,3.49,11.12,11.12,0,0,0,2,2.66,3.89,3.89,0,0,0,.53.46c.75.52,1.5,1,2.24,1.54A8.06,8.06,0,0,1,26,98.14a1.53,1.53,0,0,0,.18.18h0a.42.42,0,0,0,.15.12v0l-.12-.22.17-.14,0,0a.51.51,0,0,0-.1-.21A7.27,7.27,0,0,0,25,95.69,9.76,9.76,0,0,1,23,91c0-.26-.11-.52-.15-.78a.43.43,0,0,1,.33-.53.28.28,0,0,1,.31.1c.08.12.13.26.2.39a14.54,14.54,0,0,0,2.76,3.62c.08.08.17.18.3.13s.12-.19.14-.3c.09-.52.18-1,.29-1.55a2.41,2.41,0,0,1,.24-.65.31.31,0,0,1,.59.08c.06.35.09.7.17,1a13.35,13.35,0,0,0,1.69,4.22,14.54,14.54,0,0,1,1.56,3.43,19.7,19.7,0,0,0,1.82,4.09c.16.28.29.57.43.86l.06.06,0-.18c.23-.08.19-.31.25-.47-.08-.42-.15-.83-.22-1.24a1.25,1.25,0,0,1,0-.43.32.32,0,0,1,.19-.15.41.41,0,0,1,.23.07.2.2,0,0,1,.09.15,2.93,2.93,0,0,0,.67,1.31,7,7,0,0,1,.94,2.25,15.81,15.81,0,0,1,.34,5.57,13.56,13.56,0,0,0,.19,3.76,1.2,1.2,0,0,0,.13.31s.05,0,.12.07c.14-.37.25-.75.41-1.11a31.81,31.81,0,0,0,1.3-3.82c-.16-.22.19-.57.15-.82a12.05,12.05,0,0,1,.77-2.43q1.49-3.9,3.31-7.66A22.18,22.18,0,0,0,44.07,96c.11-.46.22-.91.36-1.36.38-1.2.64-2.43.91-3.66a26.35,26.35,0,0,0,.58-5.23,12.09,12.09,0,0,0-.45-3.22c-.12-.47-.29-.93-.37-1.42a2.83,2.83,0,0,0-.14-.41,1.67,1.67,0,0,0-.12-.23,7.24,7.24,0,0,1-.48-5.64c.08-.31.16-.62.25-.93a1.45,1.45,0,0,0,.15-.55.31.31,0,0,0-.12-.14.76.76,0,0,1-.18.09l-.08,0A28.69,28.69,0,0,1,39.67,78a9.63,9.63,0,0,1-3.89,2.16c-.71.18-1.4.44-2.09.69a6.81,6.81,0,0,1-3,.28c-.73-.07-1.47-.11-2.18-.21a9.23,9.23,0,0,1-3.93-1.16,4.74,4.74,0,0,0-.7-.38,13.62,13.62,0,0,1-3.17-2.2,10.54,10.54,0,0,0-2.53-1.74c-.05,0-.12,0-.15-.07-.41-.55-1-.53-1.59-.59A12.61,12.61,0,0,1,12,73.62a6.16,6.16,0,0,0-1.45-.36,13.25,13.25,0,0,1-2.46-.93,4.4,4.4,0,0,1-1.79-1.66,10.54,10.54,0,0,0-1.14-1.45A11.34,11.34,0,0,1,2.32,63a8.51,8.51,0,0,1,.34-3.65,9.5,9.5,0,0,0,.36-3c0-.52,0-1,0-1.58a3.24,3.24,0,0,1,.91-2.22,1.65,1.65,0,0,1,.89-.54.46.46,0,0,1,.6.32c.15,0,.35,0,.39.11a1.78,1.78,0,0,0,.88.93,4.09,4.09,0,0,0,2.49.69c1.17-.1,2.31-.36,3.47-.55a19.17,19.17,0,0,1,2.62-.23,6.3,6.3,0,0,1,2.42.38,6.65,6.65,0,0,0,2.17.33,6.3,6.3,0,0,1,2.79.67c.44.22.91.39,1.37.58a3.26,3.26,0,0,0,1.72.24,9.22,9.22,0,0,0,1.56-.25s.07-.08.09-.12,0-.11-.08-.13l-3-1.25c-.62-.25-1.25-.49-1.87-.76a9.22,9.22,0,0,0-3.83-.85,5.11,5.11,0,0,0-1.65.24,3.41,3.41,0,0,1-1.38.17c-.88-.06-1.75,0-2.63-.12a6.21,6.21,0,0,1-2.4-.81A22.35,22.35,0,0,1,7.7,49.72a13,13,0,0,1-3-3.31,3.12,3.12,0,0,0-.64-.72A5.66,5.66,0,0,1,2.7,44a16.06,16.06,0,0,1-1.16-2.26,8.17,8.17,0,0,1-.42-1.52,24.8,24.8,0,0,1-.3-3.94A7.35,7.35,0,0,0,.6,34.36,20.44,20.44,0,0,1,0,29.75a8.12,8.12,0,0,1,1.87-5.54,1.76,1.76,0,0,1,.5-.48,1.06,1.06,0,0,1,.29-.11,14.63,14.63,0,0,1,1.48-1.57,2.12,2.12,0,0,0,.34-.39,2.13,2.13,0,0,1,2.08-.87A.35.35,0,0,0,7,20.5a1.55,1.55,0,0,1,1-.93,3.2,3.2,0,0,1,2.07-.17c.14,0,.28.06.42.11a4,4,0,0,0,1.81.15,3.26,3.26,0,0,1,2.87,1,6.43,6.43,0,0,0,3,1.73c2.09.66,4.17,1.35,6.27,2a14.28,14.28,0,0,1,3.43,1.71,1.1,1.1,0,0,1,.23.2c.12-.06.11-.2.15-.31a.56.56,0,0,1,.18.25.32.32,0,0,0-.08-.23,18.93,18.93,0,0,1-.9-2.92.43.43,0,0,1,0-.19l-.08.18a1.89,1.89,0,0,1-.2-1H27a15.9,15.9,0,0,1-.41-4.19,7.28,7.28,0,0,1,.08-1.22A16.73,16.73,0,0,1,28,12.13a10.3,10.3,0,0,1,1.16-1.76c.85-1,1.69-2,2.57-3a10.35,10.35,0,0,1,1-.95A33.64,33.64,0,0,0,35.5,3.56c.46-.49.92-1,1.36-1.5a.89.89,0,0,1,.77-.29c.56,0,1.11.08,1.67.08a3.78,3.78,0,0,0,1.53-.32,8.18,8.18,0,0,0,1-.54,6.2,6.2,0,0,1,4-1c.53,0,1,.11,1.58.16a2.78,2.78,0,0,1,1.08.37c.56.31,1.12.63,1.67,1a1.28,1.28,0,0,0,1,.28,2.37,2.37,0,0,1,.53,0,5.58,5.58,0,0,0,2-.16,5.11,5.11,0,0,1,3.6.36,9,9,0,0,1,4.18,3.5,2.49,2.49,0,0,0,1.09,1,2.53,2.53,0,0,1,1.19,1.14c.32.56.68,1.09,1,1.63a8.62,8.62,0,0,1,1,2.43,19.71,19.71,0,0,1,.62,2.92,8,8,0,0,0,.35,1.54A7.74,7.74,0,0,1,67.16,19c0,.43,0,.85,0,1.39.33-.26.59-.44.83-.64s.76-.65,1.11-1a4.89,4.89,0,0,1,2.16-1.29,16.22,16.22,0,0,0,1.56-.6,36,36,0,0,1,3.59-1.2c.79-.21,1.61-.3,2.42-.45L80.33,15a7.42,7.42,0,0,1,1.4-.16,5.7,5.7,0,0,0,3-.72c.5-.3,1-.54,1.55-.83A3,3,0,0,1,89,13a2.21,2.21,0,0,0,.42.12,2,2,0,0,1,1.64,1.32,8.8,8.8,0,0,1,.84,2.3A3.36,3.36,0,0,0,93.51,19a.68.68,0,0,0,.42.08,2.48,2.48,0,0,1,2.39,1.51,6.74,6.74,0,0,1,.84,4.16,10.25,10.25,0,0,0,0,3,17.86,17.86,0,0,0,.46,2A8.71,8.71,0,0,1,97.81,32c0,.55,0,1.11,0,1.67a13.91,13.91,0,0,1-.43,3.74,9.07,9.07,0,0,1-1.2,2.72c-.43.66-.83,1.35-1.26,2a.34.34,0,0,0,0,.47l1.36,1.61a3.11,3.11,0,0,1,.32.42,9.06,9.06,0,0,1,1.38,6,39.68,39.68,0,0,1-2.39,9.61,14.69,14.69,0,0,1-1.63,3,4.92,4.92,0,0,1-.5.61c-.7.75-1.41,1.49-2.12,2.23a4.67,4.67,0,0,1-1.31,1,1.19,1.19,0,0,0-.49.48,14.07,14.07,0,0,1-3.36,3.69,1.51,1.51,0,0,0-.28.22A5.72,5.72,0,0,1,82.09,73c-.42,0-.42,0-.52.43A12.48,12.48,0,0,1,77.2,80.1c-.43.35-.88.68-1.32,1a2.91,2.91,0,0,1-1.28.57,6.41,6.41,0,0,1-2,.18,1.82,1.82,0,0,0-1.45.49,26.11,26.11,0,0,1-2.58,1.83,5.16,5.16,0,0,1-2.45.89c-.41,0-.82.09-1.23.12a5.77,5.77,0,0,1-1.31-.08c-1.13-.18-2.23-.47-3.34-.73a5,5,0,0,0-1.4-.13A3.41,3.41,0,0,1,57.29,84a.78.78,0,0,0-.67,0,8.53,8.53,0,0,1-4,.57A11.21,11.21,0,0,1,49.57,84l-1-.32a1.53,1.53,0,0,0,0,.3,23.88,23.88,0,0,1-.64,7.85c-.26,1-.51,2.1-.72,3.17a21.15,21.15,0,0,1-.62,2.37c-.73,2.2-1.5,4.39-2.25,6.58-.14.41-.3.82-.43,1.24a14.46,14.46,0,0,1-1,2.46A27.63,27.63,0,0,0,41,112.53c-.48,1.63-1.08,3.22-1.62,4.83a45.74,45.74,0,0,0-1.22,4.49c-.2.89-.28,1.79-.42,2.69-.13.75-.29,1.49-.41,2.25a18.4,18.4,0,0,0-.28,2.09c0,.56-.08,1.11-.14,1.66-.17,1.31-.31,2.63-.51,3.93a25.18,25.18,0,0,0-.16,3.25c0,.79,0,1.58,0,2.36a.49.49,0,0,1,.1.37c-.06.18-.1.37-.17.61.13-.13.06-.27.1-.37a2.44,2.44,0,0,1,.1-.24.59.59,0,0,0,0-.13l0-.34h.1a.44.44,0,0,0,0-.1c.06-.21,0-.45.17-.62.3-1,.65-1.95.89-2.94a40.89,40.89,0,0,1,1.81-5.41,2.9,2.9,0,0,1,.36-.7c.8-1.16,1.51-2.38,2.39-3.48.49-.62,1-1.26,1.48-1.85a4.36,4.36,0,0,0,1-2.3,19,19,0,0,1,1.3-4.1c.14-.35.29-.7.45-1a11.23,11.23,0,0,0,.72-2.53c0-.12,0-.24.06-.35a4.06,4.06,0,0,0-.08-2.75,6.68,6.68,0,0,1,.43-4.79,2.55,2.55,0,0,1,.42-.66,1,1,0,0,1,1.28-.28l-.43.87a2.41,2.41,0,0,0-.25,1.35,9,9,0,0,0,.3,1.64c.38,1.24.75,2.47,1.15,3.7a3.51,3.51,0,0,1,.16,1.64,8.68,8.68,0,0,1-.45,2.14,1.28,1.28,0,0,0-.09.32,1.68,1.68,0,0,1,.27-.42c0,.13,0,.29.12.39.71-.66,1.41-1.32,2.12-2a10.47,10.47,0,0,1,1.17-.94,42.06,42.06,0,0,0,4-3.16A9.83,9.83,0,0,1,59,110.31a7.68,7.68,0,0,1,2-.83c.48-.11,1-.25,1.44-.39a8.52,8.52,0,0,1,1.81-.35,1,1,0,0,1,.33.05.25.25,0,0,1,.13.36,1.05,1.05,0,0,1-.46.4c-.21.09-.43.19-.65.27a3.86,3.86,0,0,0-1.78,1.38c-.3.43-.61.86-.89,1.31a34.58,34.58,0,0,1-2.62,3.64,9.14,9.14,0,0,1-1.77,1.57c-1,.71-2,1.4-3,2.16a7.62,7.62,0,0,0-2.2,3,22.88,22.88,0,0,1-1.09,2.35.24.24,0,0,0,.26.08,8.86,8.86,0,0,0,1.66-.59,59,59,0,0,0,5.92-3.29,21,21,0,0,1,9.76-3.22,12.4,12.4,0,0,1,2,0,21.12,21.12,0,0,0,6.43-.73,13.24,13.24,0,0,1,2.86-.47H81a.74.74,0,0,1,.25,0c.14,0,.27.13.28.3a.42.42,0,0,1-.15.31.64.64,0,0,1-.39.18,6.83,6.83,0,0,0-2.52,1c-1.08.65-2.19,1.25-3.3,1.84a12.3,12.3,0,0,1-3.05,1.13,7.21,7.21,0,0,1-1,.13c-.76.08-1.52.12-2.27.23a4.92,4.92,0,0,0-2.79,1.2s0,.1-.1.19a1.86,1.86,0,0,0,.73.17,5.5,5.5,0,0,0,.77.15c1.29.06,2.58.08,3.87.13a9.18,9.18,0,0,0,2.09-.18,35.3,35.3,0,0,0,5.79-1.8,8.89,8.89,0,0,1,3.33-.72,8,8,0,0,1,3,.47l.24.09c.16.07.34.14.33.36a.49.49,0,0,1-.49.42,11.47,11.47,0,0,0-1.31,0A9.72,9.72,0,0,0,80.22,124,4.33,4.33,0,0,0,79,125a.53.53,0,0,0,.43.28l2.13.52a3,3,0,0,1,.59.16c.32.12.36.37.14.61a1,1,0,0,1-.62.3,6.85,6.85,0,0,0-1.77.49,16.49,16.49,0,0,1-3.85.86,14.21,14.21,0,0,1-3,.23,3.93,3.93,0,0,0-.69.06c-.09.19.07.26.16.34a4.28,4.28,0,0,0,1.64.81,28.71,28.71,0,0,0,4.31.81,11.38,11.38,0,0,0,4.27-.29c.79-.22,1.59-.41,2.39-.61a5.25,5.25,0,0,1,1.48-.16,25.54,25.54,0,0,1,3.5.28,10.38,10.38,0,0,1,2.2.6C92.7,130.44,92.74,130.74,92.44,131ZM15.59,89.4A14.84,14.84,0,0,1,17,91.62a8.43,8.43,0,0,0,1.26,1.91l.06-.07a.77.77,0,0,1,.39.52c-.22.14-.37,0-.52-.11s-.22-.07-.31-.06a.16.16,0,0,0,0,.2c0,.12.09.25.13.38a11.06,11.06,0,0,0,1.68,1.53c.37.29.71.59,1.06.91s1,.8,1.49,1.21a.83.83,0,0,0-.27,0l.25.09a2.08,2.08,0,0,1,.86.41,35,35,0,0,1,3.86,2.75,13,13,0,0,1,3.85,4.81c.2.42.45.82.67,1.22h0a.24.24,0,0,1,0-.12c.26-.1.22-.37.3-.56h0a2.57,2.57,0,0,0-.13-.83,13.74,13.74,0,0,0-.73-2.07c-.3-.64-.56-1.29-.87-1.93a5.9,5.9,0,0,1-.57-2.55,5,5,0,0,0-.28-1.54,6.68,6.68,0,0,1-.6-2.18c0-.08-.06-.17-.09-.25l-.66-1.63c0-.12-.11-.2-.26-.16a3.65,3.65,0,0,0,0,2.07.26.26,0,0,1-.44.28,3.37,3.37,0,0,1-.59-.76A7.81,7.81,0,0,0,25.75,94c-.51-.54-1-1.1-1.44-1.66h0l-.05.32-.06,0a.94.94,0,0,0,0,.16.24.24,0,0,0,0,.15.53.53,0,0,0,.11.21,7,7,0,0,0,.94,1.77c.3.46.64.9.92,1.38a9.93,9.93,0,0,1,1.25,3.2l0-.08a.37.37,0,0,1,.08.41l-.06-.07a.59.59,0,0,0,.05.19s0,0,0,0h0a1,1,0,0,1,.11.56.43.43,0,0,1,.17.35h0c.09.08.14.21.06.29s-.23,0-.33-.09l-.07,0-.09-.05c0-.08-.1-.14-.13-.21h0a.9.9,0,0,1-.15-.19h0a.55.55,0,0,1-.15-.19c-.49-.61-1-1.22-1.47-1.85a5.69,5.69,0,0,0-1.33-1.26c-.77-.52-1.54-1-2.3-1.59a4.26,4.26,0,0,1-.62-.48,14.79,14.79,0,0,1-2.35-3,8,8,0,0,0-2.91-3,.56.56,0,0,1-.21-.16.11.11,0,0,0-.11-.07c-.1,0-.15-.09-.22-.15a.13.13,0,0,0-.12-.07l-.1,0-.14.11a.18.18,0,0,1,.17.17.2.2,0,0,1-.17-.17h0a.37.37,0,0,0,0,.12h0c.07,0,.11.12.18.17h0C15.38,89.25,15.57,89.24,15.59,89.4Zm12.13,11.12a.2.2,0,0,1-.08-.08.29.29,0,0,0,.05.18ZM17.4,95.16a.79.79,0,0,1-.18-.22c.14,0,.29,0,.38-.13l-.22-.37-.12-.06c-.28-.3-.58-.59-.83-.91a8.83,8.83,0,0,0-.85-.88,9.83,9.83,0,0,1-1.69-1.66,2.83,2.83,0,0,0-.64-.6c-.22-.18-.49-.33-.69-.53a5.91,5.91,0,0,0-1.36-1c-1-.54-1.94-1.09-2.92-1.62A14.29,14.29,0,0,1,6.15,85.8c-.17,0-.26,0-.26.21A13.39,13.39,0,0,0,7.65,88.4c.7.71,1.41,1.41,2.14,2.08A10.41,10.41,0,0,0,11.85,92a8.52,8.52,0,0,1,.8.53,4.59,4.59,0,0,0,1,.54,9.1,9.1,0,0,1,1.76,1,14.29,14.29,0,0,0,1.8,1.08A.27.27,0,0,0,17.4,95.16Zm-3.54,2.56,0,.18c.2,0,.4,0,.52.2l.6.14a17.25,17.25,0,0,0,3.28.52,26.87,26.87,0,0,1,4.1.41c.2,0,.44.07.6-.14h0c-.33-.34-.83-.45-1.15-.82a2.46,2.46,0,0,1-1-.67,20,20,0,0,0-2.08-1.7.15.15,0,0,1-.14-.14.17.17,0,0,0-.12-.1h0a.21.21,0,0,1-.19-.18.2.2,0,0,1-.17-.18h0c-.14,0-.28,0-.36.12a.21.21,0,0,1,.17.17v0h0a.17.17,0,0,1,.14.15h0a.11.11,0,0,0,.11.09.22.22,0,0,1,.19.21h0a6.09,6.09,0,0,1,1.22,2,.5.5,0,0,1-.16.1c-.38.1-.72-.12-1.09-.17A8.38,8.38,0,0,0,15.6,98h0a.84.84,0,0,1-1-.14A1.61,1.61,0,0,0,13.86,97.72Zm4.58,8.79c-.6.08-1.22.06-1.82.18l-.11.09-.1.16h0a.32.32,0,0,0,0,.13,3.69,3.69,0,0,0,1.71.24c.64,0,1.28-.07,1.92,0,1.17.06,2.33.1,3.5.12a17,17,0,0,1,4.32.6,7,7,0,0,1,3.78,2.07l.1,0-.08-.14.17-.14c-.54-1.24-1.1-2.46-1.7-3.67a11.43,11.43,0,0,0-2.94-3.78,9.91,9.91,0,0,0-3.87-2.18,17.31,17.31,0,0,0-4-.64A20.18,20.18,0,0,1,14,98.72a8,8,0,0,0-1.19-.29,4.27,4.27,0,0,1-1.47-.54l-.83-.49a.59.59,0,0,0-.25-.09.28.28,0,0,0-.11.08.5.5,0,0,0,0,.16,2.3,2.3,0,0,0,.62.73,13.21,13.21,0,0,0,2.52,1.59,16.23,16.23,0,0,0,2.05.76,7.49,7.49,0,0,0,2.43.35c.79,0,1.58,0,2.36,0a4.82,4.82,0,0,1,2.84.71,6.84,6.84,0,0,1,2.55,2.49,4.11,4.11,0,0,0,1.07,1.58c.21.15,0,.54-.27.58a6.12,6.12,0,0,1-2.09.1,6.88,6.88,0,0,0-1.75-.12C21.13,106.38,19.78,106.34,18.44,106.51ZM34.9,117.15A12,12,0,0,1,33,113.39a7.5,7.5,0,0,0-6-4.76c-1.94-.33-3.91-.34-5.87-.48-2.89-.2-5.81-.2-8.6-1.15a12.68,12.68,0,0,1-2.82-1.43,2.22,2.22,0,0,1-.38-.37.37.37,0,0,1,0-.23c-.41.17-.65-.18-.95-.34l-.08,0,0,0a11.79,11.79,0,0,0,3,2.62c.26.17.66.23.67.65.82.23,1.64.48,2.45.75a7.39,7.39,0,0,0,3.46.26,3.47,3.47,0,0,1,1.57,0c.34.11.7.28.7.69s-.38.54-.72.64a.57.57,0,0,1-.18,0,9.55,9.55,0,0,0-4.3,1.4l0,0,.08,0,.2-.06c1.39-.21,2.81-.13,4.19-.48a14.07,14.07,0,0,0,3-1,5.74,5.74,0,0,1,7.12,1c.72.65,1.4,1.34,2.09,2a1.44,1.44,0,0,1,.48.82c.06.43-.1.69-.58.64a4.37,4.37,0,0,1-.52-.12,6.64,6.64,0,0,0-5.1.64,7.48,7.48,0,0,1-3,.63c-2,.22-4,.18-5.85,1.06a4.78,4.78,0,0,0-2,1.73c2.5-.79,4.8.12,7.12,0a9.83,9.83,0,0,0,4.19-.88,4.6,4.6,0,0,1,3.16-.36c1,.21,2.08.39,3.09.7a3.56,3.56,0,0,0,2.15-.29C35.12,117.59,35.1,117.36,34.9,117.15ZM36,117l-.1-.15.19-.15,0-.15a7.78,7.78,0,0,1-.36-3.64,18.59,18.59,0,0,0,0-3.25,15.47,15.47,0,0,0-.66-3.63c0-.12-.07-.29-.28-.3a9.16,9.16,0,0,0-.06,1.48c-.06.5-.1,1-.14,1.49a2.18,2.18,0,0,0,0,.88.79.79,0,0,1,0,.34.18.18,0,0,1-.12.1.22.22,0,0,1-.16,0,1.58,1.58,0,0,1-.43-.75,9.36,9.36,0,0,1-.36-1.81,7.77,7.77,0,0,0-1-3.24,18.59,18.59,0,0,1-1.5-3.27c-.25-.75-.55-1.49-.83-2.23,0-.08-.07-.09-.13,0a5.78,5.78,0,0,0,.59,3.06c.37.76.71,1.54,1.06,2.31a7.37,7.37,0,0,1,.73,4.34,3.43,3.43,0,0,0,.38,2.46,2.5,2.5,0,0,1,.16.41c.56,1.57,1.3,3.07,2,4.58a2.74,2.74,0,0,0,.9,1.15ZM82.2,70.45a.49.49,0,0,0,.4-.21,5.09,5.09,0,0,0,1.08-1.8,12.42,12.42,0,0,0,.38-1.71,15.39,15.39,0,0,1,.41-1.88,3.55,3.55,0,0,1,.84-1.53c.32-.34.62-.7.93-1a3.4,3.4,0,0,0,.85-1.42,5.79,5.79,0,0,0,.17-1.66.51.51,0,0,0-.19-.47,12.8,12.8,0,0,1-4.89,2,7.06,7.06,0,0,1-1.83.23,1.13,1.13,0,0,1-.55,0,5.25,5.25,0,0,1-.87-.14l-.1,0a.12.12,0,0,0-.08,0,.39.39,0,0,1,.15,0l-.17,0v-.12a3,3,0,0,1,1.08,0l.05.06.3-.05a15.88,15.88,0,0,0,5.23-1.73A8.67,8.67,0,0,0,86.8,58c.28-.23.29-.47,0-.77-.21.16-.42.31-.62.48a5.83,5.83,0,0,1-1.36.81,16.76,16.76,0,0,1-5.81,1.25,2.32,2.32,0,0,1-1-.05,3.56,3.56,0,0,1-1-.27.2.2,0,0,1-.07-.15s.08-.08.12-.08l1,.14.06.07a24.83,24.83,0,0,0,6-1.41,6.62,6.62,0,0,0,2.12-1.22.55.55,0,0,0,.18-.69A8.38,8.38,0,0,1,86,53.42c0-.09,0-.17-.21-.19a8.21,8.21,0,0,1-1.75,1.05,4.74,4.74,0,0,1-2.82.42c-.64-.1-1.27-.21-1.9-.36-1-.24-2-.51-3.06-.76a13.87,13.87,0,0,0-3.58-.24,6.28,6.28,0,0,0-2.15.29l0,0h-.21a.29.29,0,0,1-.29,0l-.1,0c-.17,0-.43.22-.5-.05s.23-.22.38-.28a.69.69,0,0,1,.25,0l.1.12a7.7,7.7,0,0,1,2.14-.71,11.26,11.26,0,0,1,4.44-.23c.84.16,1.67.31,2.49.5s1.39.21,2.07.4a4.37,4.37,0,0,0,2.43-.06,7.43,7.43,0,0,0,1.84-.83c.69-.42.69-.42.79-1.22,0-.34.09-.69.14-1l-.08,0c-.73.21-1.49.28-2.22.45a14.54,14.54,0,0,1-3.67,0,3.37,3.37,0,0,0-1.72-.19,9.13,9.13,0,0,1-1.57,0,14,14,0,0,0-3.42.11c-.52.08-1,.15-1.56.19a7.86,7.86,0,0,0-2.39.56c-.52.2-1,.41-1.56.6a6.28,6.28,0,0,0-1.94,1,1.5,1.5,0,0,1-1,.43c-.36-.05-.46.11-.6.33s-.24.33-.36.49a1.11,1.11,0,0,0,.27.12.37.37,0,0,1-.25.12c.06.07.19,0,.33,0,.31,0,.63-.1.94-.13a12.66,12.66,0,0,1,2.95-.12,1.58,1.58,0,0,1,.75,0,.58.58,0,0,0-.14,0L68.55,54a6,6,0,0,1,2.31.13.86.86,0,0,1,.16,0s.11,0,.12.08-.07.11-.15.11l-.15,0-.15,0h0l-.24.06-.82-.07h0a.81.81,0,0,0-.18.1,8.18,8.18,0,0,1-1.56.16,26.35,26.35,0,0,0-4.5.8,1.26,1.26,0,0,0-.63.29,2.6,2.6,0,0,1-1.22.68c-.29.09-.4.31-.53.54a.18.18,0,0,0,0,.24.66.66,0,0,0,.76.23,16.18,16.18,0,0,1,5-1.17,50.2,50.2,0,0,1,5.62-.11,9.34,9.34,0,0,1,2.62.3l0,.06.12-.17c.12,0,.23,0,.35,0,.31.06.52.22.43.31s-.32.06-.49,0l-.35,0c0,.07-.34,0-.33.07-.76,0-1.52,0-2.28,0-1.75.11-3.5.24-5.24.37a25.4,25.4,0,0,0-4.67.75c-.14,0-.29,0-.33.23a1.1,1.1,0,0,0,1.24.34,14.66,14.66,0,0,1,3.3-.38c.3,0,.59,0,.88,0a.47.47,0,0,0-.2-.06L67,57.9a9.59,9.59,0,0,1,2.62-.06h0a2,2,0,0,1,1.33,0c-.06.07-.08.11-.1.11h-.2s0,.05-.06,0l-.14,0-.64,0a13.62,13.62,0,0,1-1.91.13l-.23.1a.14.14,0,0,1-.14,0c-.24.14-.51-.1-.75.07-.77.13-1.55.24-2.32.38-.11,0-.31,0-.32.21l.82.46a2.53,2.53,0,0,0,1.52.3l2-.19L73.28,59a.8.8,0,0,1,.53,0c-.11,0-.25,0-.36-.09a3.67,3.67,0,0,1,1.08-.24h0l.4-.18c.06,0,.11,0,.13.08a.11.11,0,0,1,0,.08.51.51,0,0,1-.34.25,1.14,1.14,0,0,1-.74.28l0,0a1,1,0,0,0-.16.14,5,5,0,0,1-1,.34.28.28,0,0,1-.17.07.78.78,0,0,1-.21,0,.37.37,0,0,1-.19.09c-.1.05-.23,0-.35,0a.3.3,0,0,1-.17.08,1.67,1.67,0,0,1-.38.06h0a.32.32,0,0,1-.15.06.48.48,0,0,1-.29,0c.06.12.19.15.31.19h0l.34,0h0a.39.39,0,0,1,.37-.08h.18l.17-.09s0,0,0,0,.27,0,.26.15-.17.19-.31.18a3.4,3.4,0,0,1-.93.22h0a2,2,0,0,1-.88.09h0l-.18.11c-.15.16,0,.21.1.25a11.11,11.11,0,0,1,2.59,2.09,10.49,10.49,0,0,0,.75.74A2.21,2.21,0,0,1,74.42,65a1.64,1.64,0,0,0,.12.22,2.38,2.38,0,0,0,.22-.18,4,4,0,0,1,3.16-1.47,1,1,0,0,0,.55-.2,3,3,0,0,1,3-.39c0,.42,0,.86,0,1.29a8.15,8.15,0,0,0,.36,2.51,5.25,5.25,0,0,1,.2,1.3C82.1,68.85,82.15,69.65,82.2,70.45ZM47.49,71.51A6.76,6.76,0,0,0,47.27,76a3.82,3.82,0,0,0,2.85,2.83c.25.06.49.2.75.25a1.86,1.86,0,0,1,1.34.9.35.35,0,0,0,.45.15A5.35,5.35,0,0,0,55.1,79c.19-.17.41-.33.61-.5a20,20,0,0,0,3.93-3.75,4.22,4.22,0,0,1,.89-.85c.73-.54,1.47-1.07,2.18-1.63a3.77,3.77,0,0,1,1.59-.72c.94-.2,1.92-.21,2.86-.44a2.86,2.86,0,0,1,.87,0,8.29,8.29,0,0,1,.87.13A1.89,1.89,0,0,0,70.33,71a7.09,7.09,0,0,0,3.45-3.72,1.39,1.39,0,0,0,.1-1.55c-.13-.26-.14-.56-.38-.78a18.66,18.66,0,0,0-3.17-2.5,9.87,9.87,0,0,0-3.45-1.26,7.39,7.39,0,0,1-2.5-.76,5.76,5.76,0,0,0-.89-.37,4.2,4.2,0,0,1-1.68-1.1c-.35-.37-.72-.73-1.08-1.09-.61.46-.55.64-.16,1a1.93,1.93,0,0,1,.22.28,17,17,0,0,0,5.13,4.21.2.2,0,0,0,.07-.06h.09s.13,0,.16.06a.12.12,0,0,1-.07.19,1,1,0,0,1-.29.07c-.16.1-.33.06-.95-.1a3,3,0,0,1-.84-.26,9,9,0,0,1-3.51-2.69c-.39-.48-.76-1-1.16-1.49-.28.27-.7.25-1,.49a10.32,10.32,0,0,0,2.19,3,.19.19,0,0,1,0-.09.16.16,0,0,1,.17.16.43.43,0,0,1,.32.22,4.5,4.5,0,0,1,.43.27.14.14,0,0,1,0,.14.15.15,0,0,1-.13.06,1,1,0,0,1-.61-.28l-.13,0a.37.37,0,0,1-.24-.1.13.13,0,0,1-.13-.06l-.2-.16a8.11,8.11,0,0,1-2.67-3.34l-.48.44-.06.07.06.52h0a.11.11,0,0,1,0,.12h0a.22.22,0,0,1,.08.25.12.12,0,0,1,0,.14h0a.2.2,0,0,1,.09.23,1.09,1.09,0,0,1,.08.15,12.57,12.57,0,0,0,2.94,4.46,1.56,1.56,0,0,1,.16.2h0a.39.39,0,0,1,.29.25v0a.18.18,0,0,1,.17.16.24.24,0,0,1,.21.19.11.11,0,0,1,.11.06.19.19,0,0,1,.18.16l.8.49h0l.67.27a1.36,1.36,0,0,1,.42.1c.2.12.48,0,.68.33h-.43l.12,0s.09,0,.15,0l-.3-.08a1.57,1.57,0,0,1-.89-.26h0a1,1,0,0,1-.69-.27h0a1.32,1.32,0,0,1-.78-.47h0a.18.18,0,0,1-.14-.08h0a.19.19,0,0,1-.19-.15.15.15,0,0,1-.14-.08h0a.17.17,0,0,1-.16-.15.22.22,0,0,1-.21-.17.13.13,0,0,1-.11-.08.18.18,0,0,1-.17-.16,9.15,9.15,0,0,1-3-4.45.37.37,0,0,1-.12-.39.13.13,0,0,1,0-.12h0a.2.2,0,0,1-.08-.25.14.14,0,0,1,0-.15,3.84,3.84,0,0,1-.14-.4.3.3,0,0,0-.06-.14l-.16,0c-.2.19-.4.36-.69.27s-.5.11-.76.13a.47.47,0,0,0-.09.12A6.52,6.52,0,0,0,55,62.09a13.79,13.79,0,0,0,2,4.34,30.28,30.28,0,0,0,2.19,2.72l1.28,1.07.71.48c-.13.22-.26.11-.37.06s-.39-.24-.58-.37a4.26,4.26,0,0,1-1.43-1.09,6.52,6.52,0,0,1-1.07-1A12.36,12.36,0,0,1,54.49,62a3.36,3.36,0,0,1-.11-1.18.55.55,0,0,0-.58-.19,1.71,1.71,0,0,1-1.16-.05.58.58,0,0,0-.09.46,33.5,33.5,0,0,0,.62,3.44,6.49,6.49,0,0,0,.65,1.72,17.56,17.56,0,0,0,2.06,2.93l1.66,1.82,0,0a.64.64,0,0,1,.36.36s0,.13,0,.16a.18.18,0,0,1-.24,0c-.09-.07-.2-.12-.28-.19h0a14.48,14.48,0,0,1-3.26-2.89,8.08,8.08,0,0,1-2-4.38c-.09-.69-.18-1.39-.29-2.08-.05-.27,0-.59-.21-.82a.81.81,0,0,0-.33.24,1.74,1.74,0,0,0,0,.32,16.47,16.47,0,0,1,.08,2.11,14.07,14.07,0,0,1-.39,2.6,9,9,0,0,1-.86,2.76,2.27,2.27,0,0,1-.5,1h0s0,.09-.08.14a.41.41,0,0,1-.05.09.45.45,0,0,1-.42.29c-.07-.3.21-.45.28-.7,0-.08.1-.14.15-.2A9.42,9.42,0,0,1,50,68.33h0c.13-.89.25-1.78.4-2.66a24.18,24.18,0,0,0,.25-3.9h0l-.14-.24a1.15,1.15,0,0,1-1-.62l.06-.06h.09a6.5,6.5,0,0,1,.26-1.16c.14-.51.3-1,.4-1.53.05-.27.1-.63-.17-.81s-.56,0-.83.13a1,1,0,0,0-.51.57,10.76,10.76,0,0,0-.36,1.35,6.59,6.59,0,0,0-.36,1.37h0v0l.25,0c.59,0,.67.29.67.72,0,.68,0,1.35,0,2a4.25,4.25,0,0,0,.07,1.13,5.6,5.6,0,0,1,0,2.27c-.16.65-.37,1.3-.59,1.93C48.16,69.76,47.81,70.64,47.49,71.51ZM52.23,59a3.12,3.12,0,0,0,.39-1.77.22.22,0,0,0-.13-.21.29.29,0,0,0-.32.08,1.76,1.76,0,0,0-.34.7,27.08,27.08,0,0,1-1.27,3,.14.14,0,0,1-.1,0,.14.14,0,0,1-.19.11.75.75,0,0,1-.2-.1s0,0,0,.06A.53.53,0,0,0,50,61c.15.12.36.14.52.25l0-.06.13-.18c.15-.14.19-.43.49-.36a.16.16,0,0,0,0,.07l.06-.06C51.61,60.13,51.93,59.57,52.23,59ZM58,56.7a3.48,3.48,0,0,0,.3-1.18,1.89,1.89,0,0,0-.23-1.1.28.28,0,0,0-.2-.14c-.07,0-.15.08-.19.15a16.32,16.32,0,0,0-1.19,2.63,7.11,7.11,0,0,1-1,2h0c0,.14,0,.3.13.37A6.27,6.27,0,0,0,58,56.7Zm-2.28-1.31a.19.19,0,0,0-.28-.1,1.23,1.23,0,0,0-.49.71,13.54,13.54,0,0,1-1.4,2.73,5.61,5.61,0,0,0-.29.54c0,.08-.08.18,0,.23a.43.43,0,0,0,.24.06,1.52,1.52,0,0,0,.78-.39,4.23,4.23,0,0,0,1.44-2.73A2.47,2.47,0,0,0,55.68,55.39ZM58.38,58a.19.19,0,0,0,.16,0,4.54,4.54,0,0,0,1.91-2.11,3.81,3.81,0,0,0,.32-2.38c-.35,0-.4.35-.52.56-.24.41-.39.87-.66,1.24a25.25,25.25,0,0,0-1.26,2.49A.16.16,0,0,0,58.38,58Zm2.36,4.58a.29.29,0,0,1-.1,0h0a.18.18,0,0,1,.07,0Zm.95-7.24a1.32,1.32,0,0,0,1-.76A5.86,5.86,0,0,0,63.2,53a6.27,6.27,0,0,0,.11-.87,1,1,0,0,0,0-.35.38.38,0,0,0-.35-.34.33.33,0,0,0-.39.27,11.69,11.69,0,0,1-.39,1.35A5.67,5.67,0,0,0,61.69,55.37ZM87,43.2a10.21,10.21,0,0,1-2.47.49,9,9,0,0,0-4.3,1.63c-.84.6-1.66,1.21-2.5,1.79a16.44,16.44,0,0,1-2.38,1.59c.12.18.35.14.52.23a.67.67,0,0,1-.21.1h0c.81,0,1.64.12,2.45.07a29.1,29.1,0,0,1,4.27.4l.08,0a6.47,6.47,0,0,0,2.87,0,3.86,3.86,0,0,0,1.7-.68c.69-.55,1.43-1,2.12-1.57a4.38,4.38,0,0,0,1.21-1.59,2.22,2.22,0,0,0,.17-1.29,19.85,19.85,0,0,0-.77-2.88A36.55,36.55,0,0,0,87,44.6a.1.1,0,0,0,0,0c0,.24-.19.39-.52.5,0-.16.07-.31.1-.45s0-.25.07-.38.21-.48.3-.73S87.16,43.36,87,43.2ZM75.22,49a.29.29,0,0,0,.23,0Zm17.87-6.49a3.62,3.62,0,0,0-2-1c-.34-.08-.56.18-.47.53.22.88.45,1.76.67,2.64a6,6,0,0,1,.2.94,7,7,0,0,1-1.59,5l0,.06c0,.05,0,.12-.09.14s-.17.08-.23.05a.11.11,0,0,1-.06-.11s0-.1,0-.2c.32-1,.63-1.91.94-2.87,0-.2.31-.44-.12-.54a4.34,4.34,0,0,1-1.5,1.57c-.36.24-.71.52-1.06.78a1.66,1.66,0,0,0-.56.77,6.33,6.33,0,0,0-.3,2.07,10.73,10.73,0,0,0,.75,4,10.68,10.68,0,0,1,.63,3.35,4.11,4.11,0,0,1-.75,2.66A8.72,8.72,0,0,1,86.16,64a4,4,0,0,0-1.22,2.37c0,.2,0,.41-.08.61a7.55,7.55,0,0,1-1.33,3.31,9.85,9.85,0,0,1-1.14,1.1l.12,0c0,.19.22.24.38.29a1.1,1.1,0,0,1-.14.09,3.5,3.5,0,0,0,.46-.14A9.76,9.76,0,0,0,86,69.75a12.33,12.33,0,0,0,2.57-2.87,25.7,25.7,0,0,0,2.91-6.07,25.79,25.79,0,0,0,1.23-5.19c0-.16-.15-.43.06-.5a2.17,2.17,0,0,1,0-.25c0-.11,0-.32.18-.28s.18.18.17.33a.19.19,0,0,1,0,.08.25.25,0,0,0-.16.19A11.31,11.31,0,0,1,93.08,57a18,18,0,0,1-.53,3.73,20.2,20.2,0,0,1-1.15,3.5,1,1,0,0,0-.06.22,1.22,1.22,0,0,1,.24-.32c0,.11,0,.24.08.34.37-.41.73-.82,1.1-1.22A6.16,6.16,0,0,0,93.69,62,16.57,16.57,0,0,0,95,59c.4-1.31.89-2.6,1.16-4s.55-2.75.82-4.13a1.11,1.11,0,0,0,0-.17,12.1,12.1,0,0,0-.31-2.88,6.61,6.61,0,0,0-1.35-2.73C94.61,44.23,93.85,43.38,93.09,42.53Zm3.28-13.22a7.34,7.34,0,0,0-1.1,3,25.66,25.66,0,0,1-.64,3.89,5.35,5.35,0,0,1-1.91,3c-.31.23-.6.47-.89.72-.11.11-.31.18-.25.42.22,0,.45.09.67.16a5.71,5.71,0,0,1,.58.21,5.36,5.36,0,0,1,.62.34c.17.11.32.25.48.37s.27.38.59.43a21.93,21.93,0,0,1,1.44-3,9.18,9.18,0,0,0,.83-2.76,25.12,25.12,0,0,0,.15-3.68,9.4,9.4,0,0,0-.45-3.17S96.39,29.27,96.37,29.31Zm-4.48-.86s0,0,0,0l.24-.36v0L92,28.2h0Zm-4.22-2.27a20.08,20.08,0,0,1-4.56,4.36c-.94.7-1.89,1.39-2.84,2.08a27.75,27.75,0,0,1-3.22,2.15A58.63,58.63,0,0,0,70.7,39a14.53,14.53,0,0,0-2.57,2.39c-.69.84-1.4,1.66-2.09,2.5-.39.47-.74,1-1.13,1.46s-.18.77-.21,1.17.26.43.42.63a.22.22,0,0,0,.28.1,33.69,33.69,0,0,1,4.73-4,.46.46,0,0,1,.18-.13.14.14,0,0,1,.18-.1h0a.35.35,0,0,1,.31-.2.23.23,0,0,1,.21-.15l0,.07.08,0,0,0a10.24,10.24,0,0,1,1.45-1.18h0l.32-.26a.17.17,0,0,1,.15,0c.08.07,0,.15,0,.21s-.2.19-.3.29l-.06.06,0,0,0,0a3.19,3.19,0,0,1-.26.26,7.73,7.73,0,0,1-1.11.95.47.47,0,0,0,0-.17,1.08,1.08,0,0,0-.16.28h0s0,0,0,.06h0c0,.1-.07.14-.17.15l0-.07h0l0,0-.06.07,0,0a.19.19,0,0,1-.17.17.14.14,0,0,1,.05-.1l0,0h0a.73.73,0,0,1-.17.18L66.8,47a8,8,0,0,0-1.33,1.52.39.39,0,0,0,0,.47,4.87,4.87,0,0,1,.25.51,4.07,4.07,0,0,0,.3-.36,8,8,0,0,1,2.64-2.54c.54-.34,1.1-.68,1.66-1A21.9,21.9,0,0,0,72.89,44c1.85-1.38,3.72-2.74,5.64-4.05.07,0,.15-.11.19,0a2.2,2.2,0,0,1-.6,1c-.35.39-.71.77-1.08,1.15a23.5,23.5,0,0,1-7.11,5.05c-.42.19-.84.41-1.25.64a6,6,0,0,0-1.35.94.35.35,0,0,1,.11,0l.21.28-.17.1,1.87-.47c.42-.09.86-.14,1.29-.24a13.29,13.29,0,0,1,2.6-.41,4.21,4.21,0,0,0,2.26-.62c1.26-.85,2.47-1.78,3.66-2.73a9.8,9.8,0,0,1,1.78-1.28,8.39,8.39,0,0,1,3.65-.82c.35,0,.71,0,1.06,0a3.83,3.83,0,0,0,2.89-1.26c.28-.29.57-.59.88-.86,1-.81,1.94-1.61,2.92-2.4a3.09,3.09,0,0,0,1-1.48,15.27,15.27,0,0,0,.69-3c.05-.47.12-.93.17-1.4a6.88,6.88,0,0,1,.81-2.49c.13-.23.27-.45.39-.68a4.75,4.75,0,0,0,.7-2.15c0-.71.12-1.4.18-2.1a5.7,5.7,0,0,0-.67-3.48,2.6,2.6,0,0,0-1.12-1A14.56,14.56,0,0,1,94,22.91c-.29.35-.05.84-.34,1.19h0c-.23.24,0,.62-.28.85h0c-.15.13-.12.33-.15.5l.07.09c0-.26,0-.54.26-.69,0-.3,0-.64.28-.86a1.33,1.33,0,0,1-.28.86.93.93,0,0,1-.26.69h0a3.54,3.54,0,0,1-.54,1.34A3.09,3.09,0,0,1,92.21,28l-.1.21a3.37,3.37,0,0,0-.21.31c0,.08,0,.07,0,0h0l0,.06h0a.67.67,0,0,1-.09.14c-.07.08-.15.22-.27.15s0-.23,0-.34a1,1,0,0,1,.16-.19h0A.51.51,0,0,1,91.9,28h0a7.7,7.7,0,0,1,.71-1.51c.1-.31.17-.62.28-.93A4.31,4.31,0,0,1,93,25l.07-.3c.19-.21.08-.52.24-.74l.08-.46c.33-.73.14-1.56.45-2.29a.11.11,0,0,1,0-.14c.08-.41.43-.85-.1-1.22-.49.08-.5.08-.51.49a9.51,9.51,0,0,1-.72,3.33c-.37.86-.71,1.73-1.12,2.58A36.38,36.38,0,0,1,89.5,30l.07.06a4.28,4.28,0,0,1-.72,1.12,1.26,1.26,0,0,1-.46.51c-.07,0-.2.11-.24.08s0-.2,0-.29l.53-.7c.14-.28.26-.57.41-.85,0-.12.07-.25.12-.37s.09-.28.14-.42c.58-1.34,1.17-2.68,1.74-4a23.38,23.38,0,0,0,1.41-3.88A2.3,2.3,0,0,0,92,19a2.93,2.93,0,0,1-.51-.81c-.18-.35-.32-.72-.48-1.09,0,.07,0,.14-.08.2a.75.75,0,0,1-.08-.24c-.17,0-.16.16-.09.34a1.45,1.45,0,0,0,0,.36,8.91,8.91,0,0,1-.68,4.2A21.74,21.74,0,0,1,87.67,26.18ZM70.82,42.91h0Zm1.7-1h0l-.08.08A.23.23,0,0,0,72.52,41.9ZM65.38,25.22c-.28.42-.57.83-.81,1.26a33.74,33.74,0,0,0-2,3.8c-.14.32-.34.62-.5.93s-.17.37-.25.55l-.07.12.05,0,.19-.19c0,.14,0,.3.14.4a35,35,0,0,1,3.57-3.43c.33-.29.7-.52,1-.78a10.56,10.56,0,0,1,2.1-1.53h0a2.46,2.46,0,0,1,.83-.59c.28-.25.52-.6,1-.58h0a.15.15,0,0,1,.19-.15h0l.1-.13c.1.14,0,.13-.09.13a.16.16,0,0,1-.2.16h0a.9.9,0,0,1-.17.26l.06,0a1.56,1.56,0,0,0,.28-.16h0a1.35,1.35,0,0,1-.26.15l-.08.06a2.12,2.12,0,0,1-.53.35h0a3.11,3.11,0,0,1-.82.62h0a20.15,20.15,0,0,1-2.2,1.7c-.41.54-1,.85-1.45,1.36a.24.24,0,0,1-.17.18h0l-.17.15h0l0,0h0l-.15.12a.14.14,0,0,0-.09.12h0a.2.2,0,0,1-.19.18.24.24,0,0,1-.19.17.23.23,0,0,1-.18.17h0l-.15.13a.14.14,0,0,0-.1.12h0l.16.23,0,0h0l.18-.17h0l0,0a.18.18,0,0,1,.07-.05.46.46,0,0,0,.07-.07h0a.14.14,0,0,1,.11-.07l.06-.06v0h0a.19.19,0,0,1,.11-.08l0,0a.09.09,0,0,0,.09-.1.22.22,0,0,1,.2-.19h0a.3.3,0,0,1,.19-.16.21.21,0,0,1,.16-.1l.57-.4c1.51-1.17,3-2.37,4.59-3.45L71,26l-.11,0A5.94,5.94,0,0,1,72,25.13a3.18,3.18,0,0,1,.83-.58,1.06,1.06,0,0,1,.12-.1c.07-.05.14-.09.21,0s0,.14-.06.19a.67.67,0,0,1-.14.09,1.82,1.82,0,0,1-.75.68,4.08,4.08,0,0,1-1,.86v-.1l-.18.2c-.57.5-1.14,1-1.72,1.5-1.55,1.3-3.11,2.59-4.65,3.9a13.16,13.16,0,0,0-2.35,2.48,5.35,5.35,0,0,0-1.17,3.15,3.1,3.1,0,0,1-.4,1.78.39.39,0,0,0,.13.54c.1.09.23.09.27,0,.14-.38.26-.78.39-1.16a8.71,8.71,0,0,1,2.18-3.47,23.1,23.1,0,0,1,2.94-2.37c1.4-1,2.87-1.82,4.34-2.68,2.71-1.57,5.41-3.17,8-4.93a.48.48,0,0,0,.21-.07l0,0a2,2,0,0,1,.61-.63c0-.06.09-.14.15-.2s.14-.14.21,0a.18.18,0,0,1,0,.16.45.45,0,0,1-.11.13,2,2,0,0,1-.72,1,1.27,1.27,0,0,0,0-.2,1.08,1.08,0,0,1-.16.3,6,6,0,0,1-.42.45,46.14,46.14,0,0,1-4.31,3.32c-1.21.82-2.48,1.55-3.74,2.3a43.7,43.7,0,0,0-5.48,3.63A10.56,10.56,0,0,0,63.32,37a11.33,11.33,0,0,0-1.51,3.06,2.07,2.07,0,0,0-.27,1.1c.44.1,1,.11,1.14.65.06.13.09.32.31.25h0l0,0c-.15.06-.16,0-.18-.32l.28.22,0-.06,0,0a.18.18,0,0,1,.11-.07h0a5.5,5.5,0,0,1,1.26-1.42,2.74,2.74,0,0,1,.82-.77,1.18,1.18,0,0,1,.58-.5h0l.23-.28c.12-.12.24-.25.36-.36a.17.17,0,0,1,.15,0,.16.16,0,0,1,0,.23c-.11.13-.23.24-.35.36l-.38.36h0a1.26,1.26,0,0,1-.43.43,4.09,4.09,0,0,1-.8.81,14.36,14.36,0,0,1-1.24,1.45l-.09-.13-.09.23a.11.11,0,0,1-.07.12,1,1,0,0,0-.15.21s0,.06,0,.08a2.71,2.71,0,0,0-.21.58c0,.25.27.27.41.41a1.32,1.32,0,0,1,.4.95c0,.15.05.28.23.32s.41.07.54-.16a9.82,9.82,0,0,1,1-1.36c.67-.82,1.33-1.64,2-2.45a15.89,15.89,0,0,1,1.71-1.77,39.38,39.38,0,0,1,3.49-2.68A36.13,36.13,0,0,1,76.41,34a17.33,17.33,0,0,0,1.65-1c2.15-1.43,4.24-2.94,6.26-4.55a16.12,16.12,0,0,0,2.54-2.55c.52-.64.91-1.37,1.37-2.05A12.88,12.88,0,0,0,89.59,21,6.59,6.59,0,0,0,90,18.28a9.52,9.52,0,0,1,0-1.41,3.73,3.73,0,0,0-1.07-2.69c-.09-.12-.31-.15-.47-.2s-.28.06-.23.24a11.47,11.47,0,0,1,.26,4.36A9.06,9.06,0,0,1,87.87,21a14.66,14.66,0,0,1-1.73,3.64,15.16,15.16,0,0,1-4.17,4c-2.73,1.72-5.37,3.57-8,5.49l-2.47,1.81h0a3.19,3.19,0,0,1-1,.77l-.06,0s0,0,0,0h0a.09.09,0,0,0,.08,0l-.18.17a2.45,2.45,0,0,1-.79.64.15.15,0,0,1-.13,0,.16.16,0,0,1,0-.16,2.22,2.22,0,0,1,.76-.67h0l.2-.15a.06.06,0,0,0,0,.08h0V36.5a3,3,0,0,1,.82-.78l0,0c1.39-1.27,2.89-2.4,4.34-3.58A49.78,49.78,0,0,1,81,28.18a14.76,14.76,0,0,0,2.44-1.87,14,14,0,0,0,4.47-9.19,7.79,7.79,0,0,0-.26-3c-.08-.31-.23-.4-.5-.32a2.62,2.62,0,0,0-.49.19c-.71.36-1.42.71-2.11,1.09a5.15,5.15,0,0,1-2.17.68,25,25,0,0,0-3.12.5c-1,.19-1.91.33-2.85.55-1.79.44-3.55,1-5.31,1.58A3.58,3.58,0,0,0,70,19l-2.51,2.08a1,1,0,0,0-.37.57,6.24,6.24,0,0,1-.63,1.72C66.11,24,65.78,24.64,65.38,25.22ZM63.49,47.43c0,.12,0,.24,0,.36a.14.14,0,0,1,0,.09A.48.48,0,0,0,63.49,47.43Zm.16-1.38,0,.07v0Zm-1.21.89a6.24,6.24,0,0,0,.77-2.49c0-.16,0-.36-.25-.4a5.2,5.2,0,0,1-.69,1.69c-.5.72-1,1.45-1.52,2.14-.23.3-.31.53-.1.85a.08.08,0,0,1,0,0,1.79,1.79,0,0,0,0,.46v0h0c.11,0,.22.08.31,0s.41-.5.62-.74h0A13.46,13.46,0,0,1,62.44,46.94ZM59.2,41.36a1.62,1.62,0,0,0-.87.93,3.27,3.27,0,0,0-.23,1.88h0l.19,0h0A6.82,6.82,0,0,0,59.2,41.36Zm-2.1,2.29a2.22,2.22,0,0,0,.33.07,8.71,8.71,0,0,1,.35-1.53,2.61,2.61,0,0,1,1.33-1.56,1.54,1.54,0,0,0,.31-.17c.14-.11.26-.25.18-.45s-.34-.2-.55-.09a1.49,1.49,0,0,0-.3.18A7.11,7.11,0,0,0,57,41.8a3,3,0,0,0-.39.69C56.3,43.22,56.37,43.37,57.1,43.65Zm.49-3.53.72-.49c.18-.13.13-.32.09-.48a.31.31,0,0,0-.34-.22,2.65,2.65,0,0,0-2.15,1.32,7.57,7.57,0,0,0-.75,2,.29.29,0,0,0,.15.37l.39.22a1.23,1.23,0,0,0,.14-.24A4,4,0,0,1,57.59,40.12Zm1,5.18a.49.49,0,0,0,.17.18.17.17,0,0,0,.22-.07,8.29,8.29,0,0,0,.56-.89,12.48,12.48,0,0,0,1.2-3.1c0-.29,0-.5,0-.7a1.34,1.34,0,0,0-.27-.82s-.1,0-.15-.07-.1,0-.11.1a14.12,14.12,0,0,1-1.33,4.14c-.12.24-.24.48-.34.72A.61.61,0,0,0,58.6,45.3Zm.72,1.55a.83.83,0,0,0,1.09,0,5.53,5.53,0,0,0,1.84-3.58c0-.35.07-.7.08-1a.46.46,0,0,0-.43-.47.43.43,0,0,0-.49.27,4.24,4.24,0,0,0-.18.5,8.93,8.93,0,0,1-1.82,3.64.82.82,0,0,0-.18.29A.39.39,0,0,0,59.32,46.85ZM64.6,10.68h-.11c0,.07-.06.16-.1.24l0,0s0,.11,0,.16a.14.14,0,0,0,0,.11.43.43,0,0,1,0-.11.32.32,0,0,1,.1.41s0,0,0,0a.52.52,0,0,0,0,.17c.16.89.3,1.78.48,2.67A9,9,0,0,1,65,17.05a31.58,31.58,0,0,1-.77,3.6A24.25,24.25,0,0,1,62.75,25a31.91,31.91,0,0,0-1.35,3.52A9.55,9.55,0,0,0,61,31.31l0-.11.35-.3V31c.77-1.6,1.54-3.2,2.29-4.8.34-.75.7-1.48,1.09-2.2.27-.49.51-1,.76-1.49a4.43,4.43,0,0,0,.44-1.33c.15-1,.3-2.09.46-3.13a4.52,4.52,0,0,0-.1-1.83c-.37-1.35-.73-2.71-1.11-4.06a6.61,6.61,0,0,0-.28-.74.29.29,0,0,1-.07-.2.2.2,0,0,1-.06-.15h0a.41.41,0,0,1-.11-.24A.11.11,0,0,0,64.6,10.68Zm-35.09,3a4.13,4.13,0,0,0-.24,1.2,29.78,29.78,0,0,0,.06,3A5.12,5.12,0,0,0,30,20.18c.25.43.54.84.78,1.27a4.55,4.55,0,0,0,1.53,1.67,8.74,8.74,0,0,1,1.5,1.21c.57.59,1.14,1.19,1.73,1.75a2.2,2.2,0,0,1,.68,1.11c.24,1.21.47,2.42.66,3.63a7.09,7.09,0,0,1-.3,2.78,2.45,2.45,0,0,0,.08,1.54A3.72,3.72,0,0,0,38,37a3,3,0,0,1,.55.44,6.48,6.48,0,0,1,.45.67,1.56,1.56,0,0,1,2.26,0c.25-.24.49-.53.9-.43s.35-.07.41-.3a1.15,1.15,0,0,1,.5-.79c.14-.09.35-.09.4-.32-.18-.28-.35-.59-.56-.87a9.85,9.85,0,0,1-1.83-4.52,36.51,36.51,0,0,1-.22-7c0-.82.14-1.64.18-2.46a27.82,27.82,0,0,0-.68-7.5c-.28-1.17-.59-2.33-.88-3.5a1,1,0,0,0-.1-.24.11.11,0,0,1,0-.12.55.55,0,0,0-.1-.25v0c-.15-.28,0-.63-.28-.9l0-.06h0a.64.64,0,0,1,.1.13l-.11-.2a.69.69,0,0,1-.29-.4.14.14,0,0,1,0-.14.22.22,0,0,1,.16,0,.72.72,0,0,1,.34.37,1.63,1.63,0,0,1,.46.75.31.31,0,0,0-.17.15.71.71,0,0,0,.12.18h0a.49.49,0,0,1,.11.2,14.3,14.3,0,0,1,1.2,3,25.66,25.66,0,0,1,.92,9.39c-.09,1.25-.2,2.5-.24,3.76a31.86,31.86,0,0,0,.27,5.08,9.27,9.27,0,0,0,1.34,3.7c.23.37.48.73.7,1.11a1.55,1.55,0,0,0,.63.71.53.53,0,0,1,.29.59c0,.21.12.45,0,.59-.19.38,0,.62.21.88a3.61,3.61,0,0,0,.52.59,4.14,4.14,0,0,1,1.07,1.48l.17,0v-.08a.26.26,0,0,0,.14-.1c0-.11,0-.24,0-.34a5.77,5.77,0,0,0-.1-.6,2.68,2.68,0,0,0-.55-1A1.8,1.8,0,0,1,45.9,37a2.11,2.11,0,0,0,0-.26,2.43,2.43,0,0,0-.46-.77l-.06-.1-.14-.18-.06-.1a2.39,2.39,0,0,1-.13-.21,1.17,1.17,0,0,1,0-.11,1.08,1.08,0,0,0-.08-.19,9.67,9.67,0,0,1-1.1-2.78,21.57,21.57,0,0,1-.68-4.86c-.07-1.67,0-3.33.09-5A71.71,71.71,0,0,0,43.1,14a2.08,2.08,0,0,1,0-.35l0-.17a.62.62,0,0,1,0-.4,1.49,1.49,0,0,0,0-.21,6.93,6.93,0,0,1-.17-1.36,12.11,12.11,0,0,1-.34-1.35s0,0,0-.07c.07.37.18.74.27,1.12a1.11,1.11,0,0,1,.09.31v-.09h0l-.33-1.5h0s0,0-.06-.07c-.14-.35-.14-.52,0-.49s.21.23.25.39A5.31,5.31,0,0,1,43.08,11a4.17,4.17,0,0,1,.22,1.26.11.11,0,0,1,0,.12h0a.37.37,0,0,1,.07.42,36,36,0,0,1,.5,4.63,53.25,53.25,0,0,1,0,5.79,44.57,44.57,0,0,0,0,5.17,19.35,19.35,0,0,0,1.37,6.32.36.36,0,0,1,.18.33.2.2,0,0,1,.12.22.22.22,0,0,1,.14.21h0c.16.21.33.41.48.62s.29.17.47.16l0,0a1.54,1.54,0,0,1,1,.18c.2.09.33.33.58.32s.17-.31.25-.46a.74.74,0,0,1,.75-.48.59.59,0,0,0,.06-.69c-.05-.12,0-.26-.09-.38s0-.08,0-.12,0-.3-.11-.42a4.77,4.77,0,0,0-.06-.76c-.19-.64-.38-1.27-.56-1.91L48.2,31c-.1-.22-.21-.43-.33-.64a2.65,2.65,0,0,0-.56-.87c-.09-.07,0,0-.05-.06s-.11,0-.07,0,.13.09.18.15a2.46,2.46,0,0,1,.48.75c.11.21.23.41.33.62a1.63,1.63,0,0,1,.11.23c0-.09,0-.18-.08-.27h0l-.28-.57a4.74,4.74,0,0,1-.58-1h0l-.08-.11s.1-.05.12,0a1.21,1.21,0,0,1,.16.16,1.49,1.49,0,0,1,.59.8,1,1,0,0,1,.29.56A5.72,5.72,0,0,1,49,32.05c.12.3.24.6.35.9.15-.06.18-.19.22-.31a1.24,1.24,0,0,0,0-.27v0l-.08-.49h0a4.84,4.84,0,0,1-.37-1.45h0a.45.45,0,0,1-.12-.37,4.59,4.59,0,0,1-.17-.48s0-.11.09-.13.13,0,.14,0,.1.27.15.4h0l.11.38h0a4.48,4.48,0,0,1,.39,1.29,31.26,31.26,0,0,1,1.16,4.16,1.22,1.22,0,0,1,0,.6l-.17.13.16.82.29-.57a1.07,1.07,0,0,1,.43-.44c.18-.1.19-.25.16-.45-.12-.92-.25-1.85-.33-2.79a18.86,18.86,0,0,1-.15-2.71,3.81,3.81,0,0,1,.06-.89,7.27,7.27,0,0,1,0-1l0-.47a2.89,2.89,0,0,1,0-1.46.48.48,0,0,1,.05-.39c.06-.07.08-.07.11,0a.51.51,0,0,1,0,.3c0,.06,0,.12,0,.18a.29.29,0,0,0,0-.16l0,.08a4.17,4.17,0,0,1,0,1.06v.31h0a4.43,4.43,0,0,1,.12,1.66.38.38,0,0,0-.15.16,1.33,1.33,0,0,1,.05.19c.12,1.17.22,2.33.35,3.49.09.84.2,1.68.29,2.52a1.27,1.27,0,0,0,.47.8c.2.19.38.09.57,0s.15-.21.15-.36a11.14,11.14,0,0,1,0-2c0-.36,0-.71.08-1.06s0-.63,0-.94,0-.41,0-.61h0a9.15,9.15,0,0,1,.18-2.15c.22,0,.25.17.25.31s-.05.52-.08.78l0,.62h0a.81.81,0,0,1,0,.61,4.64,4.64,0,0,1,0,1.44.43.43,0,0,0-.17.21c.08.9.15,1.8.21,2.69a.84.84,0,0,0,.4.73,2.46,2.46,0,0,1,1,1.68c0,.16,0,.36.22.48l.3-.27a.51.51,0,0,0,.19-.61,16.53,16.53,0,0,1,.1-7.24,35.19,35.19,0,0,1,1.41-4.62A31.05,31.05,0,0,0,59.07,21a46.53,46.53,0,0,0,.62-6.56c0-.91,0-1.82,0-2.72-.08-.19,0-.4-.06-.59a.16.16,0,0,1,0-.15c0-.27,0-.55,0-.82l-.19-.73h0L59,8.51c.15-.13.23,0,.31,0a1.59,1.59,0,0,1,.39.66A2.19,2.19,0,0,1,60,10.33a.27.27,0,0,0-.14.16v.07c.05.13,0,.28.09.41a17.08,17.08,0,0,1,.26,4.62,44.6,44.6,0,0,1-.55,4.89,30.35,30.35,0,0,1-1,4.53q-.73,2.34-1.45,4.7a19.1,19.1,0,0,0-.79,6.06c0,.61.06,1.22.13,1.83s.08.65.72.58c.12,0,.24,0,.35,0,.38,0,.45-.1.43-.49a23.89,23.89,0,0,1,.07-3.59,21.09,21.09,0,0,1,.4-2.87c.21-.81.33-1.64.56-2.44a.06.06,0,0,1,0,0c0,.29-.18.56-.18.85L59,29c.07-.28.13-.55.19-.83s.08-.46.13-.68c0,0,.09-.06.14-.08s.12,0,.12.08a1.57,1.57,0,0,1-.17,1s0,.06,0,.08l0,.1,0-.11a.14.14,0,0,0,0-.06l-.06.08a8.07,8.07,0,0,1-.21,1.38.55.55,0,0,0-.22.48c0,.26-.05.51-.08.76a36.34,36.34,0,0,0-.36,5.51A4.43,4.43,0,0,0,59,39.05a.43.43,0,0,0,.16.19c.41.2.61.13.85-.27a1,1,0,0,0,.2-.9,1.37,1.37,0,0,1,0-.53,19.94,19.94,0,0,0,0-2.19,36.33,36.33,0,0,1-.15-3.77,13.06,13.06,0,0,1,.81-4.37c.59-1.5,1.29-2.95,1.83-4.48.25-.72.49-1.44.67-2.17.13-.57.22-1.15.34-1.72a10.59,10.59,0,0,0,.23-3c-.07-.79-.17-1.58-.27-2.36a13.32,13.32,0,0,0-1.32-4.62,2.05,2.05,0,0,1-.16-.41,2.74,2.74,0,0,0-.38-.69C61.08,6.85,60.35,5.9,59.61,5a4.27,4.27,0,0,0-1-.9A14.46,14.46,0,0,0,56.75,3a4.58,4.58,0,0,0-3.15-.35,3.4,3.4,0,0,1-1.31.07c-.11,0-.23,0-.29.11l.3.43v0a.26.26,0,0,0,.17-.14c.1.1.21.19.3.29s.18.19.1.3-.25,0-.35-.06l-.24-.14h0a.39.39,0,0,1-.38-.13L48.17,1.59a3.51,3.51,0,0,0-1.68-.44,9.71,9.71,0,0,1-1.32,0,4.15,4.15,0,0,0-2.81.79,6,6,0,0,1-1.73.86,2.15,2.15,0,0,1-1.54,0,5.29,5.29,0,0,0-1.37-.34.93.93,0,0,0-1,.43c-1.09,1.6-2.41,3-3.65,4.51A20,20,0,0,0,29.51,13.65Zm24.1,26.93c-.14.93-.12.93.65,1.46,0,0,.06,0,.14,0a11.09,11.09,0,0,0,.36-3.59,1.38,1.38,0,0,0-.23-.66,1.21,1.21,0,0,0-.74-.57c-.21-.05-.37.06-.3.25A6.9,6.9,0,0,1,53.61,40.58Zm-1.79.15a1.67,1.67,0,0,0-.08.76,3.53,3.53,0,0,1,.66-.15.54.54,0,0,0,.55-.47A6.46,6.46,0,0,0,53,37.75a2.18,2.18,0,0,0-.59-1,.42.42,0,0,0-.71.14.91.91,0,0,0-.07.51c.06.41.12.81.2,1.21A4.31,4.31,0,0,1,51.82,40.73ZM49,41.94c.4-.42,1-.4,1.45-.54a6.59,6.59,0,0,0,.24-3,2.65,2.65,0,0,0-1.06-1.75.38.38,0,0,0-.55,0,1,1,0,0,0-.25,1.05,5.59,5.59,0,0,1,.36,2.15,8.62,8.62,0,0,1-.34,1.89h0l.15.2Zm-1.24-1.21c-.08.34-.13.57-.19.8s.06.2.18.22c.32.07.47,0,.51-.29a10.45,10.45,0,0,0,.11-2.79,5.84,5.84,0,0,0-.25-1,1.29,1.29,0,0,0-.94-.84.45.45,0,0,0-.52.21.42.42,0,0,0,0,.49c.18.23.38.44.56.67a2.72,2.72,0,0,1,.57,1.88A6.52,6.52,0,0,1,47.71,40.73ZM43,12.54a.28.28,0,0,0,0,.09,1.55,1.55,0,0,1,.06.23v0A2.68,2.68,0,0,1,43,12.54ZM43,13v0A0,0,0,0,0,43,13Zm.06.56v0h0S43.11,13.52,43.1,13.51ZM41.79,46.35c.12-.06.28-.09.26-.3a6.16,6.16,0,0,1-3.19-3,1.4,1.4,0,0,1-.26-.82c-.1-.09-.18-.17-.26-.23-.59-.29-.77-1-1.1-1.5a4.54,4.54,0,0,0,2.13,4.22,6.12,6.12,0,0,1,1.3.73.9.9,0,0,1,.24,1.26c-.3.48-.69.22-1.08.07a5.69,5.69,0,0,1-3.24-2.69.76.76,0,0,0-.11-.14c-.32-.29-.66-.76-1.11-.48s-.13.75,0,1.12a4,4,0,0,0,2.09,2c1.09.51,2.28.75,3.34,1.35v0a1.16,1.16,0,0,0,.51-1A.72.72,0,0,1,41.79,46.35Zm-1.52,2.23c0-.11,0-.22.07-.33-.55-.13-1.1-.26-1.64-.42a19.52,19.52,0,0,1-2.08-.95c-.66-.29-2.11-.63-2.28.45-.1.64.76,1,1.23,1.19a13.28,13.28,0,0,0,2.64.67,4.21,4.21,0,0,0,2.2,0c0-.15,0-.37,0-.72A.87.87,0,0,1,40.27,48.58Zm2-3.67c.27,0,.4-.38.61-.58a1.82,1.82,0,0,1,.85-.41.35.35,0,0,0,.2-.56c-.06-.1-.14-.18-.2-.28a3.52,3.52,0,0,0-1-.81,3.08,3.08,0,0,1-1.12-1.09h0l-.26.21h0a8.13,8.13,0,0,0,.82,1.83,1.49,1.49,0,0,1,.25.74c0,.09-.18.21-.26.16A.49.49,0,0,1,42,44a7.19,7.19,0,0,1-1.52-2.53A3,3,0,0,1,40.36,40c.07-.38.12-.76.17-1.13s-.13-.45-.39-.38a1.26,1.26,0,0,0-.8.76,3.63,3.63,0,0,0-.14,2.41,4.78,4.78,0,0,0,2.23,2.92A2.16,2.16,0,0,0,42.31,44.91Zm2.17-2,1.11-.37a2.18,2.18,0,0,0-.87-1.07c-.31-.26-.63-.51-.94-.78a3.5,3.5,0,0,1-1.16-1.91,1.91,1.91,0,0,0-.1-.34.38.38,0,0,0-.34-.23.35.35,0,0,0-.29.17,1,1,0,0,0-.12.23,2.6,2.6,0,0,0,1.11,3A4.33,4.33,0,0,1,44.48,42.87Zm1.66-.46a.54.54,0,0,0,.38-.72,4.38,4.38,0,0,0-1.06-2,4.17,4.17,0,0,1-1.22-2.19.43.43,0,0,0-.12-.22.59.59,0,0,0-.86.3,2.21,2.21,0,0,0,.35,2,6.19,6.19,0,0,0,1.12,1.11A3.74,3.74,0,0,1,46.14,42.41ZM31.81,29.68a7.82,7.82,0,0,1,1,2.7c.19.61.45,1.21.62,1.83C34,36,35.59,37,36.61,38.38a.43.43,0,0,0,.3.18,1.51,1.51,0,0,1,1.26,1.38c0-.12,0-.24,0-.36h0a.38.38,0,0,1,.09-.09h.05l.09-.07a2,2,0,0,0-.33-1,2.89,2.89,0,0,0-.73-.75,4.67,4.67,0,0,1-1.55-4.1c0-.32.08-.64.12-1a7.28,7.28,0,0,0-.34-3.37,2.76,2.76,0,0,0-.92-1.36A8.86,8.86,0,0,1,33,26.1a16.34,16.34,0,0,0-1.74-2,5.41,5.41,0,0,1-1.05-1.5c-.25-.53-.47-1.08-.74-1.59a8.57,8.57,0,0,1-1-3.8c0-.58-.06-1.16-.09-1.74-.16-.35,0-.69,0-1,0-.14.06-.32-.05-.4a.44.44,0,0,1,0-.1h0l0,.11a.35.35,0,0,0-.17,0,.74.74,0,0,0-.18.39c-.09.43-.17.86-.27,1.29a12.28,12.28,0,0,0-.34,2.77c0,1-.06,1.92-.09,2.88,0,.12.06.23.09.35a1.34,1.34,0,0,1,.09-.45,1.06,1.06,0,0,1,.19,1.42c.24,0,.32.18.4.37A29,29,0,0,0,31.81,29.68ZM24,25.4c-.36,0-.74-.4-1.09,0l.29.2a7.31,7.31,0,0,1,2.17,1.9c.32.42.67.81,1,1.2A6.87,6.87,0,0,1,28,31.16a8.62,8.62,0,0,0,.54,1.2A4.37,4.37,0,0,1,29,34.48a2.71,2.71,0,0,0,.15.85A19.06,19.06,0,0,0,30.31,38a4.31,4.31,0,0,0,1.9,2A17.55,17.55,0,0,1,36,42.38c.14-.25,0-.44,0-.63a2.44,2.44,0,0,1-.09-1.22,1,1,0,0,0-.44-1.34,3.35,3.35,0,0,1-.52-.6A16.92,16.92,0,0,1,33,36a27.72,27.72,0,0,1-1.82-4,8.86,8.86,0,0,0-.87-1.81,22,22,0,0,0-1.48-2,7.17,7.17,0,0,0-2.73-2.15l-.24-.11A4,4,0,0,0,24,25.4ZM5.14,22a2.19,2.19,0,0,1,.37,1.29,16,16,0,0,0,.42,2.06c.14.51.28,1,.38,1.54A7.51,7.51,0,0,0,7.05,29c.22.42.42.84.64,1.26a10.59,10.59,0,0,0,2.43,3.31c1.14,1,2.31,2,3.48,3a16.75,16.75,0,0,0,3.81,2.34,20,20,0,0,0,3.18,1c1.16.3,2.33.53,3.5.81a4.54,4.54,0,0,1,1.56.55,2.1,2.1,0,0,0,.49.2,14.27,14.27,0,0,1,5,2.83c.73.63,1.41,1.32,2.12,2,.12.11.2.3.44.25a6.08,6.08,0,0,1,.35-.59.38.38,0,0,0,0-.47,9.92,9.92,0,0,0-1.39-1.7,14,14,0,0,0-4.09-3,37.57,37.57,0,0,0-3.95-1.48A7.21,7.21,0,0,1,23,38.62c-.13-.18-.38-.09-.53-.23a.18.18,0,0,1-.14-.06c-.1-.1-.26-.1-.37-.18a.12.12,0,0,1-.12-.06L21.79,38a.34.34,0,0,0-.22.1,1.84,1.84,0,0,1-.84-.44,5.43,5.43,0,0,1-1.31-.87l-.32-.23a.48.48,0,0,1-.14-.09c0-.07-.09-.17-.06-.22s.15-.07.23,0a1,1,0,0,1,.18.17h0l.16.15h0l.35.2a1.66,1.66,0,0,1-.21-.16s0-.06,0-.06l.05,0a1.56,1.56,0,0,0,.2.16,2.4,2.4,0,0,0,.26.18l.37.21c.25.14.5.27.74.42a3.36,3.36,0,0,1,.68.28,1.74,1.74,0,0,1,.54.15h.07l.07,0c.18.19.5,0,.68.25h0c.18.21.5.06.7.26,1.29.26,2.54.69,3.8,1.05a9.85,9.85,0,0,1,2.43,1A13.21,13.21,0,0,1,34,44l0,0a.41.41,0,0,1,.1.13v0c.12,0,.19,0,.16-.19a1.88,1.88,0,0,1,.48-1.37c.1-.13.32-.18.23-.46a13.86,13.86,0,0,0-2.31-1.16,5.85,5.85,0,0,1-.82-.33,4.37,4.37,0,0,1-2.22-2.39c-.16-.46-.35-.93-.51-1.4a9.29,9.29,0,0,1-.67-2.71A3.94,3.94,0,0,0,28,32.43a3.11,3.11,0,0,1-.3-.64,7.51,7.51,0,0,0-1.91-3.31c-.37-.41-.7-.87-1.1-1.26a11.21,11.21,0,0,0-4.23-2.59,4.6,4.6,0,0,1-1.5-.71,1.88,1.88,0,0,0-.72-.29,8.16,8.16,0,0,1-3.53-1.87,3.16,3.16,0,0,0-2.56-.93,3.7,3.7,0,0,1-1.55-.23,1.43,1.43,0,0,0-.76-.16c-.08.27.08.46.18.67a21,21,0,0,0,3.6,5.17c1.13,1.23,2.39,2.34,3.61,3.47a.44.44,0,0,1,.17.16h0a.42.42,0,0,0,.2.17.2.2,0,0,1,.12.08l.18.15a1.41,1.41,0,0,0,.45.54l.11.08a6,6,0,0,0,.61.35,4.07,4.07,0,0,0,.48.33s0,.05,0,.05a1.56,1.56,0,0,1,.19.14.16.16,0,0,1,.05.15.13.13,0,0,1-.19.06,1.16,1.16,0,0,1-.27-.18,1.59,1.59,0,0,1-.69-.42,4.77,4.77,0,0,1-1.41-.94.69.69,0,0,0,.25,0c-.09-.1-.24-.09-.31-.21h0a.47.47,0,0,0-.2-.17.14.14,0,0,1-.12-.08l-.19-.15a23.07,23.07,0,0,1-5.36-5.26A13.81,13.81,0,0,1,9.1,20.3a1.6,1.6,0,0,0-1,.19,1.25,1.25,0,0,0-.61.72c-.09.21.07.39.13.58.38,1,.77,2.08,1.15,3.13.05.18.16.39-.06.38a2.68,2.68,0,0,1,.07.27.16.16,0,0,1-.07.14.22.22,0,0,1-.16,0,.61.61,0,0,1-.29-.42.23.23,0,0,0,.18-.15,13.22,13.22,0,0,1-1.5-2.89c-.29-.78-.41-.92-1.41-.6A.7.7,0,0,0,5.14,22Zm14.4,9.7s0,0,0,0c-.21-.11-.39-.27-.59-.39l-.27-.14.22.16h0l.67.41Zm1.59,5.86,0,0L21,37.43ZM2,32.17c.55,2,1.2,4,1.93,6a9.54,9.54,0,0,0,6,5.65,21.41,21.41,0,0,1,7.16,3.8,9.07,9.07,0,0,0,8.18,2.23,19.51,19.51,0,0,1,4.25-.66,8.35,8.35,0,0,1,4.16,1.27,17.59,17.59,0,0,0-3.08-1.57c-.67-.3-1.35-.58-2-.83-.29-.11-.62-.19-.73-.57l0,0a1,1,0,0,1-.68-.29,3.29,3.29,0,0,1,1.32.08h.24a17.67,17.67,0,0,1,3.89,1.32,2.07,2.07,0,0,0,1.09.29l.18,0a.09.09,0,0,1,0,.05h.24a.41.41,0,0,1,.21.42v0c-.11.13,0,.21,0,.29a2.63,2.63,0,0,0,1,.7,7.91,7.91,0,0,0,3.26.9.57.57,0,0,1,.16.25,4,4,0,0,1-1.85.09,6.81,6.81,0,0,1-1.53-.36,2,2,0,0,0-.42-.09.21.21,0,0,0-.26.17.27.27,0,0,0,.08.23,4.06,4.06,0,0,0,2.59.9.81.81,0,0,0,.56-.19,1.59,1.59,0,0,1,1.62-.36,1.1,1.1,0,0,1,.58,1.13c0,.12,0,.27-.14.33a.17.17,0,0,0,.11-.11.58.58,0,0,1,0-.18.19.19,0,0,1,0-.07v0h0l.29.05h0a.93.93,0,0,1,.92-.61c.07.08.23.08.35.12a2.43,2.43,0,0,0,.38,0h0a3.1,3.1,0,0,1,.46.93l.09.45a6.42,6.42,0,0,1,.06,1c0,.07,0,.15,0,.23a1.68,1.68,0,0,0,0,.5v.19c0,.13,0,.27,0,.39,0,0,0-.06,0-.1s0-.23,0-.34l0,.15c.17-.18.14-.41.18-.63s.07-.4.28-.51a6.42,6.42,0,0,0-.18,1.22,1.42,1.42,0,0,0,0-.22c.08-.28,0-.61.21-.86a1.69,1.69,0,0,1,1.26-.48,1,1,0,0,1,.64.18,2.25,2.25,0,0,1,.45.76s0,.1,0,.15.11.35.16.53a3.84,3.84,0,0,1,.11.59c0,.17-.06.39.15.52A.3.3,0,0,1,46,57v-.16h0v-.09l0,.12.24.17a.81.81,0,0,1,0,.16l.09,0c.11-.37.2-.73.33-1.09a.61.61,0,0,1,.66-.45,1.28,1.28,0,0,1,1.07.66,3,3,0,0,1,.24.55c.32-.14.6-.29.89-.4a1.16,1.16,0,0,1,1.43.28c.08.09.15.18.29.16.33-.62.34-.64.65-.76a1,1,0,0,1,1.25.21l.19.26s0,.13.07.09l0,0,.29.19a.29.29,0,0,1,0,.16.32.32,0,0,0,.09,0c.13-.45.26-.9.41-1.34a4.7,4.7,0,0,1,.28-.74,1,1,0,0,1,1.8-.14c.11.12.11.34.37.38l.51-1.36a.63.63,0,0,1,.89-.42,1.26,1.26,0,0,1,.73.72,2.62,2.62,0,0,0,.37.88,5.61,5.61,0,0,0,.59-1.3c.1-.24.2-.49.32-.72a.78.78,0,0,1,.73-.4c.3,0,.5.27.81.23a3.39,3.39,0,0,0,.12-.45c.06-.38.11-.76.16-1.14a.62.62,0,0,1,.56-.58,1.35,1.35,0,0,1,.34-.06l.69.09a2.53,2.53,0,0,0,.13-1c-.41.18-.78.35-1.15.5a2.21,2.21,0,0,1-.42.12.2.2,0,0,1-.15-.06.17.17,0,0,1,0-.15c.1-.15.21-.28.32-.42l1.1-1.36a.92.92,0,0,1,.08-.27.42.42,0,0,1-.16.13l.06-.73a.85.85,0,0,0,0-.23h0l-.08.11c0-.07,0-.13,0-.2l0,0a1,1,0,0,1-.05.16,7.64,7.64,0,0,0-.57.83l-.46.57a1.73,1.73,0,0,1-.41.3,1.74,1.74,0,0,1-.77.7c-.08-.1-.29-.11-.33-.22,0,.15.29.24.22.42a1,1,0,0,1-.11.2,1.35,1.35,0,0,0-.52.36c-.09.12-.32,0-.32-.15a3.25,3.25,0,0,1,0-.44.72.72,0,0,0-.23-.78.68.68,0,0,1-.18-.87c.05-.11-.09-.22-.21-.17a.74.74,0,0,0-.22.14c-.17.15-.31.09-.44-.07a.85.85,0,0,1-.14-.66,6,6,0,0,0-.17-1.25.47.47,0,0,0-.49-.42c-.3,0-.41-.19-.49-.42a3.52,3.52,0,0,0-.18-.4,1.19,1.19,0,0,0-.63-.45.49.49,0,0,0-.49.12c-.21.14-.33,0-.43-.14s-.09-.22-.14-.32a1,1,0,0,0-1.08-.7.55.55,0,0,1-.62-.36,1.34,1.34,0,0,0-.59-.63,1,1,0,0,0-.68-.11c-.2,0-.21.26-.3.4h0l-.09.07a.83.83,0,0,1-.23.15l-.07,0c-.11-.09-.22-.19-.34-.27a1.88,1.88,0,0,0-2.29,0,1,1,0,0,1-1,.16,1.06,1.06,0,0,0-1.36.48,1,1,0,0,0-.08.15,2.15,2.15,0,0,0-.23.27.38.38,0,0,1-.11.11h0a3.64,3.64,0,0,1-.35-.24.67.67,0,0,0-.67-.08.79.79,0,0,0-.64.63l0,.07a1.32,1.32,0,0,1-.41.46h-.09a1.21,1.21,0,0,0-.43.07,1.53,1.53,0,0,0-.79.67.78.78,0,0,0-.1.63v0c0,.05,0,.06,0,.06l0,0a1.88,1.88,0,0,0-.43.73c-.44.23-.43.27-.31.82l0,.09a2.36,2.36,0,0,1-.49.89c-.28.11-.35.19-.35.44v0a.57.57,0,0,0,0,.26.92.92,0,0,0,.21.51.92.92,0,0,1-.11.93l-.13.09c-.28.13-.23.37-.18.6a.55.55,0,0,0,.12.27.74.74,0,0,1,0,.26.49.49,0,0,1-.61-.24,1.49,1.49,0,0,1-.15-1.4,1.64,1.64,0,0,0,.08-.72,3.46,3.46,0,0,1-3.65.6,5.63,5.63,0,0,1-1.84-1,5,5,0,0,0-1.34-.8c-1-.83-1.93-1.79-2.91-2.67a19.66,19.66,0,0,0-4.94-3.15,73,73,0,0,0-7.49-2.48,19.08,19.08,0,0,1-5.5-2.9c-1.13-.88-2.23-1.81-3.34-2.72a14.24,14.24,0,0,1-4.22-6.37A18.51,18.51,0,0,1,4.39,24,5.33,5.33,0,0,0,4.28,23c-.54.17-.63.91-1.23.91,0-.26,0-.3-.26-.3.08,0,.14.15.14.36a1.06,1.06,0,0,1-.2.57C1.08,27,1.24,29.51,2,32.17ZM29,54.31a1,1,0,0,0,.66-.17c.29-.2.57-.41.87-.59a7.31,7.31,0,0,1,3.44-1c.08,0,.18,0,.22-.11a.2.2,0,0,0-.07-.23,3.7,3.7,0,0,0-1.3-.88c-.54-.21-1.09-.44-1.65-.61a6.75,6.75,0,0,0-2.77-.36c-1.08.12-2.17.18-3.24.33a11.84,11.84,0,0,1-5.63-.57,7.71,7.71,0,0,1-2.46-1.33A17.75,17.75,0,0,0,14.5,47a10.92,10.92,0,0,0-2.75-1.16,13.72,13.72,0,0,1-3-1.08A13.78,13.78,0,0,1,4.86,41.7a7.75,7.75,0,0,1-2-4.12,4,4,0,0,0-.27-.83c-.17-.43-.36-.85-.54-1.28l0,0a.27.27,0,0,1-.07-.08c-.09,0-.12,0-.1.18a17.5,17.5,0,0,0,.33,4.9A11.67,11.67,0,0,0,4,44.43a6.45,6.45,0,0,0,2,1.94,5.58,5.58,0,0,1,.48.37.31.31,0,0,1-.07.12c-.15.08-.32-.12-.5,0a5.08,5.08,0,0,0,1.37,1.21c.77.49,1.58.91,2.38,1.33.36.19.78.29,1.13.5a6.51,6.51,0,0,0,3,.86c.32,0,.64.06,1,.06a12.51,12.51,0,0,0,2.37,0,3.2,3.2,0,0,1,.87-.07A11.82,11.82,0,0,1,22.53,52c1.07.55,2.18,1,3.28,1.51A10.87,10.87,0,0,0,29,54.31ZM39.32,76.76c-.11,0-.2.08-.31.11-1,.34-1.95-.25-2.93-.37A6.81,6.81,0,0,1,34,75.83a7.44,7.44,0,0,0-5.4-.43,5.57,5.57,0,0,1-6.21-2.9,7.76,7.76,0,0,1-.79-2.14c-.39-1.86-1.79-2.83-3.33-3.62a2.45,2.45,0,0,0-2,.09,4.41,4.41,0,0,1-4-.39,3.9,3.9,0,0,1-1.59-2,14.16,14.16,0,0,1-1.2-4.49A3.38,3.38,0,0,0,7,56.76a2.87,2.87,0,0,1-1.62-4.33,3.13,3.13,0,0,0-1.14,3.09A12.29,12.29,0,0,1,4,59.71,8.62,8.62,0,0,0,6.14,67C7,68,7.9,69,8.83,70a8.86,8.86,0,0,0,5.23,2.83,28.84,28.84,0,0,1,6,1.73c.35.13,1.12.24.33.89-.15.12.12.22.22.29a17.74,17.74,0,0,0,10.82,3.84A10.06,10.06,0,0,0,34.33,79l.29,0,0,0a.41.41,0,0,1-.16,0c-.26,0-.53.08-.79.1-1-.1-2.08,0-3.11-.16A2.78,2.78,0,0,1,29,78.36a.27.27,0,0,1-.07-.24,4,4,0,0,1-.65-.26c-.16,0-.2-.12-.12-.24s.11,0,.14,0a4,4,0,0,1,1,.18c1.57-.17,3.15,0,4.73-.06a13,13,0,0,0,4.9-.86h0l0,0C39.12,76.84,39.25,76.87,39.32,76.76ZM44.79,72a7,7,0,0,0,1.37-1.82A17.74,17.74,0,0,0,48,64a2.07,2.07,0,0,0,0-.43c0-.94,0-1.87.05-2.81l0-.11a.79.79,0,0,0,0-.22l-.09.21a.47.47,0,0,1-.11-.55.1.1,0,0,0,.05,0,15.38,15.38,0,0,1-.2-2.45,3.33,3.33,0,0,0-.11-.77.29.29,0,0,0-.18-.18.26.26,0,0,0-.21.11,3.46,3.46,0,0,0-.21,2.88,1,1,0,0,1,0,.84c-.22,0-.29-.18-.38-.31a2.17,2.17,0,0,0-.31-.53A3.58,3.58,0,0,1,45.42,58c-.21-.7-.4-1.41-.6-2.11-.09-.32-.2-.38-.5-.29s-.45.22-.42.57a3.26,3.26,0,0,0,.71,2c.08.08.2.19.19.28,0,.55.34.91.58,1.38a1.72,1.72,0,0,0-.79.81,11.74,11.74,0,0,1-3.35,3.42,19.74,19.74,0,0,1-2.34,1.39,19.88,19.88,0,0,1-4.39,1.77c-.12.08-.27,0-.39.1a.14.14,0,0,1-.14,0,.62.62,0,0,1-.38,0,2.57,2.57,0,0,1-.78.06c-.19,0-.41.07-.59,0h0a.45.45,0,0,1-.16-.15c.2-.2.47-.14.71-.18a1.79,1.79,0,0,1,.76-.12.47.47,0,0,0,.08.14c.12-.07.28,0,.38-.12a31.08,31.08,0,0,0,5.62-2.89,17,17,0,0,0,3.5-2.77,13,13,0,0,0,1.31-1.65c.12-.18.08-.31-.12-.43a1.67,1.67,0,0,0-.23-.12,4.27,4.27,0,0,1-2.34-4.19,2.23,2.23,0,0,0-.15-1,.16.16,0,0,0-.28,0,1.6,1.6,0,0,0-.35,1,4.92,4.92,0,0,0,.63,2.78c.12.21.25.4.36.61a.17.17,0,0,1-.08.22c-.08,0-.16.06-.22-.05a.48.48,0,0,0-.22-.12c-.05,0-.09,0-.1,0a6,6,0,0,1-2,1.84A12.91,12.91,0,0,1,34.93,62a32,32,0,0,1-3.37.57,3.09,3.09,0,0,1-1,0h0a.82.82,0,0,1-.94-.12h0a.48.48,0,0,1-.4-.11c-.06-.07-.06-.09,0-.12a.53.53,0,0,1,.41,0l.49,0h0a.63.63,0,0,1,.58-.06q2.44-.49,4.84-1.18a13.87,13.87,0,0,0,4.33-2,4.5,4.5,0,0,0,1.12-1.14,2.27,2.27,0,0,1-.49-1c-.28-.86-.62-1.69-.93-2.54-.13-.32-.19-.67-.29-1s-.19-.34-.43-.32a.35.35,0,0,0-.37.31,4.28,4.28,0,0,0,.57,2.94c.15.23.32.45.49.67v0c.4.15.37.15.35.44a.75.75,0,0,1-.45.67,14.19,14.19,0,0,1-3.16,1.41l-.2.07-.15.05a3.66,3.66,0,0,1-1,.29l-.28.06-.21.05a.79.79,0,0,1-.3,0h-.06l-.24,0-.08,0-.12,0,0,0a3.31,3.31,0,0,1-.67,0,1.86,1.86,0,0,1,.81-.28l.55-.1h0l1.29-.38a27.65,27.65,0,0,0,3.11-1.48l.3-.17c.19-.08.15-.18.1-.28a.58.58,0,0,0-.49.08,9.66,9.66,0,0,1-4.22,1.28,35,35,0,0,1-3.83.16A5.68,5.68,0,0,1,29,58.73c0-.14-.26-.07-.34-.14h-.08c-.42-.06-.72-.24-.61-.34s.43-.08.65,0a.3.3,0,0,0,.07.15v0c.3,0,.59,0,.88,0A33.23,33.23,0,0,0,33.69,58a24.69,24.69,0,0,0,3.2-.59,4.17,4.17,0,0,0,1.57-.72,1.05,1.05,0,0,0-.91-1,1.46,1.46,0,0,1-.72-.41,5.51,5.51,0,0,0-.76-.59c-.29-.21-.38-.59-.67-.85a2.23,2.23,0,0,1-1,.26,8.1,8.1,0,0,0-4.11,1.38,1.43,1.43,0,0,0,.21.12c.17.08.2.17.11.27s0,.1,0,.21a3.7,3.7,0,0,1-1.35.62,16.56,16.56,0,0,1-3.3.42A4.8,4.8,0,0,1,24.2,57a11.13,11.13,0,0,1-1.73-.63,7.76,7.76,0,0,0-2.78-.74c-.44,0-.88-.1-1.31-.16a6.28,6.28,0,0,1-.86-.19,10.61,10.61,0,0,0-4.08-.3c-.7.07-1.39.19-2.09.29a10.39,10.39,0,0,1-2,0A2.86,2.86,0,0,1,8.23,55a6.83,6.83,0,0,1-1.85-1.15c-.33,0-.33.14-.28.37.08.89.36,1.24,1.15,1.41a7.57,7.57,0,0,1,1,.22c.86.35,1.74.66,2.61,1a38.11,38.11,0,0,0,7.37,1.87c1,.17,2,.14,3,.22l.13,0-.21-.09a.9.9,0,0,1,.55-.13h0c.11,0,.21-.08.32-.1s.27,0,.29.1-.14.22-.29.23l-.19,0,0,0a.49.49,0,0,0-.28.19c-.38.06-.75.15-1.13.19a21,21,0,0,1-5.59-.45,18.14,18.14,0,0,1-4.23-1.47c-.14,0-.22,0-.25.05a.19.19,0,0,0,0,.08.37.37,0,0,0,.07.19,6.15,6.15,0,0,1,.37.78.71.71,0,0,0,.46.49c.17,0,.32.13.49.19a26.71,26.71,0,0,0,4.84,1.18,2,2,0,0,1,.92.2h0a.85.85,0,0,1-.09-.14l2.61.31c.08,0,.16-.09.24-.08a25.77,25.77,0,0,0,2.78.17h.53s.08-.08.13-.09.25,0,.29.1-.09.2-.21.21a1,1,0,0,1-.24,0h-.32a3.47,3.47,0,0,1-1.66.11,1.26,1.26,0,0,1-.64,0c-.28.18-.57,0-.86,0a5.62,5.62,0,0,1-1.16-.1,1.05,1.05,0,0,0-.24.06,1.47,1.47,0,0,1-.78,0c-.7-.05-1.38-.26-2.07-.36a18.39,18.39,0,0,1-3.66-.94l-.94-.33c-.06.06-.1.08-.1.1a7.16,7.16,0,0,0,.68,2.8c.13.26.24.54.35.81A4.74,4.74,0,0,0,14,65.49a2.13,2.13,0,0,0,2,.3,5.55,5.55,0,0,0,.56-.24,2.92,2.92,0,0,1,2.94,0c.86.5,1.69,1.06,2.52,1.6a1.77,1.77,0,0,1,.52.6,8.12,8.12,0,0,1,1.14,2.46A4.78,4.78,0,0,0,24.47,72a4.59,4.59,0,0,0,2.5,1.7,2.84,2.84,0,0,0,1.39.07,4.84,4.84,0,0,1,1.31-.15,11.86,11.86,0,0,1,5,1.08,6.58,6.58,0,0,0,.72.32,5.08,5.08,0,0,0,.75.25c.81.14,1.62.24,2.44.37a1.69,1.69,0,0,0,.94-.13,18.4,18.4,0,0,1,2.13-.83,3.74,3.74,0,0,0,1.86-1.25A11.52,11.52,0,0,1,44.79,72ZM18.57,60.91a1.12,1.12,0,0,0-.55-.14ZM34.07,60l.11,0h0Zm.52-.1h0a1.61,1.61,0,0,0,.37-.07l-.33,0h0Zm1.48-.4.07,0h0ZM52.68,82.88a8.28,8.28,0,0,0,3.93-.7c2-.87,4-1.74,5.92-2.7a.4.4,0,0,1,.18-.1h0a.15.15,0,0,1,.2-.1.08.08,0,0,1,0,0c.24,0,.28.06.2.27l0,0a.18.18,0,0,1,.11,0,.14.14,0,0,1-.16.14.14.14,0,0,1,0-.07l0,0a.23.23,0,0,1-.16.14,16.67,16.67,0,0,1-2.24,1.78c-.59.38-1.16.79-1.74,1.19h0l.17.22a1.18,1.18,0,0,1-.3.1h.12a14,14,0,0,1,3.48.31,8.46,8.46,0,0,0,3.47.19,5.3,5.3,0,0,0,2-.7,31.44,31.44,0,0,0,7.08-6,9,9,0,0,0,1.41-2.1c.45.34.09.71,0,1.06a10.3,10.3,0,0,1-1.71,3c-.52.7-1.1,1.36-1.66,2,.06,0,.12.07.16.06a4.79,4.79,0,0,0,2.72-1.13c.24-.21.52-.39.77-.59a7,7,0,0,0,2.53-3.19,4.67,4.67,0,0,1,.26-.56,16.57,16.57,0,0,0,.94-2.36,4.8,4.8,0,0,0,.28-1.29,18.82,18.82,0,0,0-.32-4.37,10.75,10.75,0,0,1-.14-1.14,7.39,7.39,0,0,1,.26-2.52c.06-.2-.08-.26-.22-.29a1,1,0,0,0-.35,0,1.34,1.34,0,0,0-.88.52,1.11,1.11,0,0,1-1.22.49,2.31,2.31,0,0,0-1.28.22,3.12,3.12,0,0,0-1.75,1.65c-.29.64-.55,1.29-.83,1.94a6.31,6.31,0,0,1-2,2.74,14.28,14.28,0,0,0-2.65,2.56,8.88,8.88,0,0,1-2.72,2.19,3.05,3.05,0,0,1-1.23.45.93.93,0,0,1-.32,0c-.09,0-.17,0-.19-.11s.11-.28.29-.29a8,8,0,0,0,1.32-1c.42-.41.86-.8,1.28-1.21a5.8,5.8,0,0,0,1.24-1.36c-.59-.11-1.1-.23-1.61-.37a2,2,0,0,0-1.37.07,6.16,6.16,0,0,1-1.77.5,2.44,2.44,0,0,0-1.18.53c-.41.33-.82.67-1.26,1a8.71,8.71,0,0,0-2.26,2.31,8,8,0,0,1-1.59,1.75c-.93.76-1.87,1.5-2.83,2.23A4,4,0,0,1,53.4,81c-.46.1-.92.2-1.38.27A1.8,1.8,0,0,1,50.6,81a.33.33,0,0,1-.08-.52c.16-.22.08-.29-.11-.38s-.63-.31-1-.42a4.61,4.61,0,0,1-2.71-2.48,6.2,6.2,0,0,1-.62-3.42,6.59,6.59,0,0,0,0-.67c-.11.09-.17.11-.19.16a10.25,10.25,0,0,0-.87,4,4.14,4.14,0,0,0,.06.7,4.62,4.62,0,0,0,3.1,3.92A15.52,15.52,0,0,0,52.68,82.88Zm14.06,38.94,0,0h0S66.74,121.81,66.74,121.82Zm.25-.08a1.24,1.24,0,0,0,.2-.1h-.07a.19.19,0,0,1,.1-.1c0-.1,0-.15-.21-.12a.14.14,0,0,0-.11,0h0c-.08,0-.14.08-.23.09a.15.15,0,0,0-.14,0,1,1,0,0,1-.24.09h-.06s0,0-.06,0h0l-.23.1a4,4,0,0,0-.48.19,13.58,13.58,0,0,0-3.21,2.43,5.11,5.11,0,0,1-1.61,1.19,2.78,2.78,0,0,0-.53.3.18.18,0,0,0-.05.16.16.16,0,0,0,.12.09l1.49.06a14.62,14.62,0,0,1,2.94.45c1.16.28,2.31.66,3.44,1,.81.27,1.59.59,2.38.89.16.11.29.16.36,0l-.23-.13a1.09,1.09,0,0,0,.26,0c0-.55.09-.68.49-.78a5,5,0,0,1,.86-.13c1.23-.08,2.46,0,3.68-.2a16.56,16.56,0,0,0,3.69-.75c.13,0,.29-.07.31-.3a5.65,5.65,0,0,0-2.07-.53s-.15-.1-.18-.17a.56.56,0,0,1,.28-.73c.35-.23.71-.43,1-.68a9.89,9.89,0,0,1,2.57-1.5l.22-.1a.25.25,0,0,0,.14,0c0-.12,0-.18,0-.21h0c-.07,0-.19,0-.29,0a.26.26,0,0,0-.15,0c-.11.09-.27,0-.39.1-.56.18-1.11.34-1.67.53a48.2,48.2,0,0,1-5.51,1.73,8.87,8.87,0,0,1-2.52.23c-1.19-.09-2.39-.13-3.58-.21a12.26,12.26,0,0,1-2.39-.51.47.47,0,0,1-.27-.7,1.66,1.66,0,0,1,.16-.21l1.09-1.13a.36.36,0,0,0,.16-.11h0a.17.17,0,0,1,.18-.13s0,0,0,0l.09-.06h-.06a.19.19,0,0,1,.21-.13.2.2,0,0,1,.23-.12.18.18,0,0,1-.09.1A.13.13,0,0,0,67,121.74Zm-6.34-10.13,0,0-.09-.12h-.07l-.73.47-.24.11A35.44,35.44,0,0,1,57,114.83a5.87,5.87,0,0,1-.46.41l-2.61,1.84a2.88,2.88,0,0,0-.27.34h0a.7.7,0,0,1-.19.15h0a.72.72,0,0,1-.19.14h0c-.16.14-.39.15-.53.32a.23.23,0,0,0-.2.15.28.28,0,0,0-.2.15.46.46,0,0,0-.22.14h0a1.28,1.28,0,0,0-.21.14h0l-.2.15h0l-.19.15h0a1.3,1.3,0,0,1-.2.15h0l-.2.15h0c-.06.06-.13.1-.19.17h0a.43.43,0,0,0-.2.2,25.11,25.11,0,0,0-3.14,4.11A13.83,13.83,0,0,0,46,127.3a13.92,13.92,0,0,1-1.18,3,12.22,12.22,0,0,0-.69,1.71,2.33,2.33,0,0,0-.12.69l1.06-1a9.93,9.93,0,0,1,3.13-2.24,30.35,30.35,0,0,1,4.17-1.37A39.8,39.8,0,0,0,56.51,127a11.6,11.6,0,0,1,1.85-.55,2.93,2.93,0,0,0,1.34-.61c.62-.5,1.24-1,1.82-1.53a21.58,21.58,0,0,1,2-1.81,10.54,10.54,0,0,1,3.76-1.87,28.91,28.91,0,0,1,4.33-.69,14.49,14.49,0,0,0,3.86-.74.56.56,0,0,0,0-.13h0a.33.33,0,0,0-.21-.21l-.32,0c-.38,0-.76,0-1.13.11a16.59,16.59,0,0,1-3.59.22c-.67,0-1.34,0-2,0a16,16,0,0,0-2.77.44,19.09,19.09,0,0,0-6,2.26c-.37.23-.73.49-1.1.72a43.79,43.79,0,0,1-5.58,3,6.67,6.67,0,0,1-1.86.51,1.34,1.34,0,0,1-1-.19c-.3-.2-.34-.38-.16-.72.07-.12.12-.26.19-.39.63-1.19,1.11-2.45,1.8-3.61a8.53,8.53,0,0,1,1.66-2,23.1,23.1,0,0,1,2.44-1.86,9,9,0,0,0,2-1.6,31.89,31.89,0,0,0,2.82-3.92A.24.24,0,0,0,60.65,111.61Zm-22.8,29.93a6.57,6.57,0,0,0,2.06-2.47c.58-1,1.06-2,1.55-3a7.64,7.64,0,0,1,1.5-2.25,1.31,1.31,0,0,0,.38-.86,8.38,8.38,0,0,1,.89-3.1,7.64,7.64,0,0,0,.45-1.24,15.47,15.47,0,0,1,1.56-4A26.06,26.06,0,0,1,49.57,120a1.46,1.46,0,0,1,.59-.51.6.6,0,0,0,.28-.24.43.43,0,0,1-.31.11.9.9,0,0,1,.48-.44.79.79,0,0,1-.09.23.58.58,0,0,1,.12-.1h0l.19-.15h0a1,1,0,0,1,.19-.15h0a.7.7,0,0,1,.19-.15h0a.9.9,0,0,1,.19-.15h0c.08-.11.27-.05.33-.18a.22.22,0,0,0,.2-.15.26.26,0,0,0,.21-.14.6.6,0,0,0,.21-.14h0l.2-.15h0a1.56,1.56,0,0,1,.2-.16h0a1.33,1.33,0,0,1,.19-.14h0c.08-.1.27,0,.33-.18a.18.18,0,0,0,.2-.15v0h.08a.41.41,0,0,0-.11-.12.18.18,0,0,1-.2.16c0,.17-.18.19-.33.18a.38.38,0,0,1,.32-.2.24.24,0,0,1,.21-.15h0a10,10,0,0,1,1.57-1.25,17.7,17.7,0,0,0,2.39-1.93,5.74,5.74,0,0,0,.41-.45,12.65,12.65,0,0,1,1.48-1.62h0a.17.17,0,0,1,.17-.16.38.38,0,0,1,0,.15l0,0,0,0,0,0a.26.26,0,0,0,.17-.14l0,0a.27.27,0,0,0,.18-.13l0,0a.22.22,0,0,0,.17-.14l0,0a.23.23,0,0,0,.17-.13l0,0a.23.23,0,0,0,.16-.13l0,0a.32.32,0,0,0,0-.14l0,0a.22.22,0,0,0-.1-.11l-.17.06h0a1.48,1.48,0,0,1-.21.13h0a.29.29,0,0,1-.22.13h0c0,.1-.09.16-.2.14h0c0,.16-.24.08-.31.2h0a.63.63,0,0,0-.2.13c-.24.07-.37.27-.54.43a22.17,22.17,0,0,1-3.93,3.1,17.35,17.35,0,0,0-3.29,2.63c-.45.46-.94.89-1.41,1.32a4.57,4.57,0,0,1-.49.38.3.3,0,0,1-.49-.17,1.45,1.45,0,0,1,.17-1.1,4.23,4.23,0,0,0,.58-1.83,2.07,2.07,0,0,1,.1-.43,2.52,2.52,0,0,0,0-1.56c-.25-.81-.5-1.63-.78-2.43a13.44,13.44,0,0,1-.74-2.8.12.12,0,0,0-.2,0c0,.11-.08.22-.1.33a4.77,4.77,0,0,0,.24,2.25,6.07,6.07,0,0,1,.12,3.38,12.78,12.78,0,0,1-.64,2.19,23,23,0,0,0-1.07,2.68c-.32.92-.55,1.85-.8,2.78a10.76,10.76,0,0,1-2.83,5.18,6.35,6.35,0,0,0-.63.73c-.42.56-.82,1.14-1.23,1.71A7.92,7.92,0,0,0,40,132.22a20.3,20.3,0,0,0-1.12,4.69,11.45,11.45,0,0,1-.45,2.23c-.22.7-.46,1.4-.7,2.1l.14.17-.1.12A.28.28,0,0,0,37.85,141.54Zm27.05,2.05,1.25.16a.56.56,0,0,0,.47-.08v0l-1.32-.74a.6.6,0,0,1-.46.07l-.22-.07a2.49,2.49,0,0,0-.54-.2l-.22-.08a2.27,2.27,0,0,0-.73-.16,15.19,15.19,0,0,1-8.35-4.19,23.24,23.24,0,0,0-2.85-2.48c-1.81-1.29-3.92-1.57-6-1.86-1.75-.23-2.63.64-3.38,2A47.79,47.79,0,0,1,40,140.27a15,15,0,0,1-2,2.2,22.16,22.16,0,0,1,6.31,1.34,15.24,15.24,0,0,0,3.92.53,9.66,9.66,0,0,1,6.25,2.42,37.72,37.72,0,0,0,6,4.46,15.38,15.38,0,0,0,2,.88l.3.13-.06,0,.72.06a6.59,6.59,0,0,1-2.15-2.18,8.13,8.13,0,0,0-2.76-2.65A11.86,11.86,0,0,1,55,143.94a8.17,8.17,0,0,0-3.58-2.76,8.25,8.25,0,0,1-2.27-1.51,1.85,1.85,0,0,1-.52-2.08c.23-.62.93-.9,1.86-.9a5,5,0,0,1,3.57,1.87,15.73,15.73,0,0,0,10,4.82,3.14,3.14,0,0,1,.69.15A.47.47,0,0,0,64.9,143.59Zm-1.58-1.81.07,0a.84.84,0,0,0,.2.08.35.35,0,0,1-.07-.09Zm1.52.56.14.07.22.12a.39.39,0,0,1-.15-.18Zm.72.24a.61.61,0,0,1-.36-.05l.15.1a.13.13,0,0,1,0,.08A.32.32,0,0,0,65.56,142.58Zm1.33,1.58a2,2,0,0,1,.25.13l0,0h0l-.38-.18Zm1.56.14c0-.06,0-.05-.07-.08v0H68.3Zm3.06-8.79a12.1,12.1,0,0,0-2.06-1,13.23,13.23,0,0,1-5.57-3.87,7.92,7.92,0,0,0-6.64-2.81,8,8,0,0,0-1.63.34,43,43,0,0,0-6.74,2,9.2,9.2,0,0,0-3.55,2.49.84.84,0,0,0,.77.23A11,11,0,0,1,53.91,136a27.29,27.29,0,0,0,5.44,4.17c1,.51,2,.79,3,1.24l.15.12a1.78,1.78,0,0,1,1,.31,1.35,1.35,0,0,1,.89.28h-.13l0,0,.29.14a.36.36,0,0,1-.07-.1.61.61,0,0,1,.51.21.56.56,0,0,1,.51.24h0a5.35,5.35,0,0,1,1.71.92h-.15l.07,0,.25.16.15.11a1.7,1.7,0,0,0,.22.15l.16.1.17.08A.25.25,0,0,1,68,144h0a.35.35,0,0,1-.33-.22.32.32,0,0,1-.33-.2.38.38,0,0,1,.34.2l.21.05-.06-.07c-1.61-2.21-3.88-3.2-6.48-3.83a12.86,12.86,0,0,1-8.47-6.36,9.09,9.09,0,0,0-.8-1.05c-.41-.54-.19-1.1.44-1a11.85,11.85,0,0,0,5.19-.57,3.68,3.68,0,0,1,1.9.2,13.64,13.64,0,0,1,6,3.25,4.93,4.93,0,0,1,.68.69,27.1,27.1,0,0,0,3.17,3.52c.08.06.13.16.24.18-.06-.05-.11-.11-.18-.16a.82.82,0,0,1-.18-.54,3.79,3.79,0,0,0,0-.58.7.7,0,0,1,0-.25,1.68,1.68,0,0,1,.07-.24,3.66,3.66,0,0,1-.32-1.36.62.62,0,0,1,.08-.12l-.52-.86c.15,0,.25-.06.32,0a4.26,4.26,0,0,1,1.43,1.1.22.22,0,0,1,.21.18.22.22,0,0,1-.21-.18.65.65,0,0,0-.2,0h0a1,1,0,0,1,.17.1l.16.12.14.14.06.07.12.14.06.07.24.17.18.12.06,0a.24.24,0,0,1-.1-.14.17.17,0,0,1,.17.17l-.06,0,.21.16a3.61,3.61,0,0,1,.52.59,3.78,3.78,0,0,0,3.64,1.95C74.29,138.18,73.26,136.48,71.51,135.51Zm17.26-5.07a8.29,8.29,0,0,0-4,0c-.68.19-1.38.32-2,.53a12,12,0,0,1-3.31.37,2.78,2.78,0,0,1-1-.15,6.24,6.24,0,0,0-1-.2L76,130.75a1.87,1.87,0,0,0-.42-.11,6.1,6.1,0,0,1-2.31-.5c-2.28-.74-4.48-1.71-6.77-2.45a21,21,0,0,0-4.18-1,12.36,12.36,0,0,0-2.72.06.2.2,0,0,0-.19.16c0,.15.17.09.27.11a9.47,9.47,0,0,1,3.88,2c.49.42,1,.86,1.41,1.33a13,13,0,0,0,2.58,2.1,10.62,10.62,0,0,0,3,1.39c.07,0,.13,0,.16,0h0l.05,0a.25.25,0,0,0,0-.16A2.15,2.15,0,0,0,70,133c-1.1-.49-1.95-1.41-3.09-1.83-.19-.07-.25-.39-.15-.62s.22-.15.37-.15a7.25,7.25,0,0,1,2.81.61,5.44,5.44,0,0,0,3.33.54,2.53,2.53,0,0,1,1.38.14c.63.24,1.27.44,1.91.66a8.91,8.91,0,0,0,2.37.62,11.12,11.12,0,0,0,3.14-.33c2.25-.56,4.42-1.37,6.64-2C88.73,130.58,88.74,130.51,88.77,130.44ZM76.54,75.22c0,.2,0,.39-.06.59a2.07,2.07,0,0,0,.31-1.21.11.11,0,0,0-.1-.12c-.09,0-.17,0-.2.1a1,1,0,0,0,0,.17A.52.52,0,0,1,76.54,75.22ZM94,23.15c0,.28-.08.57-.11.85a2.51,2.51,0,0,0,.33-1.2A.46.46,0,0,0,94,23.15ZM63.56,79.23a.22.22,0,0,0,0-.16c0-.1-.13-.09-.2-.07a.5.5,0,0,0-.34.22l.2.27A.51.51,0,0,0,63.56,79.23ZM33.91,66.85a.35.35,0,0,0-.38.12A.29.29,0,0,0,33.91,66.85Zm45-27.15a.16.16,0,0,0-.17.14l.2,0c.07,0,.12,0,.09-.1A.19.19,0,0,0,78.87,39.7ZM60.16,10.87a.35.35,0,0,0-.09-.41A.32.32,0,0,0,60.16,10.87ZM51.73,118.09a.19.19,0,0,0,.2-.15.22.22,0,0,0,.21-.14.22.22,0,0,0,.21-.13h0l.2-.15h0l.2-.15h0l.2-.15a.19.19,0,0,0-.2.15,4072265288060.9,4072265288060.9,0,0,0-.4.3.22.22,0,0,0-.22.12.2.2,0,0,0-.2.14.22.22,0,0,0-.2.15.37.37,0,0,0-.33.19C51.55,118.28,51.68,118.25,51.73,118.09Zm8.75-7.4a.16.16,0,0,0-.17.13A.15.15,0,0,0,60.48,110.69Zm2.84-68.3a.2.2,0,0,0,.15-.21A.2.2,0,0,0,63.32,42.39Zm-3,68.45a.16.16,0,0,0-.17.13A.15.15,0,0,0,60.28,110.84Zm-.39.31a.16.16,0,0,0-.17.13A.15.15,0,0,0,59.89,111.15Zm-.2.15a.17.17,0,0,0-.17.14A.16.16,0,0,0,59.69,111.3ZM71.15,43.14l-.17.14A.16.16,0,0,0,71.15,43.14Zm-20,75.28.2-.15A.19.19,0,0,0,51.2,118.42Zm-.19.15.19-.15A.19.19,0,0,0,51,118.57Zm-.2.15.19-.14A.18.18,0,0,0,50.81,118.72Zm31,3.75a.16.16,0,0,0-.22.1A.17.17,0,0,0,81.78,122.47Zm-31.17-3.59.19-.15A.18.18,0,0,0,50.61,118.88ZM39.75,9.53a.17.17,0,0,0,.11.2.15.15,0,0,0-.11-.2.19.19,0,0,0-.13-.22A.19.19,0,0,0,39.75,9.53ZM70.8,136.16a.19.19,0,0,0,.18.17c0,.17.12.23.27.26a.36.36,0,0,0-.26-.27.19.19,0,0,0-.19-.16c0-.1-.06-.16-.16-.16A.18.18,0,0,0,70.8,136.16ZM60.08,111a.16.16,0,0,0-.17.13A.15.15,0,0,0,60.08,111ZM15.33,89a.37.37,0,0,0,.28.27C15.6,89.1,15.49,89,15.33,89Zm9,3.79a.16.16,0,0,0,.1.21A.16.16,0,0,0,24.29,92.8ZM22.74,38.64c-.11-.23-.32-.24-.54-.23A.6.6,0,0,0,22.74,38.64Zm-.67-.29a.32.32,0,0,0-.37-.18A.36.36,0,0,0,22.07,38.35Zm-4.86-7.88a.3.3,0,0,0-.32-.22A.38.38,0,0,0,17.21,30.47ZM16.56,30a.2.2,0,0,0-.19-.16C16.4,30,16.45,30,16.56,30Zm.32.24a.22.22,0,0,0-.21-.17A.2.2,0,0,0,16.88,30.25ZM44.41,2.94A3.13,3.13,0,0,1,46,4.14a19.51,19.51,0,0,1,3.73,6.63,58,58,0,0,1,1.67,6.47c.26,1.33.5,2.65.74,4a.39.39,0,0,0,.07.42h0a.11.11,0,0,0,0,.12,6.32,6.32,0,0,0,.16,1.62,4.18,4.18,0,0,0,.07,1.06c0,.36,0,.72,0,1.08a.82.82,0,0,0,.06.73,1.61,1.61,0,0,0,0,.31s.07.06.11.07.05,0,.05-.05a3.11,3.11,0,0,0,0-.32h0c0-.36.2-.73,0-1.1h0a3.14,3.14,0,0,0,0-1.26h0a1.91,1.91,0,0,0,0-1.06h0a4.65,4.65,0,0,0-.15-1.62h0v-.31a.41.41,0,0,0-.07-.41h0a4.64,4.64,0,0,0,0-.53,63.67,63.67,0,0,0-1.46-7.5,20.72,20.72,0,0,0-4-8A8.27,8.27,0,0,0,45.2,2.79a1.6,1.6,0,0,0-.9-.33c-.08,0-.19,0-.19.1a.37.37,0,0,0,.09.23A.51.51,0,0,0,44.41,2.94Zm3.28,1.37a7.14,7.14,0,0,0,1,1.59,1,1,0,0,0,.06.16,56.9,56.9,0,0,1,3.12,6.19L52.66,14h0l1,3.14A5.59,5.59,0,0,0,54,18.49h0l0,.3h0l.08.71c0,.54.09,1.08.13,1.63a.88.88,0,0,0,0,.17c0,.09.06.17.16.15s.06-.13.05-.21l0-.09a4.15,4.15,0,0,0-.09-1.82,1.1,1.1,0,0,0-.11-.71V18.3a4.92,4.92,0,0,0-.28-1.36h0a14,14,0,0,0-1-3.15h0a39.26,39.26,0,0,0-3.09-6.68,7.08,7.08,0,0,0-.91-1.39,6.83,6.83,0,0,0-1.05-1.55A1.48,1.48,0,0,0,47.74,4s-.1-.08-.13-.07a.15.15,0,0,0-.06.22A.9.9,0,0,0,47.69,4.31Zm0,56.7a.34.34,0,0,0-.21-.36c-.19,0-.23.13-.26.27s0,.18,0,.26a9.6,9.6,0,0,1-2.67,4.95A37.76,37.76,0,0,1,41,69.27c-.6.47-1.25.87-1.87,1.3a.16.16,0,0,0-.19.12.2.2,0,0,0-.22.12.39.39,0,0,0-.35.17h0l-1.12.38a1.25,1.25,0,0,0-.54.12.79.79,0,0,0-.64.24,1,1,0,0,0,.84,0,1,1,0,0,0,.68-.12h0a2.42,2.42,0,0,0,1.14-.38h0a.12.12,0,0,0,.14,0,.18.18,0,0,0,.21-.1.36.36,0,0,0,.34-.16h0a.19.19,0,0,0,.23-.12,3.42,3.42,0,0,0,.4-.17,22.2,22.2,0,0,0,4.37-3.22,10.43,10.43,0,0,0,2.8-4.09A7.64,7.64,0,0,0,47.73,61Zm-12,3c.1,0,.18-.09.28-.07l.26,0a.18.18,0,0,0,.21-.09h0a.19.19,0,0,0,.15,0,.2.2,0,0,0,.23-.09h0c.29-.13.59-.24.88-.39a23.88,23.88,0,0,0,3-1.91,8,8,0,0,0,1.79-1.8,1.31,1.31,0,0,0,.33-.7.34.34,0,0,0-.19-.36.24.24,0,0,0-.3.12,5.57,5.57,0,0,1-1.05,1.17,37.34,37.34,0,0,1-4.87,3.6.35.35,0,0,0-.35.16h0a2,2,0,0,0-.93.36A.62.62,0,0,0,35.7,64Zm1.41,4.52h0a2.28,2.28,0,0,0,1-.41,1.56,1.56,0,0,0,.77-.43h0a11.42,11.42,0,0,0,2.07-1.3,20.28,20.28,0,0,0,3.61-3.19,9.06,9.06,0,0,0,1.67-2.76c.06-.15.07-.29-.07-.39s-.27,0-.34.15l-.62,1.06a14.31,14.31,0,0,1-2.59,3C41.34,65.4,40,66.4,38.63,67.44a2.25,2.25,0,0,0-.76.45l-.94.43c-.25.06-.53.07-.68.33-.06.1.21.1.79-.06C37.06,68.58,37.08,68.55,37.11,68.54Zm36.2,6.83a4.38,4.38,0,0,0-.8.81,2.51,2.51,0,0,0-.63.63c-.16,0-.32.12-.33.32s.17.08.44-.15c.05,0,.07-.08.11-.12h0a1.5,1.5,0,0,0,.58-.45,5,5,0,0,0,.8-.8,6.65,6.65,0,0,0,1.26-1.44,10.14,10.14,0,0,0,1.53-2.11,1.44,1.44,0,0,0,.26-.91.17.17,0,0,0-.11-.11s-.13,0-.15,0c-.24.42-.46.87-.72,1.29s-.67,1-1,1.53A13.5,13.5,0,0,0,73.31,75.37ZM71,76.72h0a5.11,5.11,0,0,0,.81-.8,2.12,2.12,0,0,0,.59-.64h0a11.08,11.08,0,0,0,2.25-3.21,9.26,9.26,0,0,0,.44-1.78c0-.08-.1-.19-.15-.16a.31.31,0,0,0-.12.1,2.27,2.27,0,0,0-.06.25,7.25,7.25,0,0,1-1,2.42c-.49.72-1,1.42-1.53,2.13h0a2.7,2.7,0,0,0-.6.66h0a4.38,4.38,0,0,0-.8.81,8.94,8.94,0,0,0-1,.91l.06.07A2.45,2.45,0,0,0,71,76.72Zm-1.14.76-.06-.07c-.06,0-.16.06-.1.13S69.86,77.54,69.9,77.48Zm8.83-16.7a.49.49,0,0,0,0-.12l-.13,0ZM53.91,52.65a4,4,0,0,1,.26.63c.09.5.37.67.89.63a2.29,2.29,0,0,0,1.15-.39c.13,0,.21-.1.17-.22s-.17-.1-.28-.06l-.07,0h-.49c-.16-.11-.42,0-.51-.25a3.08,3.08,0,0,0,1.21-1c.21-.29.38-.51.75-.22.07,0,.24,0,.33,0a3.06,3.06,0,0,0,.52-.33c.11-.09.26-.2.21-.36s-.23-.07-.36-.06A.77.77,0,0,1,57.1,51a.39.39,0,0,0-.55,0,4.49,4.49,0,0,1-2.46,1.24C53.89,52.26,53.83,52.45,53.91,52.65ZM45,50.87a.83.83,0,0,0,1.11,0,.62.62,0,0,0,.13-.18.21.21,0,0,0-.09-.25,1.87,1.87,0,0,1-1.07-1.39c0-.15-.32-.2-.44-.09a.68.68,0,0,0-.27.61A1.94,1.94,0,0,0,45,50.87ZM48,51.8a2.38,2.38,0,0,0,.34,0,1,1,0,0,0,.89-.6.25.25,0,0,0,0-.17c0-.09-.11-.11-.2-.08a1.93,1.93,0,0,1-.34.11c-.78.11-1.23-.31-1.21-1.14,0-.09,0-.19-.1-.2a.39.39,0,0,0-.23.09C46.69,50.41,47.09,51.79,48,51.8Zm3,.71a.16.16,0,0,0-.14.08.39.39,0,0,0,0,.24c.23.31.6.34.86.45a2.06,2.06,0,0,0,1.86-.88c.07-.09.13-.22,0-.32s-.16,0-.23,0A4.36,4.36,0,0,1,51,52.51Zm-5.73-4.87c.09,0,.22-.06.33-.09s.33-.06.28.18a1.4,1.4,0,0,0,0,.61,1.29,1.29,0,0,0,.9,1c.48.14.8-.14,1.12-.54-1.36.2-1.6-.49-1.47-1.51l-.94,0a2,2,0,0,1-.52-.7c-.11-.3-.16-.56.2-.73a.15.15,0,0,0,.07-.22.43.43,0,0,0-.22-.12c-.45-.1-.81.33-.79.82A1.57,1.57,0,0,0,45.26,47.64Zm-1.94,2.41a.39.39,0,0,0,.16.07.29.29,0,0,0,.32-.06.2.2,0,0,0,0-.3,1.72,1.72,0,0,1-.27-.64c-.07-.29-.13-.56.17-.79.13-.1,0-.35-.19-.4a.56.56,0,0,0-.63.36A1.54,1.54,0,0,0,43.32,50.05Zm5.82-4.75c-.13.14-.13.32-.17.58a1.19,1.19,0,0,0,.56,1.18.67.67,0,0,0,1-.19.18.18,0,0,0,0-.16.15.15,0,0,0-.13-.07c-.35.13-.52-.1-.72-.33a1,1,0,0,1-.16-.9.18.18,0,0,0-.12-.2A.29.29,0,0,0,49.14,45.3Zm-1.51,2a1,1,0,0,0,1-.48c-.1-.11-.19-.07-.27-.06A1.18,1.18,0,0,1,47,46.06a.92.92,0,0,1-.09-.59c0-.12,0-.23-.15-.24s-.18.11-.23.21a1.16,1.16,0,0,0,0,.93A1.33,1.33,0,0,0,47.63,47.28Zm4.24,6.42-.08,0c-.08,0-.2,0-.23,0a.26.26,0,0,0,0,.24,1.55,1.55,0,0,0,1.49.51,1,1,0,0,0,.64-.43.55.55,0,0,0,.07-.6A2,2,0,0,1,51.87,53.7Zm-1.1.56a4,4,0,0,0-.45.25.91.91,0,0,1-.83.12c-.13,0-.28-.07-.38.08s0,.32.15.45a.92.92,0,0,0,1.06.13,1.56,1.56,0,0,0,.72-.82.39.39,0,0,0,0-.17A.17.17,0,0,0,50.77,54.26Zm-1.25-4.6a.89.89,0,0,0,.9-.42.14.14,0,0,0,.11-.19c0-.11-.12-.09-.2,0l-.19.16h0a1,1,0,0,1-1-.52,1.65,1.65,0,0,1-.2-.75s-.08-.11-.11-.1-.19,0-.22.09a1.16,1.16,0,0,0,0,1A1.33,1.33,0,0,0,49.52,49.66Zm-4.93,2.21a.14.14,0,0,0,.06-.21.2.2,0,0,0-.15-.07l-1.64.14s0,0-.08,0a.25.25,0,0,0-.13.36.56.56,0,0,0,.47.31,1.11,1.11,0,0,0,.36-.06C43.85,52.23,44.22,52.05,44.59,51.87Zm8.73-4.7a.33.33,0,0,0,.23.07.56.56,0,0,0,.2-.14s0-.08,0-.09a4.49,4.49,0,0,1-.6-1.53c0-.08-.08-.17-.18-.15a.38.38,0,0,0-.22.11.5.5,0,0,0-.13.31A1.85,1.85,0,0,0,53.32,47.17Zm1.48-.48a.61.61,0,0,0,.8,0,1.38,1.38,0,0,0,.57-.89s0-.15,0-.21-.15,0-.21.06a3,3,0,0,1-.31.31c-.33.27-.43.28-.84,0l-.14-.1a.09.09,0,0,0-.15,0s-.06.11,0,.16A.91.91,0,0,0,54.8,46.69Zm.92.85c0,.05,0,.14,0,.16a.92.92,0,0,1,.33.94.43.43,0,0,0-.16.4.25.25,0,0,0-.06.16.6.6,0,0,0-.24.34c-.11.07-.08.13,0,.17a.2.2,0,0,0,.22-.09h0l.18-.17h0a.21.21,0,0,0,.19-.18,1.63,1.63,0,0,0,.4-.86.74.74,0,0,0-.7-1C55.84,47.42,55.74,47.42,55.72,47.54ZM54,50.3a1.93,1.93,0,0,0,.66-1.95c0-.06-.12-.12-.19-.15s-.16.07-.16.15a3.42,3.42,0,0,1-.72,1.9A.28.28,0,0,0,54,50.3ZM51.74,49a1.58,1.58,0,0,1-.52-.57.17.17,0,0,0-.19-.13.29.29,0,0,0-.23.23.51.51,0,0,0,.05.42,1.3,1.3,0,0,0,.47.49.56.56,0,0,0,.84-.09.19.19,0,0,0,.15-.18c0-.11-.07-.16-.16-.06A.74.74,0,0,1,51.74,49Zm-.55-3c-.14,0-.18.13-.2.25a.33.33,0,0,0,0,.17,1.34,1.34,0,0,0,1,.93.32.32,0,0,0,.31-.14c.1-.14,0-.19-.11-.24a1.7,1.7,0,0,1-.82-.85A.27.27,0,0,0,51.19,46Zm-.54-.8a1.16,1.16,0,0,0,.84-.57.42.42,0,0,0,.21-.43c0-.05,0-.12-.07-.13a.16.16,0,0,0-.15,0,2.75,2.75,0,0,0-.19.28,2.12,2.12,0,0,1-1.55.17C50,45.09,50.21,45.27,50.65,45.17Zm-4.86,6.88a.35.35,0,0,0,.16.37,1.92,1.92,0,0,0,.92.12.37.37,0,0,0,.34-.28l-1.12-.33A.27.27,0,0,0,45.79,52.05Zm2.28-7.71a.53.53,0,0,0,.33,0,7.3,7.3,0,0,0,.68-.36l.31-.13a.22.22,0,0,0,.09-.13s-.07-.08-.11-.09a.5.5,0,0,0-.48.1h0c-.25.05-.51.09-.76.15a.51.51,0,0,0-.15.07.22.22,0,0,0-.13.2A.25.25,0,0,0,48.07,44.34Zm4,7.1a.3.3,0,0,0,.3-.12.86.86,0,0,0,.19-.55,1,1,0,0,0,0-.27.27.27,0,0,0-.19-.13c-.08,0-.15.05-.18.14s0,.47-.13.67S51.85,51.38,52,51.44Zm-2.2,2,.37-.14c.16,0,.3-.08.27-.25s-.18-.11-.29-.09l-.32.11-.42.11h0l-1.63.28c-.13,0-.3,0-.34.2s.15.35.39.39a1.34,1.34,0,0,0,.6-.06,4.69,4.69,0,0,0,1.37-.55Zm-4.34-.17s-.09.06-.13.09h0c-.59-.08-1.21.19-1.78-.18-.11-.07-.27.14-.23.27A.65.65,0,0,0,44,54a3.89,3.89,0,0,0,1.5-.4c.17,0,.36-.06.32-.25S45.62,53.23,45.48,53.26ZM6.69,24.83c.15.44.3.89.49,1.32a15.58,15.58,0,0,0,5.18,6.2,5.28,5.28,0,0,0,1.44,1.08,6.17,6.17,0,0,0,1.83,1.09.22.22,0,0,0,.13.08h0a1.46,1.46,0,0,0,.66.4c.09,0,.22.09.26-.1a1.85,1.85,0,0,0-.71-.46h0l-.3-.12h0l-1.49-1a14.13,14.13,0,0,0-1.44-1.11,4.21,4.21,0,0,0-.36-.37,32.09,32.09,0,0,1-2.73-2.74A14.31,14.31,0,0,1,7.08,24.7c-.07-.19-.14-.38-.22-.57A.19.19,0,0,0,6.72,24a.15.15,0,0,0-.13.18A3.88,3.88,0,0,0,6.69,24.83Z"/></g></g></g></g></svg>