<svg xmlns="http://www.w3.org/2000/svg" xmlns:xlink="http://www.w3.org/1999/xlink" width="1019.196" height="260.368" viewBox="0 0 1019.196 260.368">
  <defs>
    <linearGradient id="linear-gradient" x1="4.027" y1="12.68" x2="3.572" y2="14.29" gradientUnits="objectBoundingBox">
      <stop offset="0" stop-color="#095d09"/>
      <stop offset="0.105" stop-color="#116c07"/>
      <stop offset="0.333" stop-color="#1f8904"/>
      <stop offset="0.56" stop-color="#2a9e01"/>
      <stop offset="0.784" stop-color="#30aa00"/>
      <stop offset="1" stop-color="#33af00"/>
    </linearGradient>
    <linearGradient id="linear-gradient-2" x1="-1.89" y1="9.118" x2="-2.37" y2="10.624" xlink:href="#linear-gradient"/>
    <linearGradient id="linear-gradient-3" x1="3.917" y1="4.585" x2="0.943" y2="5.125" xlink:href="#linear-gradient"/>
    <linearGradient id="linear-gradient-4" x1="-9.94" y1="2.591" x2="-11.392" y2="3.106" xlink:href="#linear-gradient"/>
    <linearGradient id="linear-gradient-5" x1="6.531" y1="3.01" x2="5.922" y2="4.162" xlink:href="#linear-gradient"/>
    <linearGradient id="linear-gradient-6" x1="0.749" y1="-0.007" x2="0.001" y2="0.945" xlink:href="#linear-gradient"/>
  </defs>
  <g id="Agrinia_Logo_Vertical" data-name="Agrinia Logo_Vertical" transform="translate(136.72 -308.735)">
    <g id="Agrinia-Vertical_No_Tag_Line" data-name="Agrinia-Vertical_No Tag Line">
      <g id="Agrinia_Letters" data-name="Agrinia Letters">
        <path id="Registrated_Logo" data-name="Registrated Logo" d="M870.569,391.384a11.632,11.632,0,1,0,11.907,11.634A11.773,11.773,0,0,0,870.569,391.384Zm0,21.747a10.132,10.132,0,1,1,10.4-10.124A10.269,10.269,0,0,1,870.569,413.131Zm5.381-4.666a.326.326,0,0,1-.04.166.323.323,0,0,1-.191.113,2.1,2.1,0,0,1-.442.063c-.2.012-.459.018-.794.018q-.423,0-.673-.018a1.692,1.692,0,0,1-.4-.067.433.433,0,0,1-.206-.126.665.665,0,0,1-.1-.185l-1.166-2.6q-.211-.441-.412-.784a2.568,2.568,0,0,0-.447-.571,1.672,1.672,0,0,0-.568-.347,2.166,2.166,0,0,0-.743-.117h-.824v4.438a.234.234,0,0,1-.066.163.463.463,0,0,1-.216.117,2.311,2.311,0,0,1-.4.072,7.62,7.62,0,0,1-1.282,0,2.361,2.361,0,0,1-.407-.072.43.43,0,0,1-.21-.117.243.243,0,0,1-.061-.163V397.868a.68.68,0,0,1,.226-.571.878.878,0,0,1,.558-.176h3.366c.341,0,.623.006.844.018s.422.027.6.045a5.946,5.946,0,0,1,1.413.343,3.428,3.428,0,0,1,1.065.634,2.658,2.658,0,0,1,.668.927,3.082,3.082,0,0,1,.231,1.229,3.277,3.277,0,0,1-.166,1.067,2.637,2.637,0,0,1-.488.859,3.057,3.057,0,0,1-.794.658,4.515,4.515,0,0,1-1.074.45,3.042,3.042,0,0,1,.547.306,2.728,2.728,0,0,1,.482.437,4.091,4.091,0,0,1,.428.585,7.36,7.36,0,0,1,.392.743l1.095,2.3c.1.229.167.395.2.5A.9.9,0,0,1,875.95,408.465Zm-3.406-7.9a1.448,1.448,0,0,0-1.246-1.53,3.859,3.859,0,0,0-.457-.072c-.171-.018-.407-.028-.709-.028h-1.185v3.3h1.346a3.575,3.575,0,0,0,.985-.122,2.041,2.041,0,0,0,.7-.342,1.416,1.416,0,0,0,.422-.527A1.615,1.615,0,0,0,872.544,400.56Z"/>
        <path id="a" d="M859.843,470.308V435.974c.023-5.454-.607-9.5-5.078-13.076-4-3-12-4-19-4l-43.694-.105c-13.55,0-20.221,3.61-19.983,13.263v4.655l11.042.005a22.354,22.354,0,0,1,.681-7.732c.769-2.324,4.566-5.164,13.067-5.164,9.33,0,12.4-.473,22.571.565a13.121,13.121,0,0,1,3.761.9c5.84,2.464,6.217,7.885,6.141,10.267-.011.354-.009.7,0,1.056.019,1.566.058,5.091.058,5.091l-39.526.319c-7.027.243-14.712,1.219-19.35,3.8a10.3,10.3,0,0,0-4.888,5.993,14.339,14.339,0,0,0-.938,4.46l.016,18.562c-.459,17.434,31.859,13.125,37.425,13.731h28.534c9.421-.18,17.421-1.085,22.491-3.634.38-.191.735-.408,1.1-.618C858.776,481.7,859.843,479.231,859.843,470.308Zm-64.819-2.242v-8.909c.083-7.474,7.4-11.189,21.053-11.189l13.328-.05v21.121c-.4,7.91-4.73,11.035-14.662,11.549h-1.248C801.623,480.29,795.024,477.14,795.024,468.066Z"/>
        <g id="i-2">
          <path id="i" d="M749.861,418.6v-.035c-20.462-.022-27.324,3.883-27.922,13.767,0,0-.039,53.7-.039,56.005a88.346,88.346,0,0,0,14.733-.9c1.2-.232,2.332-.491,3.4-.786a31.4,31.4,0,0,0,4.694-1.384c1.508-.727,7.27-2.208,7.19-12.563.008-52.944.008-54.139.008-54.154C751.205,418.552,750.52,418.568,749.861,418.6Z"/>
          <path id="Leaf-2" d="M722.551,412.042c-.414-4.1-.424-12.335,3.957-16.3a12.028,12.028,0,0,1,3.992-2.248c8.1-2.943,21.5-1.609,21.5-1.609s1.415,8.268-1.2,14.552a11.848,11.848,0,0,1-2.919,4.285c-5.678,5.144-17.172,3.638-20.41,3.289a28.6,28.6,0,0,1,4.082-5.292,27.778,27.778,0,0,1,2.664-2.663c4.356-3.79,8.878-7.621,8.975-7.766-.73.333-8.119,2.825-13.756,6.878C726.481,407.129,724.632,409.836,722.551,412.042Z" fill="#00a000"/>
        </g>
        <path id="n" d="M709.966,433.214c-.092-12.066-12.034-14.066-26.064-14.453l-70.659.011v69.794h1.594c12.534-.467,23.335-1.284,26.856-8.632a14.293,14.293,0,0,0,1.466-6.442l-.023-49.2s9.608-.02,18.557-.012c2.93,0,7.09.2,9.838,1.127,7.873,2.661,8.179,8.759,8.38,14.451q-.009.429-.026.861c.1,5.8-.035,47.853-.035,47.853l6.435.006c13.045.028,23.651-3.222,23.688-12.309Z"/>
        <g id="i-1">
          <path id="i-2-2" data-name="i" d="M599.282,418.569v-.035c-20.463-.022-27.325,3.883-27.923,13.768,0,0-.039,53.7-.039,56a88.346,88.346,0,0,0,14.733-.9c1.2-.232,2.332-.491,3.4-.786a31.369,31.369,0,0,0,4.694-1.384c1.509-.727,7.27-2.208,7.191-12.563.007-52.944.007-54.139.007-54.154C600.625,418.521,599.94,418.537,599.282,418.569Z"/>
          <path id="Leaf-2-2" data-name="Leaf-2" d="M570.974,412.042c-.414-4.1-.424-12.335,3.957-16.3a12.027,12.027,0,0,1,3.992-2.248c8.1-2.943,21.5-1.609,21.5-1.609s1.415,8.268-1.2,14.552a11.848,11.848,0,0,1-2.919,4.285c-5.678,5.144-17.172,3.638-20.41,3.289a28.6,28.6,0,0,1,4.082-5.292,27.785,27.785,0,0,1,2.664-2.663c4.356-3.79,8.878-7.621,8.975-7.766-.73.333-8.119,2.825-13.756,6.878C574.9,407.129,573.055,409.836,570.974,412.042Z" fill="#00a000"/>
        </g>
        <path id="r" d="M559.673,436.744l-.033-3.264a25.956,25.956,0,0,0-.215-3.321c-1.135-8.154-5.751-11.395-18.31-11.351h-33.7c-7.446.087-14.775-.91-20.468,2.192-4.557,2.483-6.072,7.308-5.734,14.922,0,0-.041,51.812-.041,52.512a117.834,117.834,0,0,0,13.437-.762c.543-.075,1.061-.157,1.562-.243v0c4.085-.633,10.76-2.32,13.167-5.362,2.409-2.983,2.165-6.535,2.17-14.176,0,0,.027-29.108-.009-29.7a15.579,15.579,0,0,1,2.568-8.685c.548-.84,1.948-2.322,5.347-3.665,4.268-1.615,9.351-1.469,16.928-1.3a15.714,15.714,0,0,1,6,1.461c7.755,3.655,6.178,10.754,6.178,10.754C549.21,436.783,559.673,436.744,559.673,436.744Z"/>
        <g id="g">
          <path id="g-2" data-name="g" d="M468.246,516.3c-.038-7.933-8.662-14.79-19.926-15.406-.015,0-3.392-.423-5.125-.422-.328,0-26.412.035-38.677-.1a15.638,15.638,0,0,1-4.084-.4c-8.571-3.144-6.062-12.014,5.445-11.731,18.75.1,40.537.233,40.537.233,6.433,0,14.183-.045,18.485-3.391,4.231-3.274,3.885-8.912,4.032-12.165.2-8.563.2-54.162.2-54.162l-74.665-.1c-7.4.178-11.422-.262-15.771,2.279a11.4,11.4,0,0,0-4.373,4.6,17.388,17.388,0,0,0-1.675,8.946l.164,34.534c-.179,4.671-.164,12.046,3.444,15.222,4.843,3.977,10.712,3.8,12.165,3.927-4.266,1.885-8.287,9.645-1.075,15.551-14,3.445-12.258,15.168-12.18,23.8.019,4.035,3.417,18.6,23.076,18.714,13.728.094,37.217.381,51.882.168l-.83-.005c14.436-1.013,19.032-10.7,18.864-14.637C468.289,523.33,468.292,525.954,468.246,516.3ZM429.3,482.238a23.363,23.363,0,0,1-5.484.511l-6.439-.092c-7.923-.057-14.409-3.634-14.387-14.664l-.143-29.073c.121-11.439,6.126-15.21,16.508-15.017l6.043.009c10.207.4,13.943,5.655,13.861,12.813l.044,31.506C438.987,477.546,435.207,480.9,429.3,482.238Zm16.961,45.219c-7.748,0-37.021-.051-49.222-.051-8.619,0-12.866-4.376-12.866-10.384,0-2.965,3.012-10.071,12.792-10.071a34.007,34.007,0,0,0,5.9.6c9.072.027,29.783.048,43.58.048,6.409,0,12.21,5.312,12.21,10.463C458.647,522.8,455.85,527.457,446.257,527.457Z"/>
          <path id="Leaf" d="M449.048,412.042c-.414-4.1-.423-12.335,3.957-16.3A12.043,12.043,0,0,1,457,393.49c8.1-2.943,21.5-1.609,21.5-1.609s1.416,8.268-1.2,14.552a11.847,11.847,0,0,1-2.919,4.285c-5.678,5.144-17.173,3.638-20.411,3.289a28.648,28.648,0,0,1,4.082-5.292,27.68,27.68,0,0,1,2.665-2.663c4.355-3.79,8.878-7.621,8.974-7.766-.729.333-8.119,2.825-13.756,6.878C452.979,407.129,451.129,409.836,449.048,412.042Z" fill="#00a000"/>
        </g>
        <g id="A-2" data-name="A">
          <path id="A-3" data-name="A" d="M296.843,334.741c7.427,18.623,47.154,127.04,56.816,141.194.624,1.1,1.284,2.181,2,3.228a35.522,35.522,0,0,0,4.907,6.143,19.667,19.667,0,0,0,2.983,2.311.24.24,0,0,1-.107.447c-4.849.283-15.078,1.326-24.971-.425-9.677-1.712-16.322-8.154-21.661-16.765a29.7,29.7,0,0,1-2.181-4.271h0c-2.4-5.783-12.2-29.408-14.178-34.169-1.745,0-41.995.121-50.108.121-2.452,5.969-15.161,36.893-19.511,47.439a8.754,8.754,0,0,1-.36.829c-1.468,3.682-5.864,6.668-9.508,7.353a68.019,68.019,0,0,1-11.631.528.179.179,0,0,1-.1-.329,28.739,28.739,0,0,0,6.677-7.2v0a45.745,45.745,0,0,0,3.215-6.523c5.549-13.941,21.153-52.187,21.153-52.187H298.02l-23.108-65.3s-5.975,14.806-6.642,16.407c-2.908-4.863-5.89-10.8-5.89-10.8l2.536-6.886c.92-2.693,2.234-6.246,3.87-9.807,2.263-4.32,4.543-7.74,9.884-11.036a23.988,23.988,0,0,1,5.651-2.376,31.243,31.243,0,0,1,7.116-1.3A5.441,5.441,0,0,1,296.843,334.741Z"/>
          <path id="Leaf-2-3" data-name="Leaf" d="M197.524,361.641c.205.711,11.147-1.743,12.295-2.031,3.955-.993,7.814-2.408,11.773-3.4a29.129,29.129,0,0,1,8.708-.761c11.921.678,22.351,8.118,27.7,18.793.725,1.449,1.451,3.031,2.191,4.782.847,2,3.316,8.253,4.1,10.28,2.007,5.16,1.671,4.353,4.729,11.861-24.1-32.706-52.849-31.1-52.81-31.079,9.051,3.922,31.879,11.168,54.657,42.64-10.229-6.676-17.689-.684-28.771-.668-6.122.009-13.686-.3-19.128-3.952-3.981-2.67-10.762-7.737-16.258-21.982S197.524,361.641,197.524,361.641Z" fill="#00a000"/>
        </g>
      </g>
      <g id="Logo" transform="translate(-539 283.549)">
        <g id="Logo-2" data-name="Logo">
          <g id="_3_0" data-name="3,0">
            <path id="Path_28" data-name="Path 28" d="M463.723,213c9.531,3.327,17.185,9.972,24.188,15.182,9.856,7.331,18.589,18.067,28.112,26.864a20.705,20.705,0,0,0,11.9,4.672c5.622.074,10.8.266,16.273.231a.72.72,0,0,1,.7.547c.225.959.306,1.638.5,2.529a.759.759,0,0,1-.762.907,204.306,204.306,0,0,1-31.706-3.3c-3.337-.584-8.721-1.838-11.976-2.775-15.005-4.316-33.179-11.114-47.612-20.62C453.837,233.83,458.172,224.879,463.723,213Z" fill-rule="evenodd" fill="url(#linear-gradient)"/>
            <path id="Path_29" data-name="Path 29" d="M520.1,267.828c-18.51-2.4-46.88-10.314-67.9-24.506-.2-.137-4.779,9.182-4.6,19.128.443,6.934,2.569,11.7,9.888,17.156a22.491,22.491,0,0,0,3.633,2.241,46.912,46.912,0,0,0,9.779,3.289c10.341,1.511,21.421-.971,36.334-9.214l.042-.025Z" fill-rule="evenodd" fill="url(#linear-gradient-2)"/>
            <path id="Path_30" data-name="Path 30" d="M462.2,284.435c-33.636-10.288-20.266-38.694-9.571-61.321,6.194-13.1,12.148-24.267,13.51-43.6,1.254-17.881-1.388-36.311-3.643-42.332-10.895,2.366-25.562,9.961-37.691,21.859a75.107,75.107,0,0,0-22.455,56.77c.808,18.611,6.585,30.176,18.879,44.214-21.423-32.135-1.232-82.38,25.177-98.684-18.889,23.725-35.711,70.994-16.768,105.619C436.672,273.489,452.526,283.163,462.2,284.435Z" fill="#00b400" fill-rule="evenodd"/>
          </g>
          <g id="_2_90" data-name="2,90">
            <path id="Path_31" data-name="Path 31" d="M612.392,221.655c-1.939-9.907-.066-19.869.895-28.544,1.354-12.209,6.213-25.167,9-37.829a20.715,20.715,0,0,0-1.976-12.634c-2.775-4.89-5.223-9.457-8.016-14.163a.721.721,0,0,1,.12-.88c.714-.678,1.259-1.091,1.931-1.706a.76.76,0,0,1,1.168.2,204.25,204.25,0,0,1,13.154,29.038c1.181,3.175,2.816,8.456,3.651,11.739,3.848,15.131,7.155,34.251,6.235,51.509C635.365,219.673,625.449,220.449,612.392,221.655Z" fill-rule="evenodd" fill="url(#linear-gradient-3)"/>
            <path id="Path_32" data-name="Path 32" d="M631.262,145.309c7.272,17.19,14.763,45.675,13.123,70.984-.016.245,10.338-.51,18.831-5.688,5.762-3.883,8.8-8.125,9.819-17.2a22.467,22.467,0,0,0,.1-4.268,46.965,46.965,0,0,0-2.1-10.1c-3.916-9.689-11.652-18-26.3-26.713l-.043-.024Z" fill-rule="evenodd" fill="url(#linear-gradient-4)"/>
            <path id="Path_33" data-name="Path 33" d="M674.827,186.907c8.1,34.23-23.171,37.027-48.1,39.217-14.432,1.265-27.08,1.764-44.461,10.351-16.069,7.944-30.644,19.528-34.7,24.514,7.543,8.21,21.5,17.038,37.9,21.5a75.107,75.107,0,0,0,60.341-9.273c15.658-10.093,22.724-20.918,28.636-38.617-18.684,33.966-70.491,42.65-97.9,28.083,30.015,4.329,79.311-5.012,99.639-38.843C678.264,214.469,678.613,195.9,674.827,186.907Z" fill="#00b400" fill-rule="evenodd"/>
          </g>
          <g id="_1_-125" data-name="1,-125">
            <path id="Path_34" data-name="Path 34" d="M546.607,87.521c-7.544,6.708-17.074,10.161-25.033,13.744-11.2,5.042-24.83,7.447-37.15,11.486a20.715,20.715,0,0,0-9.874,8.125c-2.8,4.876-5.487,9.306-8.12,14.105a.721.721,0,0,1-.818.344c-.947-.271-1.579-.53-2.451-.8a.759.759,0,0,1-.422-1.107,204.362,204.362,0,0,1,18.314-26.092c2.134-2.631,5.85-6.724,8.252-9.112,11.072-11.008,25.855-23.577,41.183-31.56C533.219,68.748,538.929,76.891,546.607,87.521Z" fill-rule="evenodd" fill="url(#linear-gradient-5)"/>
            <path id="Path_35" data-name="Path 35" d="M471.273,110.094c11.1-15,31.823-35.937,54.45-47.394.218-.111-5.7-8.643-14.474-13.323-6.273-2.987-11.472-3.45-19.8.29a22.392,22.392,0,0,0-3.726,2.083,46.952,46.952,0,0,0-7.632,6.942c-6.352,8.3-9.576,19.186-9.631,36.227v.048Z" fill-rule="evenodd" fill="url(#linear-gradient-6)"/>
            <path id="Path_36" data-name="Path 36" d="M484.94,51.428C510.3,27.05,528.6,52.553,543.168,72.908c8.427,11.783,15.289,22.421,31.52,33.021,15.011,9.8,32.4,16.457,38.755,17.417,3.234-10.669,3.737-27.178-.755-43.564A75.108,75.108,0,0,0,574.02,32.539c-16.653-8.35-29.567-8.931-47.813-5.022,39.474-.819,72.568,39.011,73.96,70.016-11.535-28.046-44.644-65.744-84.111-66.045C506.925,34.454,490.759,43.6,484.94,51.428Z" fill="#00b400" fill-rule="evenodd"/>
          </g>
        </g>
        <g id="A-4" data-name="A">
          <path id="Left_Part" data-name="Left Part" d="M514.123,180.407c-.009.022-12.412,28.33-12.412,28.33S508.068,216,517.6,213.9a12.135,12.135,0,0,0,8.32-5.422c1.385-2.344,6.033-13.683,8.439-19.4.507-1.2,1.068-2.184,2.4-2.182l13.274-.038s-2.242-6.077-2.365-6.446C547.015,180.408,526.139,180.43,514.123,180.407Z"/>
          <path id="Right_Part" data-name="Right Part" d="M529.545,140.893c1.143-2.433,7.958-15.81,22.852-10.607,6.438,3.005,8.06,8.271,9.211,10.667,1,2.59,26.358,69.178,26.358,69.178a24.257,24.257,0,0,1-7.885,5.3,13.448,13.448,0,0,1-12.965-1.89,19.571,19.571,0,0,1-6.343-7.922c-1.907-4.212-21.441-55.219-22.871-58.729A8.56,8.56,0,0,0,529.545,140.893Z"/>
          <path id="Leaf-3" data-name="Leaf" d="M498.105,147.029c.119.367,5.764-1.091,6.355-1.26,2.039-.582,4.02-1.381,6.061-1.962,4.824-1.373,10.834-1.305,14.861,2.262a26.407,26.407,0,0,1,5.891,8.663c.473,1.025,1.861,4.233,2.3,5.273,1.129,2.648.941,2.234,2.654,6.084-13.067-16.592-28.812-15.535-28.792-15.527,4.768,1.887,16.546,6.173,28.9,22.146-6.088-3.059-8.481-.417-14.239-.224-3.181.106-7.116.07-10-1.735-2.113-1.321-5.721-3.841-8.814-11.151S498.105,147.029,498.105,147.029Z" fill="#00a000"/>
        </g>
      </g>
    </g>
  </g>
</svg>
