<svg width="17" height="17" viewBox="0 0 17 17" fill="none" xmlns="http://www.w3.org/2000/svg">
<path d="M8.75977 1.78367C10.8802 1.78367 11.1694 1.78367 12.0369 1.78367C12.808 1.78367 13.1935 1.97645 13.4827 2.07283C13.8682 2.2656 14.1574 2.36199 14.4465 2.65114C14.7357 2.9403 14.9284 3.22946 15.0248 3.615C15.1212 3.90416 15.2176 4.2897 15.314 5.06078C15.314 5.92825 15.314 6.12102 15.314 8.33789C15.314 10.5548 15.314 10.7475 15.314 11.615C15.314 12.3861 15.1212 12.7716 15.0248 13.0608C14.8321 13.4463 14.7357 13.7355 14.4465 14.0246C14.1574 14.3138 13.8682 14.5066 13.4827 14.603C13.1935 14.6993 12.808 14.7957 12.0369 14.8921C11.1694 14.8921 10.9766 14.8921 8.75977 14.8921C6.5429 14.8921 6.35013 14.8921 5.48266 14.8921C4.71157 14.8921 4.32603 14.6993 4.03688 14.603C3.65133 14.4102 3.36218 14.3138 3.07302 14.0246C2.78386 13.7355 2.59109 13.4463 2.49471 13.0608C2.39832 12.7716 2.30193 12.3861 2.20555 11.615C2.20555 10.7475 2.20555 10.5548 2.20555 8.33789C2.20555 6.12102 2.20555 5.92825 2.20555 5.06078C2.20555 4.2897 2.39832 3.90416 2.49471 3.615C2.68748 3.22946 2.78386 2.9403 3.07302 2.65114C3.36218 2.36199 3.65133 2.16922 4.03688 2.07283C4.32603 1.97645 4.71157 1.88006 5.48266 1.78367C6.35013 1.78367 6.63928 1.78367 8.75977 1.78367ZM8.75977 0.337891C6.5429 0.337891 6.35013 0.337891 5.48266 0.337891C4.61519 0.337891 4.03688 0.530662 3.55495 0.723433C3.07302 0.916204 2.59109 1.20536 2.10916 1.68729C1.62724 2.16922 1.43447 2.55476 1.14531 3.13307C0.952537 3.615 0.856151 4.19331 0.759766 5.06078C0.759766 5.92825 0.759766 6.21741 0.759766 8.33789C0.759766 10.5548 0.759766 10.7475 0.759766 11.615C0.759766 12.4825 0.952537 13.0608 1.14531 13.5427C1.33808 14.0246 1.62724 14.5066 2.10916 14.9885C2.59109 15.4704 2.97663 15.6632 3.55495 15.9524C4.03688 16.1451 4.61519 16.2415 5.48266 16.3379C6.35013 16.3379 6.63928 16.3379 8.75977 16.3379C10.8802 16.3379 11.1694 16.3379 12.0369 16.3379C12.9043 16.3379 13.4827 16.1451 13.9646 15.9524C14.4465 15.7596 14.9284 15.4704 15.4104 14.9885C15.8923 14.5066 16.0851 14.121 16.3742 13.5427C16.567 13.0608 16.6634 12.4825 16.7598 11.615C16.7598 10.7475 16.7598 10.4584 16.7598 8.33789C16.7598 6.21741 16.7598 5.92825 16.7598 5.06078C16.7598 4.19331 16.567 3.615 16.3742 3.13307C16.1815 2.65114 15.8923 2.16922 15.4104 1.68729C14.9284 1.20536 14.5429 1.01259 13.9646 0.723433C13.4827 0.530662 12.9043 0.434276 12.0369 0.337891C11.1694 0.337891 10.9766 0.337891 8.75977 0.337891Z" fill="white"/>
<path d="M8.75977 4.19331C6.44651 4.19331 4.61519 6.02464 4.61519 8.33789C4.61519 10.6511 6.44651 12.4825 8.75977 12.4825C11.073 12.4825 12.9043 10.6511 12.9043 8.33789C12.9043 6.02464 11.073 4.19331 8.75977 4.19331ZM8.75977 11.0367C7.31398 11.0367 6.06097 9.88006 6.06097 8.33789C6.06097 6.89211 7.2176 5.6391 8.75977 5.6391C10.2056 5.6391 11.4586 6.79572 11.4586 8.33789C11.4586 9.78368 10.2056 11.0367 8.75977 11.0367Z" fill="white"/>
<path d="M13.0007 5.06078C13.5331 5.06078 13.9646 4.62925 13.9646 4.09693C13.9646 3.5646 13.5331 3.13307 13.0007 3.13307C12.4684 3.13307 12.0369 3.5646 12.0369 4.09693C12.0369 4.62925 12.4684 5.06078 13.0007 5.06078Z" fill="white"/>
</svg>
