<svg width="17" height="17" viewBox="0 0 17 17" fill="none" xmlns="http://www.w3.org/2000/svg">
<path d="M4.09219 16.2793H0.692184V5.5793H4.09219V16.2793ZM2.39219 4.0793C1.29219 4.0793 0.492188 3.2793 0.492188 2.1793C0.492188 1.0793 1.39219 0.279297 2.39219 0.279297C3.49219 0.279297 4.29219 1.0793 4.29219 2.1793C4.29219 3.2793 3.49219 4.0793 2.39219 4.0793ZM16.4922 16.2793H13.0922V10.4793C13.0922 8.7793 12.3922 8.2793 11.3922 8.2793C10.3922 8.2793 9.39218 9.0793 9.39218 10.5793V16.2793H5.99219V5.5793H9.19218V7.0793C9.49218 6.3793 10.6922 5.2793 12.3922 5.2793C14.2922 5.2793 16.2922 6.3793 16.2922 9.6793V16.2793H16.4922Z" fill="white"/>
</svg>
