<svg width="17" height="14" viewBox="0 0 17 14" fill="none" xmlns="http://www.w3.org/2000/svg">
<path d="M16.625 1.7793C16.025 2.0793 15.425 2.1793 14.725 2.2793C15.425 1.8793 15.925 1.2793 16.125 0.479297C15.525 0.879297 14.825 1.0793 14.025 1.2793C13.425 0.679297 12.525 0.279297 11.625 0.279297C9.525 0.279297 7.925 2.2793 8.425 4.2793C5.725 4.1793 3.325 2.8793 1.625 0.879297C0.725 2.3793 1.225 4.2793 2.625 5.2793C2.125 5.2793 1.625 5.0793 1.125 4.8793C1.125 6.3793 2.225 7.7793 3.725 8.1793C3.225 8.2793 2.725 8.3793 2.225 8.2793C2.625 9.5793 3.825 10.5793 5.325 10.5793C4.125 11.4793 2.325 11.9793 0.625 11.7793C2.125 12.6793 3.825 13.2793 5.625 13.2793C11.725 13.2793 15.125 8.1793 14.925 3.4793C15.625 3.0793 16.225 2.4793 16.625 1.7793Z" fill="white"/>
</svg>
