<svg width="17" height="17" viewBox="0 0 17 17" fill="none" xmlns="http://www.w3.org/2000/svg">
<path fill-rule="evenodd" clip-rule="evenodd" d="M14.3578 2.5793C12.8578 1.0793 10.8578 0.279297 8.75781 0.279297C4.35781 0.279297 0.757812 3.8793 0.757812 8.2793C0.757812 9.6793 1.15782 11.0793 1.85782 12.2793L0.757812 16.2793L4.95782 15.1793C6.15782 15.7793 7.45781 16.1793 8.75781 16.1793C13.1578 16.1793 16.7578 12.5793 16.7578 8.1793C16.7578 6.0793 15.8578 4.0793 14.3578 2.5793ZM8.75781 14.8793C7.55781 14.8793 6.35782 14.5793 5.35782 13.9793L5.15781 13.8793L2.65781 14.5793L3.35782 12.1793L3.15781 11.8793C2.45781 10.7793 2.15781 9.5793 2.15781 8.3793C2.15781 4.7793 5.15781 1.7793 8.75781 1.7793C10.5578 1.7793 12.1578 2.4793 13.4578 3.6793C14.7578 4.9793 15.3578 6.5793 15.3578 8.3793C15.3578 11.8793 12.4578 14.8793 8.75781 14.8793ZM12.3578 9.8793C12.1578 9.7793 11.1578 9.2793 10.9578 9.2793C10.7578 9.1793 10.6578 9.1793 10.5578 9.3793C10.4578 9.5793 10.0578 9.9793 9.95782 10.1793C9.85782 10.2793 9.7578 10.2793 9.5578 10.2793C9.3578 10.1793 8.75782 9.9793 7.95782 9.2793C7.35782 8.7793 6.95782 8.0793 6.85782 7.8793C6.75782 7.6793 6.85782 7.5793 6.95782 7.4793C7.05782 7.3793 7.15781 7.2793 7.25781 7.1793C7.35781 7.0793 7.35782 6.9793 7.45782 6.8793C7.55782 6.7793 7.45782 6.6793 7.45782 6.5793C7.45782 6.4793 7.05782 5.4793 6.85782 5.0793C6.75782 4.7793 6.55782 4.7793 6.45782 4.7793C6.35782 4.7793 6.2578 4.7793 6.0578 4.7793C5.9578 4.7793 5.7578 4.7793 5.5578 4.9793C5.3578 5.1793 4.85782 5.6793 4.85782 6.6793C4.85782 7.6793 5.55781 8.5793 5.65781 8.7793C5.75781 8.8793 7.0578 10.9793 9.0578 11.7793C10.7578 12.4793 11.0578 12.2793 11.4578 12.2793C11.8578 12.2793 12.6578 11.7793 12.7578 11.3793C12.9578 10.8793 12.9578 10.4793 12.8578 10.4793C12.7578 9.9793 12.5578 9.9793 12.3578 9.8793Z" fill="white"/>
</svg>
