<svg width="17" height="14" viewBox="0 0 17 14" fill="none" xmlns="http://www.w3.org/2000/svg">
<path d="M16.227 2.25251C16.027 1.44001 15.527 0.859654 14.827 0.627511C13.627 0.279297 8.52695 0.279297 8.52695 0.279297C8.52695 0.279297 3.52696 0.279297 2.22696 0.627511C1.52696 0.859654 1.02695 1.44001 0.82695 2.25251C0.62695 3.76144 0.626953 6.7793 0.626953 6.7793C0.626953 6.7793 0.626956 9.79715 0.926956 11.3061C1.12696 12.1186 1.62695 12.6989 2.32695 12.9311C3.52695 13.2793 8.62695 13.2793 8.62695 13.2793C8.62695 13.2793 13.6269 13.2793 14.9269 12.9311C15.6269 12.6989 16.127 12.1186 16.327 11.3061C16.627 9.79715 16.627 6.7793 16.627 6.7793C16.627 6.7793 16.627 3.76144 16.227 2.25251ZM7.02695 9.56501V3.99358L11.227 6.7793L7.02695 9.56501Z" fill="white"/>
</svg>
